<?xml version="1.0" standalone="no"?>
<!DOCTYPE svg PUBLIC "-//W3C//DTD SVG 1.1//EN" "http://www.w3.org/Graphics/SVG/1.1/DTD/svg11.dtd" >
<svg xmlns="http://www.w3.org/2000/svg" xmlns:xlink="http://www.w3.org/1999/xlink" version="1.1">
<metadata>
Created by FontForge 20150715 at Sun Dec 13 08:23:31 2015
 By Jimmy Wärting
 The digitally encoded machine readable software for producing the
 Typefaces licensed to you is copyrighted (c) 1993, 1994, 2002 Adobe Systems.
 All Rights Reserved. This software is the property of Adobe Systems
 Incorporated and its licensors, and may not be reproduced, used, 
 displayed, modified, disclosed or transferred without the express 
 written approval of Adobe.
 
 The digitally encoded machine readable outline data for producing the Typefaces 
 provided as part of your laser printer is copyrighted (c) 1981, 2002 Heidelberger Druckmaschinen AG. 
 All rights reserved. This data is the property of Heidelberger Druckmaschinen AG, 
 and may not be reproduced, used, displayed, modified, disclosed or transferred 
 without the express written approval of Heidelberger Druckmaschinen AG. 
</metadata>
<defs>
<font id="BaskervilleCyrLTStd-Upright" horiz-adv-x="556" >
  <font-face 
    font-family="Baskerville Cyrillic LT Std"
    font-weight="400"
    font-stretch="normal"
    units-per-em="1000"
    panose-1="2 2 6 2 6 5 6 2 3 4"
    ascent="708"
    descent="-292"
    x-height="437"
    cap-height="673"
    bbox="-147 -280 1062 885"
    underline-thickness="50"
    underline-position="-100"
    stemh="19"
    stemv="88"
    unicode-range="U+0020-F6D8"
  />
<missing-glyph horiz-adv-x="500" 
d="M0 0v700h500v-700h-500zM250 395l170 255h-340zM280 350l170 -255v510zM80 50h340l-170 255zM50 605v-510l170 255z" />
    <glyph glyph-name=".notdef" horiz-adv-x="500" 
d="M0 0v700h500v-700h-500zM250 395l170 255h-340zM280 350l170 -255v510zM80 50h340l-170 255zM50 605v-510l170 255z" />
    <glyph glyph-name="space" unicode=" " horiz-adv-x="278" 
 />
    <glyph glyph-name="exclam" unicode="!" horiz-adv-x="333" 
d="M155 151v62c0 248 -43 326 -43 404c0 53 26 71 54 71s54 -18 54 -71c0 -78 -43 -156 -43 -404v-62h-22zM109 42c0 31 26 57 57 57s57 -26 57 -57s-26 -57 -57 -57s-57 26 -57 57z" />
    <glyph glyph-name="quotedbl" unicode="&#x22;" horiz-adv-x="444" 
d="M291 467l-13 108c-2 19 -3 39 -3 67c0 27 10 46 39 46s39 -19 39 -46c0 -28 -1 -48 -3 -67l-13 -108c-1 -11 -5 -22 -23 -22s-22 11 -23 22zM107 467l-13 108c-1 19 -3 39 -3 67c0 27 10 46 39 46s39 -19 39 -46c0 -28 -1 -48 -3 -67l-13 -108c-1 -11 -5 -22 -23 -22
s-22 11 -23 22z" />
    <glyph glyph-name="numbersign" unicode="#" 
d="M331 268l33 134h-139l-33 -134h139zM78 0l49 214h-117v54h128l33 134h-117v54h128l49 214h54l-49 -214h139l49 214h54l-49 -214h117v-54h-128l-33 -134h117v-54h-128l-49 -214h-54l49 214h-139l-49 -214h-54z" />
    <glyph glyph-name="dollar" unicode="$" 
d="M288 285v-278c68 3 136 48 136 133c0 64 -23 91 -136 145zM252 426v237h-9c-67 0 -115 -41 -115 -103c0 -51 20 -81 124 -134zM252 10v294c-130 60 -190 107 -190 209c0 108 80 175 180 175h10v74h36v-80c83 -19 92 -64 108 -64c10 0 14 31 19 50c2 7 7 10 13 10
c4 0 9 -3 9 -12v-155c0 -9 -4 -15 -11 -15c-5 0 -9 3 -11 9c-19 72 -64 133 -127 152v-250c153 -71 210 -116 210 -223c0 -129 -88 -202 -210 -202v-89h-36v92c-110 16 -134 81 -147 81c-14 0 -19 -34 -23 -52c-2 -10 -6 -14 -13 -14c-6 0 -11 4 -11 14v192c0 8 5 13 11 13
s11 -2 13 -12c18 -112 84 -186 170 -197z" />
    <glyph glyph-name="percent" unicode="%" horiz-adv-x="1000" 
d="M104 519c0 98 72 169 164 169c81 0 156 -63 156 -161c0 -99 -72 -170 -164 -170c-81 0 -156 63 -156 162zM178 511c0 -91 40 -129 81 -129c49 0 91 42 91 152c0 91 -40 129 -82 129c-48 0 -90 -42 -90 -152zM576 144c0 98 72 169 164 169c81 0 156 -63 156 -161
c0 -99 -72 -170 -164 -170c-81 0 -156 63 -156 162zM650 136c0 -91 40 -129 81 -129c49 0 91 42 91 152c0 91 -40 129 -82 129c-48 0 -90 -42 -90 -152zM282 -30l372 730h47l-372 -730h-47z" />
    <glyph glyph-name="ampersand" unicode="&#x26;" horiz-adv-x="778" 
d="M58 112c0 71 31 116 169 209c-47 70 -71 129 -71 183c0 125 87 184 162 184c77 0 137 -49 137 -129c0 -61 -17 -115 -140 -208c47 -59 94 -117 146 -172c33 39 58 87 86 138c41 75 65 89 110 89c44 0 74 -25 74 -72c0 -30 -20 -54 -52 -54c-21 0 -44 15 -44 38
c0 13 2 14 2 22c0 12 -8 19 -18 19c-39 0 -60 -104 -139 -201c84 -91 136 -122 170 -122c50 0 60 43 83 43c4 0 9 -3 9 -12c0 -16 -53 -85 -144 -85c-44 0 -107 18 -180 100c-64 -66 -135 -100 -207 -100c-95 0 -153 57 -153 130zM146 157c0 -63 46 -128 114 -128
c55 0 98 28 139 72c-48 50 -133 159 -159 197c-62 -39 -94 -84 -94 -141zM216 571c0 -52 20 -113 81 -197c69 52 92 107 92 170c0 81 -41 122 -86 122c-40 0 -87 -30 -87 -95z" />
    <glyph glyph-name="quotesingle" unicode="'" horiz-adv-x="222" 
d="M144 575l-10 -108c-1 -11 -5 -22 -23 -22s-22 11 -23 22l-10 108c-3 27 -6 47 -6 66c0 28 10 47 39 47s39 -19 39 -47c0 -19 -3 -39 -6 -66z" />
    <glyph glyph-name="parenleft" unicode="(" horiz-adv-x="333" 
d="M299 -194l-21 -18c-143 150 -208 298 -208 450s65 300 208 450l21 -18c-114 -137 -147 -263 -147 -432s33 -295 147 -432z" />
    <glyph glyph-name="parenright" unicode=")" horiz-adv-x="333" 
d="M34 670l21 18c143 -150 208 -298 208 -450s-65 -300 -208 -450l-21 18c114 137 147 263 147 432s-33 295 -147 432z" />
    <glyph glyph-name="asterisk" unicode="*" horiz-adv-x="500" 
d="M242 402v48l-7 6c-7 -7 -14 -12 -28 -20c-25 -15 -43 -30 -57 -51c-16 -25 -34 -38 -55 -38c-24 0 -39 19 -39 41s18 40 64 43c48 4 58 8 105 37v9l-23 14c-20 12 -38 20 -78 25c-49 6 -67 20 -67 44c0 23 22 41 41 41c21 0 35 -10 50 -35c13 -21 28 -41 86 -75l8 5v46
c0 36 -32 70 -32 104c0 26 20 42 40 42s40 -16 40 -42c0 -34 -32 -68 -32 -104v-46l8 -5c58 34 73 54 86 75c15 25 29 35 50 35c19 0 41 -18 41 -41c0 -24 -18 -38 -67 -44c-40 -5 -58 -13 -78 -25l-23 -14v-9c47 -29 57 -33 105 -37c46 -3 64 -21 64 -43s-15 -41 -39 -41
c-21 0 -39 13 -55 38c-14 21 -32 36 -57 51c-14 8 -21 13 -28 20l-7 -6v-48c0 -36 32 -70 32 -104c0 -26 -20 -42 -40 -42s-40 16 -40 42c0 34 32 68 32 104z" />
    <glyph glyph-name="plus" unicode="+" horiz-adv-x="600" 
d="M270 0v223h-223v60h223v223h60v-223h223v-60h-223v-223h-60z" />
    <glyph glyph-name="comma" unicode="," horiz-adv-x="278" 
d="M78 -160l-11 18c77 46 102 75 104 142h-2c-4 -4 -8 -8 -14 -10c-6 -3 -12 -5 -21 -5c-26 0 -52 26 -52 57s26 57 57 57c32 0 72 -24 72 -86c0 -54 -18 -112 -133 -173z" />
    <glyph glyph-name="hyphen" unicode="-" horiz-adv-x="333" 
d="M43 189v66h247v-66h-247z" />
    <glyph glyph-name="period" unicode="." horiz-adv-x="278" 
d="M82 42c0 31 26 57 57 57s57 -26 57 -57s-26 -57 -57 -57s-57 26 -57 57z" />
    <glyph glyph-name="slash" unicode="/" horiz-adv-x="278" 
d="M-6 -18l230 706h60l-230 -706h-60z" />
    <glyph glyph-name="zero" unicode="0" 
d="M48 345c0 201 120 343 224 343c173 0 236 -227 236 -364c0 -200 -120 -342 -224 -342c-173 0 -236 227 -236 363zM144 310c0 -178 35 -306 129 -306c89 0 131 53 131 354c0 235 -49 308 -126 308c-76 0 -134 -53 -134 -356z" />
    <glyph glyph-name="one" unicode="1" 
d="M246 76v460c0 76 -12 85 -49 85h-42c-10 0 -15 4 -15 10c0 12 5 15 29 15c84 0 155 42 162 42c4 0 7 -3 7 -12c0 -46 -4 -98 -4 -150v-450c0 -46 19 -56 65 -57c32 -1 35 -3 35 -11c0 -9 -6 -11 -19 -11c-42 0 -83 3 -125 3s-83 -3 -125 -3c-13 0 -19 2 -19 11
c0 8 3 10 35 11c45 1 65 11 65 57z" />
    <glyph glyph-name="two" unicode="2" 
d="M363 286l-60 -46c-107 -82 -157 -141 -164 -159c109 0 217 3 321 3c7 0 12 -3 12 -8s-1 -11 -4 -29l-16 -84c-2 -13 -7 -23 -14 -23c-10 0 -13 3 -13 16v33c0 10 -31 11 -168 11c-68 0 -137 -1 -205 -3c10 31 55 98 96 141l145 151c71 73 94 154 94 218
c0 102 -59 159 -133 159c-80 0 -130 -54 -130 -120c0 -59 39 -108 91 -108c10 0 18 3 24 5c7 3 12 6 16 6c6 0 8 -3 8 -9c0 -16 -44 -49 -92 -49c-70 0 -113 58 -113 121c0 100 81 176 208 176c120 0 221 -62 221 -197c0 -68 -36 -137 -124 -205z" />
    <glyph glyph-name="three" unicode="3" 
d="M380 190c0 116 -33 168 -104 168c-32 0 -51 -13 -71 -43c-14 -21 -29 -36 -41 -36s-21 9 -21 21c0 11 5 20 42 42c96 57 159 108 159 206c0 80 -38 115 -100 115c-66 0 -104 -46 -104 -100c0 -43 26 -74 64 -74c28 0 40 11 44 11c3 0 4 -2 4 -4c0 -9 -23 -47 -80 -47
c-51 0 -92 33 -92 91c0 73 84 148 193 148c98 0 167 -51 167 -126c0 -73 -45 -133 -158 -180v-5c10 3 20 3 29 3c93 0 169 -60 169 -162c0 -135 -121 -236 -264 -236c-105 0 -164 47 -164 96c0 24 17 45 48 45c26 0 40 -15 48 -51c11 -51 35 -68 82 -68c91 0 150 56 150 186
z" />
    <glyph glyph-name="four" unicode="4" 
d="M310 75v143h-268c-12 0 -17 7 -17 18c0 6 5 20 20 39l320 396c9 12 17 17 23 17s10 -2 10 -14v-424h104c16 0 20 -9 20 -17c0 -6 -4 -15 -20 -15h-104v-143c0 -45 19 -55 65 -56c32 -1 35 -3 35 -11c0 -9 -6 -11 -19 -11c-42 0 -83 3 -125 3s-83 -3 -125 -3
c-13 0 -19 2 -19 11c0 8 3 10 35 11c45 1 65 11 65 56zM308 559l-243 -305v-4h245v309h-2z" />
    <glyph glyph-name="five" unicode="5" 
d="M146 569l-8 -213l2 -2c32 41 83 74 153 74c99 0 194 -68 194 -182c0 -147 -105 -264 -275 -264c-99 0 -160 44 -160 104c0 22 18 38 42 38c25 0 41 -20 50 -62c8 -36 43 -58 90 -58c74 0 153 61 153 232c0 101 -45 160 -117 160c-50 0 -101 -26 -119 -67
c0 -20 2 -37 2 -50c0 -15 -8 -22 -18 -22c-14 0 -23 11 -23 27l16 383c1 16 5 21 11 21c19 0 39 -52 146 -52c104 0 123 62 134 62c6 0 8 -3 8 -9c0 -46 -57 -135 -184 -135c-40 0 -74 6 -97 15z" />
    <glyph glyph-name="six" unicode="6" 
d="M508 224c0 -132 -89 -242 -219 -242c-150 0 -241 118 -241 298c0 285 126 408 279 408c98 0 132 -47 132 -79c0 -23 -20 -43 -43 -43c-61 0 -53 97 -133 97c-86 0 -130 -86 -135 -309h2c33 39 89 80 159 80c91 0 199 -56 199 -210zM412 207c0 143 -39 199 -120 199
c-27 0 -56 -10 -80 -27c-42 -30 -68 -64 -68 -113c0 -192 44 -262 136 -262c82 0 132 61 132 203z" />
    <glyph glyph-name="seven" unicode="7" 
d="M183 670h278c9 0 17 2 26 2c5 0 8 -5 8 -11c0 -4 -2 -12 -5 -19l-62 -136c-78 -171 -122 -323 -136 -442c-7 -58 -27 -82 -59 -82c-26 0 -49 10 -49 47c0 17 11 68 44 135l209 422c-38 0 -87 2 -141 2c-58 0 -117 -2 -148 -6c-15 -2 -35 -17 -44 -43l-21 -59
c-3 -10 -7 -11 -13 -11s-9 5 -9 8c0 6 0 13 2 21l48 230c4 18 9 24 16 24c10 0 10 -8 10 -14c0 -4 -5 -30 -5 -41c0 -22 12 -27 51 -27z" />
    <glyph glyph-name="eight" unicode="8" 
d="M78 512c0 109 92 176 197 176c97 0 190 -57 190 -155c0 -57 -24 -105 -105 -158c80 -44 138 -98 138 -193c0 -115 -94 -200 -229 -200c-120 0 -211 68 -211 167c0 74 43 134 143 194c-85 37 -123 87 -123 169zM432 140c0 67 -33 107 -143 162l-64 32
c-66 -44 -96 -106 -96 -176c0 -92 58 -154 151 -154c83 0 152 50 152 136zM253 422l86 -38c53 48 66 93 66 137c0 86 -52 145 -134 145c-71 0 -133 -46 -133 -112c0 -57 37 -97 115 -132z" />
    <glyph glyph-name="nine" unicode="9" 
d="M48 446c0 132 89 242 219 242c150 0 241 -118 241 -298c0 -285 -126 -408 -279 -408c-98 0 -132 47 -132 79c0 23 20 43 43 43c61 0 53 -97 133 -97c86 0 130 86 135 309h-2c-33 -39 -89 -80 -159 -80c-91 0 -199 56 -199 210zM144 463c0 -143 39 -199 120 -199
c27 0 56 10 80 27c42 30 68 64 68 113c0 192 -44 262 -136 262c-82 0 -132 -61 -132 -203z" />
    <glyph glyph-name="colon" unicode=":" horiz-adv-x="278" 
d="M82 392c0 31 26 57 57 57s57 -26 57 -57s-26 -57 -57 -57s-57 26 -57 57zM82 42c0 31 26 57 57 57s57 -26 57 -57s-26 -57 -57 -57s-57 26 -57 57z" />
    <glyph glyph-name="semicolon" unicode=";" horiz-adv-x="278" 
d="M78 -160l-11 18c77 46 102 75 104 142h-2c-4 -4 -8 -8 -14 -10c-6 -3 -12 -5 -21 -5c-26 0 -52 26 -52 57s26 57 57 57c32 0 72 -24 72 -86c0 -54 -18 -112 -133 -173zM82 392c0 31 26 57 57 57s57 -26 57 -57s-26 -57 -57 -57s-57 26 -57 57z" />
    <glyph glyph-name="less" unicode="&#x3c;" horiz-adv-x="600" 
d="M47 223v60l506 228v-60l-431 -198l431 -198v-60z" />
    <glyph glyph-name="equal" unicode="=" horiz-adv-x="600" 
d="M47 323v60h506v-60h-506zM47 123v60h506v-60h-506z" />
    <glyph glyph-name="greater" unicode="&#x3e;" horiz-adv-x="600" 
d="M47 451v60l506 -228v-60l-506 -228v60l431 198z" />
    <glyph glyph-name="question" unicode="?" horiz-adv-x="444" 
d="M151 158v199h66c82 0 132 40 132 115c0 76 -54 145 -115 145c-45 0 -70 -11 -103 -11s-48 16 -48 43c0 26 23 39 61 39c120 0 235 -112 235 -252c0 -94 -56 -165 -206 -165v-113h-22zM105 42c0 31 26 57 57 57s57 -26 57 -57s-26 -57 -57 -57s-57 26 -57 57z" />
    <glyph glyph-name="at" unicode="@" horiz-adv-x="800" 
d="M511 406c0 43 -17 68 -50 68c-50 0 -138 -91 -138 -200c0 -63 25 -88 59 -88c57 0 129 81 129 220zM637 72l14 -31c-67 -36 -158 -59 -218 -59c-270 0 -386 201 -386 339c0 218 172 367 374 367c186 0 332 -129 332 -301c0 -103 -66 -241 -188 -241c-66 0 -89 41 -93 68
h-2c-21 -32 -65 -68 -124 -68c-63 0 -95 47 -95 124c0 102 80 244 202 244c32 0 62 -12 76 -50h2l11 38h66l-58 -226c-6 -24 -13 -52 -13 -65c0 -18 9 -33 39 -33c83 0 137 114 137 208c0 117 -113 266 -294 266c-153 0 -290 -123 -290 -342c0 -146 125 -292 300 -292
c74 0 144 19 208 54z" />
    <glyph glyph-name="A" unicode="A" horiz-adv-x="778" 
d="M471 273l-112 292c-1 1 -1 0 -2 0l-118 -292h232zM168 163l209 525h36l221 -570c24 -61 45 -97 88 -99c29 -2 32 -4 32 -9c0 -12 -3 -13 -22 -13c-41 0 -81 3 -122 3s-81 -3 -122 -3c-20 0 -26 1 -26 13c0 5 6 9 34 9c33 0 46 19 46 40c0 20 -16 70 -31 110l-29 76h-254
l-56 -152c-3 -9 -5 -19 -5 -30c0 -32 26 -40 57 -44c23 -3 26 -4 26 -9c0 -12 -3 -13 -20 -13c-31 0 -63 3 -94 3s-63 -3 -94 -3c-14 0 -18 3 -18 13c0 4 2 7 21 9c44 5 75 24 123 144z" />
    <glyph glyph-name="B" unicode="B" horiz-adv-x="722" 
d="M157 124v422c0 77 -19 104 -68 105c-40 1 -43 3 -43 11c0 9 6 11 27 11c36 0 89 -3 136 -3c45 0 87 3 128 3c149 0 246 -46 246 -154c0 -87 -58 -137 -166 -157v-2c132 -11 235 -60 235 -189c0 -135 -133 -174 -288 -174c-51 0 -101 3 -155 3c-47 0 -100 -3 -136 -3
c-21 0 -27 2 -27 11c0 8 3 10 43 11c49 1 68 28 68 105zM261 329v-221c0 -55 33 -89 103 -89c110 0 164 50 164 163c0 127 -74 162 -220 162c-42 0 -47 -4 -47 -15zM261 630v-246c0 -13 8 -18 25 -18c122 0 189 36 189 142c0 108 -65 143 -153 143c-41 0 -61 -6 -61 -21z
" />
    <glyph glyph-name="C" unicode="C" horiz-adv-x="722" 
d="M659 207v-180c0 -10 -4 -16 -12 -16s-13 5 -13 21c0 11 -6 17 -18 17c-35 0 -65 -67 -212 -67c-239 0 -360 149 -360 335c0 251 176 371 365 371c130 0 167 -52 191 -52c23 0 12 36 30 36c7 0 11 -6 11 -14c0 -50 8 -104 8 -158c0 -14 -3 -24 -10 -24c-8 0 -13 6 -18 34
c-9 51 -70 156 -210 156c-116 0 -243 -86 -243 -351c0 -235 142 -311 243 -311c140 0 194 98 220 190c10 35 12 38 18 38c10 0 10 -8 10 -25z" />
    <glyph glyph-name="D" unicode="D" horiz-adv-x="778" 
d="M152 124v422c0 77 -19 104 -63 105c-32 1 -35 3 -35 11c0 9 6 11 19 11c33 0 86 -3 131 -3c50 0 101 3 151 3c211 0 372 -118 372 -341c0 -190 -97 -335 -341 -335c-28 0 -141 3 -182 3c-45 0 -98 -3 -131 -3c-13 0 -19 2 -19 11c0 8 3 10 35 11c44 1 63 28 63 105z
M603 315c0 288 -150 333 -259 333h-47c-35 0 -41 -7 -41 -31v-463c0 -79 0 -132 125 -132c198 0 222 152 222 293z" />
    <glyph glyph-name="E" unicode="E" horiz-adv-x="667" 
d="M150 124v422c0 77 -19 104 -63 105c-32 1 -35 3 -35 11c0 9 6 11 19 11c79 0 159 -3 238 -3s159 3 235 3c8 0 16 -2 16 -12v-113c0 -15 -4 -19 -11 -19s-13 4 -14 14c-8 83 -42 105 -158 105c-113 0 -123 -1 -123 -17v-271c70 0 156 18 162 101c2 28 5 33 15 33
c9 0 13 -4 13 -12c0 -42 -3 -83 -3 -125s3 -83 3 -125c0 -8 -4 -12 -11 -12s-11 4 -17 34c-13 64 -63 81 -128 81h-34v-184c0 -89 14 -129 151 -129c129 0 172 45 184 109c4 21 8 27 17 27c5 0 9 -4 9 -12c0 -20 -6 -74 -6 -102v-34c0 -9 -5 -13 -16 -13
c-87 0 -174 3 -261 3s-174 -3 -261 -3c-13 0 -19 2 -19 11c0 8 3 10 35 11c44 1 63 28 63 105z" />
    <glyph glyph-name="F" unicode="F" horiz-adv-x="611" 
d="M157 124v422c0 77 -19 104 -63 105c-32 1 -35 3 -35 11c0 9 6 11 19 11c33 0 86 -3 137 -3c112 0 224 3 336 3c14 0 19 -4 20 -15c2 -20 13 -93 13 -117c0 -12 -6 -13 -12 -13c-8 0 -12 9 -13 15c-2 14 -21 58 -44 74c-27 19 -66 31 -141 31h-73c-39 0 -40 -12 -40 -79
v-217c118 0 157 18 162 91c2 28 5 33 15 33c9 0 13 -4 13 -12c0 -42 -3 -83 -3 -115c0 -42 3 -83 3 -125c0 -8 -4 -12 -11 -12s-11 4 -17 34c-13 64 -51 81 -104 81h-58v-203c0 -77 19 -104 72 -105c32 -1 35 -3 35 -11c0 -9 -6 -11 -19 -11c-42 0 -95 3 -140 3
s-98 -3 -131 -3c-13 0 -19 2 -19 11c0 8 3 10 35 11c44 1 63 28 63 105z" />
    <glyph glyph-name="G" unicode="G" horiz-adv-x="778" 
d="M44 319c0 205 140 369 351 369c99 0 156 -28 193 -47c5 -3 10 -5 15 -5c8 0 12 4 14 10c3 9 7 25 17 25c7 0 9 -5 9 -18c0 -25 -3 -99 -4 -148c-1 -22 -1 -28 -10 -28c-10 0 -11 7 -20 36c-18 59 -48 153 -194 153c-184 0 -247 -143 -247 -340c0 -260 134 -322 226 -322
c83 0 183 27 183 153c0 57 -2 93 -62 97c-28 2 -31 3 -31 12c0 11 8 12 14 12c43 0 87 -3 130 -3c38 0 76 3 114 3c10 0 15 -1 15 -9c0 -11 -7 -12 -19 -13c-51 -5 -53 -46 -53 -93c0 -13 1 -45 4 -93c-50 0 -93 -23 -143 -50c-57 -31 -114 -38 -161 -38
c-188 0 -341 116 -341 337z" />
    <glyph glyph-name="H" unicode="H" horiz-adv-x="889" 
d="M628 124v207h-367v-207c0 -77 19 -104 63 -105c32 -1 35 -3 35 -11c0 -9 -6 -11 -19 -11c-33 0 -86 3 -131 3s-98 -3 -131 -3c-13 0 -19 2 -19 11c0 8 3 10 35 11c44 1 63 28 63 105v422c0 77 -19 104 -63 105c-32 1 -35 3 -35 11c0 9 6 11 19 11c33 0 86 -3 131 -3
s98 3 131 3c13 0 19 -2 19 -11c0 -8 -3 -10 -35 -11c-44 -1 -63 -28 -63 -105v-183h367v183c0 77 -19 104 -63 105c-32 1 -35 3 -35 11c0 9 6 11 19 11c33 0 86 -3 131 -3s98 3 131 3c13 0 19 -2 19 -11c0 -8 -3 -10 -35 -11c-44 -1 -63 -28 -63 -105v-422
c0 -77 19 -104 63 -105c32 -1 35 -3 35 -11c0 -9 -6 -11 -19 -11c-33 0 -86 3 -131 3s-98 -3 -131 -3c-13 0 -19 2 -19 11c0 8 3 10 35 11c44 1 63 28 63 105z" />
    <glyph glyph-name="I" unicode="I" horiz-adv-x="444" 
d="M170 124v422c0 77 -19 104 -63 105c-32 1 -35 3 -35 11c0 9 6 11 19 11c33 0 86 -3 131 -3s98 3 131 3c13 0 19 -2 19 -11c0 -8 -3 -10 -35 -11c-44 -1 -63 -28 -63 -105v-422c0 -77 19 -104 63 -105c32 -1 35 -3 35 -11c0 -9 -6 -11 -19 -11c-33 0 -86 3 -131 3
s-98 -3 -131 -3c-13 0 -19 2 -19 11c0 8 3 10 35 11c44 1 63 28 63 105z" />
    <glyph glyph-name="J" unicode="J" horiz-adv-x="444" 
d="M190 -140v686c0 77 -19 104 -63 105c-32 1 -35 3 -35 11c0 9 6 11 19 11c33 0 86 -3 131 -3s98 3 131 3c13 0 19 -2 19 -11c0 -8 -3 -10 -35 -11c-44 -1 -63 -28 -63 -105v-617c0 -175 -117 -209 -236 -209c-81 0 -141 30 -141 74c0 27 17 41 43 41s39 -16 52 -59
c8 -26 21 -34 54 -34c63 0 124 19 124 118z" />
    <glyph glyph-name="K" unicode="K" horiz-adv-x="778" 
d="M162 124v422c0 77 -19 104 -63 105c-32 1 -35 3 -35 11c0 9 6 11 19 11c33 0 86 -3 131 -3s98 3 131 3c13 0 19 -2 19 -11c0 -8 -3 -10 -35 -11c-44 -1 -63 -28 -63 -105v-257c110 118 190 215 207 238c25 35 44 66 44 86c0 22 -12 37 -40 38c-33 1 -37 4 -37 13
s8 9 14 9c36 0 71 -3 107 -3c31 0 62 3 93 3c8 0 12 -5 12 -11c0 -9 -7 -11 -29 -13c-35 -3 -58 -30 -79 -59l-160 -203c92 -107 176 -225 276 -323c20 -20 44 -45 64 -45c22 -1 25 -3 25 -11c0 -9 -6 -11 -19 -11c-44 0 -87 3 -140 3c-44 0 -87 -3 -131 -3
c-13 0 -19 2 -19 11c0 8 3 10 35 11c20 1 46 6 46 30c0 22 -28 53 -38 65l-166 202l-65 -65v-127c0 -77 19 -104 63 -105c32 -1 35 -3 35 -11c0 -9 -6 -11 -19 -11c-33 0 -86 3 -131 3s-98 -3 -131 -3c-13 0 -19 2 -19 11c0 8 3 10 35 11c44 1 63 28 63 105z" />
    <glyph glyph-name="L" unicode="L" horiz-adv-x="667" 
d="M148 124v422c0 77 -19 104 -63 105c-32 1 -35 3 -35 11c0 9 6 11 19 11c33 0 86 -3 131 -3s98 3 131 3c13 0 19 -2 19 -11c0 -8 -3 -10 -35 -11c-44 -1 -63 -28 -63 -105v-413c0 -81 33 -111 155 -111c164 0 193 62 208 128c2 11 4 23 12 23c11 0 12 -7 12 -15
c0 -42 -1 -109 -3 -140c-1 -16 -4 -21 -15 -21s-22 1 -32 2c-11 0 -22 1 -33 1h-352c-22 0 -45 -1 -67 -1c-23 -1 -45 -2 -68 -2c-20 0 -26 2 -26 11c0 8 10 10 42 11c44 1 63 28 63 105z" />
    <glyph glyph-name="M" unicode="M" horiz-adv-x="944" 
d="M150 124v422c0 77 -19 104 -63 105c-32 1 -35 3 -35 11c0 9 6 11 19 11c25 0 49 -3 74 -3s49 3 74 3h17c10 0 15 -3 18 -10l220 -512l218 507c4 10 8 15 17 15c27 0 55 -3 82 -3s55 3 82 3c13 0 19 -2 19 -11c0 -8 -3 -10 -35 -11c-44 -1 -63 -28 -63 -105v-422
c0 -77 19 -104 63 -105c32 -1 35 -3 35 -11c0 -9 -6 -11 -19 -11c-33 0 -86 3 -131 3s-98 -3 -131 -3c-13 0 -19 2 -19 11c0 8 3 10 35 11c44 1 63 28 63 105v451h-2l-242 -562c-3 -8 -6 -13 -11 -13c-6 0 -9 3 -13 12l-240 573h-2v-461c0 -77 19 -104 63 -105
c32 -1 35 -3 35 -11c0 -9 -6 -11 -19 -11c-31 0 -63 3 -94 3s-63 -3 -94 -3c-13 0 -19 2 -19 11c0 8 3 10 35 11c44 1 63 28 63 105z" />
    <glyph glyph-name="N" unicode="N" horiz-adv-x="833" 
d="M157 124v451c0 24 -21 64 -75 74c-25 5 -34 5 -34 15c0 8 5 9 14 9c11 0 47 -3 82 -3c28 0 56 2 84 3l427 -534h2v407c0 77 -19 92 -64 100c-31 6 -34 8 -34 16c0 9 6 11 19 11c31 0 63 -3 94 -3s63 3 94 3c13 0 19 -2 19 -11c0 -8 -3 -10 -34 -16
c-45 -8 -64 -23 -64 -100v-564h-33l-465 583h-2v-441c0 -77 19 -92 64 -100c31 -6 34 -8 34 -16c0 -9 -6 -11 -19 -11c-31 0 -63 3 -94 3s-63 -3 -94 -3c-13 0 -19 2 -19 11c0 8 3 10 34 16c45 8 64 23 64 100z" />
    <glyph glyph-name="O" unicode="O" horiz-adv-x="833" 
d="M44 335c0 207 155 353 372 353s372 -146 372 -353s-155 -353 -372 -353s-372 146 -372 353zM168 335c0 -161 78 -331 248 -331s248 170 248 331s-78 331 -248 331s-248 -170 -248 -331z" />
    <glyph glyph-name="P" unicode="P" horiz-adv-x="611" 
d="M150 124v422c0 77 -19 104 -63 105c-32 1 -35 3 -35 11c0 9 6 11 19 11c33 0 86 -3 131 -3s90 3 134 3c183 0 249 -88 249 -174c0 -123 -93 -188 -266 -188h-65v-187c0 -77 19 -104 63 -105c32 -1 35 -3 35 -11c0 -9 -6 -11 -19 -11c-33 0 -86 3 -131 3s-98 -3 -131 -3
c-13 0 -19 2 -19 11c0 8 3 10 35 11c44 1 63 28 63 105zM254 623v-284c24 -2 40 -3 59 -3c110 0 158 45 158 159c0 118 -71 156 -165 156c-45 0 -52 -7 -52 -28z" />
    <glyph glyph-name="Q" unicode="Q" horiz-adv-x="833" 
d="M44 335c0 207 155 353 372 353s372 -146 372 -353s-155 -353 -372 -353h-1l-90 -44c0 -1 1 -1 0 -3c15 2 29 3 43 3c137 0 241 -89 346 -89c23 0 46 7 61 20c10 8 29 41 38 41c11 0 13 -6 13 -22c0 -89 -76 -146 -154 -146c-153 0 -196 174 -341 174
c-23 0 -44 -3 -73 -23c-25 -17 -45 -33 -58 -33c-10 0 -18 9 -18 22s14 20 40 32l139 68v3c-188 23 -317 162 -317 350zM168 335c0 -161 78 -331 248 -331s248 170 248 331s-78 331 -248 331s-248 -170 -248 -331z" />
    <glyph glyph-name="R" unicode="R" horiz-adv-x="722" 
d="M150 124v422c0 77 -19 104 -63 105c-32 1 -35 3 -35 11c0 9 6 11 19 11c33 0 86 -3 131 -3c58 0 117 3 175 3c132 0 218 -60 218 -173c-7 -122 -83 -153 -189 -176c75 -81 143 -169 219 -249c19 -20 54 -49 74 -55c17 -5 25 -6 25 -15c0 -7 -4 -8 -17 -8
c-7 0 -21 1 -36 2c-15 0 -31 1 -45 1h-74c-62 80 -127 157 -189 237c-38 49 -50 71 -90 71c-14 0 -19 -7 -19 -17v-167c0 -77 19 -104 63 -105c32 -1 35 -3 35 -11c0 -9 -6 -11 -19 -11c-33 0 -86 3 -131 3s-98 -3 -131 -3c-13 0 -19 2 -19 11c0 8 3 10 35 11
c44 1 63 28 63 105zM315 651c-41 0 -61 -6 -61 -21v-297h46c126 0 181 36 181 164c0 117 -71 154 -166 154z" />
    <glyph glyph-name="S" unicode="S" 
d="M44 27v159c0 12 5 17 14 17c10 0 13 -7 15 -19c7 -43 53 -177 190 -177c103 0 153 65 153 134c0 198 -353 128 -353 367c0 128 112 180 204 180c104 0 118 -45 154 -45c16 0 13 37 25 37c8 0 12 -4 12 -17c0 -22 3 -124 3 -144c0 -14 -4 -20 -11 -20s-14 15 -20 36
c-24 83 -92 128 -160 128c-71 0 -125 -46 -125 -108c0 -178 367 -123 367 -373c0 -132 -112 -200 -249 -200c-109 0 -152 59 -177 59c-16 0 -13 -33 -29 -33c-9 0 -13 9 -13 19z" />
    <glyph glyph-name="T" unicode="T" horiz-adv-x="778" 
d="M337 124v502c0 15 -6 19 -154 19c-70 0 -124 -12 -129 -87c-2 -32 -7 -35 -15 -35c-6 0 -8 4 -8 13v122c0 9 3 15 17 15h682c14 0 17 -6 17 -15v-122c0 -9 -2 -13 -8 -13c-8 0 -13 3 -15 35c-5 75 -59 87 -129 87c-148 0 -154 -4 -154 -19v-502c0 -77 19 -104 63 -105
c32 -1 35 -3 35 -11c0 -9 -6 -11 -19 -11c-33 0 -86 3 -131 3s-98 -3 -131 -3c-13 0 -19 2 -19 11c0 8 3 10 35 11c44 1 63 28 63 105z" />
    <glyph glyph-name="U" unicode="U" horiz-adv-x="833" 
d="M688 543v-298c0 -155 -62 -263 -277 -263c-155 0 -259 67 -259 217v346c0 78 -19 105 -64 106c-32 1 -35 3 -35 11c0 9 6 11 19 11c33 0 86 -3 131 -3s98 3 131 3c13 0 19 -2 19 -11c0 -8 -3 -10 -35 -11c-44 -1 -66 -28 -66 -106v-340c0 -147 93 -186 196 -186
c199 0 213 144 213 259v265c0 48 0 104 -62 106c-30 1 -41 3 -41 12s6 12 17 12c25 0 52 -3 101 -3s72 3 97 3c9 0 15 -3 15 -12s-5 -11 -35 -12c-61 -2 -65 -58 -65 -106z" />
    <glyph glyph-name="V" unicode="V" horiz-adv-x="778" 
d="M273 229l-117 300c-35 88 -41 102 -72 114c-13 5 -32 6 -41 8c-6 1 -9 3 -9 11c0 10 4 11 11 11c48 0 96 -3 144 -3c69 0 113 3 123 3s16 -2 16 -12c0 -13 -13 -13 -31 -15c-15 -1 -51 -5 -51 -34c0 -42 22 -92 94 -278l88 -226c36 89 74 178 131 328
c26 69 49 127 49 167c0 38 -30 45 -69 49c-10 1 -11 5 -11 12c0 5 5 9 13 9c29 0 75 -3 109 -3c29 0 57 3 85 3c9 0 16 -1 16 -11c0 -9 -13 -12 -30 -15c-50 -9 -64 -45 -84 -96c-104 -266 -152 -380 -231 -569h-33z" />
    <glyph glyph-name="W" unicode="W" horiz-adv-x="1000" 
d="M309 -18l-193 588c-20 61 -34 73 -64 74c-25 1 -33 5 -33 16c0 10 6 13 20 13c22 0 92 -3 131 -3c44 0 99 3 119 3c14 0 25 0 25 -12c0 -13 -10 -13 -29 -13c-31 0 -62 -11 -62 -46c0 -18 15 -76 27 -115l109 -363h2l142 462c10 32 18 72 22 84h32l168 -541h2l62 200
c19 59 63 201 63 248c0 49 -18 60 -30 65s-31 7 -46 10c-8 1 -9 7 -9 12s2 9 10 9c15 0 65 -3 106 -3c27 0 54 3 80 3c11 0 18 -2 18 -11s-7 -11 -36 -18c-35 -9 -47 -49 -60 -89l-71 -231l-63 -197l-50 -145h-33c-22 66 -145 475 -159 516h-2c-52 -173 -106 -345 -164 -516
h-34z" />
    <glyph glyph-name="X" unicode="X" horiz-adv-x="778" 
d="M348 314l-235 300c-14 18 -35 36 -55 37c-16 1 -19 3 -19 11c0 9 6 11 19 11c41 0 82 -3 123 -3s82 3 123 3c14 0 20 -2 20 -11c0 -8 -3 -10 -35 -11c-25 -1 -42 -7 -42 -19s9 -34 24 -53l148 -189l93 124c32 43 45 72 45 92c0 26 -17 44 -36 45c-32 1 -35 3 -35 11
c0 9 6 11 19 11c31 0 62 -3 93 -3s62 3 93 3c13 0 19 -2 19 -11c0 -8 -3 -10 -24 -11c-28 -1 -54 -27 -71 -49l-180 -232l247 -310c15 -19 39 -40 63 -41c18 -1 21 -3 21 -11c0 -9 -6 -11 -19 -11c-44 0 -87 3 -131 3s-87 -3 -131 -3c-13 0 -19 2 -19 11c0 8 3 10 35 11
c20 1 46 6 46 30c0 10 -10 30 -38 65l-143 179l-123 -163c-30 -40 -33 -58 -33 -73c0 -25 23 -37 44 -38c32 -1 35 -3 35 -11c0 -9 -6 -11 -19 -11c-34 0 -68 3 -102 3s-68 -3 -102 -3c-13 0 -19 2 -19 11c0 8 3 10 17 10c29 1 67 22 104 69z" />
    <glyph glyph-name="Y" unicode="Y" horiz-adv-x="722" 
d="M305 124v131l-172 312c-29 53 -46 84 -90 84c-9 0 -18 0 -18 11s5 11 24 11c40 0 79 -3 118 -3s78 3 117 3c20 0 25 -1 25 -11c0 -8 -7 -11 -21 -11c-21 0 -58 -7 -58 -35c0 -19 10 -36 21 -57c57 -111 128 -236 142 -262l34 55c71 115 137 222 137 260c0 14 0 36 -37 39
c-28 2 -35 3 -35 11s4 11 12 11c22 0 60 -3 91 -3c28 0 57 3 85 3c9 0 17 -1 17 -10c0 -8 -7 -11 -26 -13c-27 -4 -53 -36 -71 -66l-95 -160l-96 -153v-147c0 -77 19 -104 63 -105c32 -1 35 -3 35 -11c0 -9 -6 -11 -19 -11c-33 0 -86 3 -131 3s-98 -3 -131 -3
c-13 0 -19 2 -19 11c0 8 3 10 35 11c44 1 63 28 63 105z" />
    <glyph glyph-name="Z" unicode="Z" horiz-adv-x="611" 
d="M560 673l-396 -645v-3h203c86 0 130 15 159 81c8 18 12 37 17 57c3 10 3 18 12 18c8 0 11 -5 11 -14c0 -16 -10 -70 -10 -144c0 -21 -13 -26 -28 -26h-498l398 648h-107c-189 0 -200 -14 -235 -119c-2 -6 -7 -8 -11 -8c-6 0 -11 3 -11 11c0 23 9 52 9 123
c0 10 1 21 15 21h472z" />
    <glyph glyph-name="bracketleft" unicode="[" horiz-adv-x="333" 
d="M82 -194v864h217v-32h-151v-800h151v-32h-217z" />
    <glyph glyph-name="backslash" unicode="\" horiz-adv-x="278" 
d="M224 -18l-230 706h60l230 -706h-60z" />
    <glyph glyph-name="bracketright" unicode="]" horiz-adv-x="333" 
d="M185 -162v800h-151v32h217v-864h-217v32h151z" />
    <glyph glyph-name="asciicircum" unicode="^" horiz-adv-x="600" 
d="M448 305l-148 294l-148 -294h-60l181 365h54l181 -365h-60z" />
    <glyph glyph-name="underscore" unicode="_" horiz-adv-x="500" 
d="M500 -125h-500v50h500v-50z" />
    <glyph glyph-name="grave" unicode="`" horiz-adv-x="278" 
d="M175 536l-154 97c-18 11 -30 23 -30 41c0 19 14 34 34 34c17 0 29 -10 43 -24l147 -148h-40z" />
    <glyph glyph-name="a" unicode="a" horiz-adv-x="500" 
d="M37 78c0 68 45 103 225 170c54 20 56 27 56 58c0 92 -15 118 -100 118c-73 0 -87 -22 -90 -59c-2 -29 -14 -41 -37 -41c-21 0 -40 10 -40 34c0 50 62 91 170 91c135 0 177 -49 177 -130c0 -56 -5 -151 -5 -235c0 -39 11 -59 44 -59c18 0 28 19 35 19s8 -5 8 -10
c0 -18 -34 -49 -80 -49c-43 0 -77 19 -90 68c-55 -48 -109 -68 -161 -68c-67 0 -112 24 -112 93zM312 103l6 144c-142 -55 -193 -87 -193 -153c0 -31 22 -73 68 -73c33 0 74 24 106 49c10 8 12 17 13 33z" />
    <glyph glyph-name="b" unicode="b" 
d="M83 13v585c0 55 -5 66 -56 66c-16 0 -19 4 -19 12c0 4 2 9 9 10c69 7 142 22 147 22c4 0 7 -2 7 -13v-296h2c35 28 70 50 141 50c127 0 210 -101 210 -223c0 -194 -146 -241 -222 -241c-82 0 -112 26 -156 66l-34 -38c-7 -8 -12 -13 -15 -13c-8 0 -14 2 -14 13zM171 328
v-229c0 -70 69 -89 110 -89c54 0 147 29 147 212c0 86 -24 198 -144 198c-62 0 -113 -34 -113 -92z" />
    <glyph glyph-name="c" unicode="c" horiz-adv-x="444" 
d="M29 211c0 140 111 238 256 238c39 0 127 -12 127 -64c0 -17 -12 -34 -34 -34c-17 0 -22 8 -34 28c-20 37 -30 51 -75 51c-44 0 -140 -29 -140 -227c0 -177 118 -193 148 -193c14 0 77 2 100 46c6 11 10 22 21 22s19 -8 19 -18c0 -25 -49 -75 -168 -75
c-104 0 -220 55 -220 226z" />
    <glyph glyph-name="d" unicode="d" horiz-adv-x="611" 
d="M278 424c-62 0 -135 -58 -135 -205c0 -94 23 -209 135 -209c122 0 133 87 133 234c0 103 -17 180 -133 180zM499 695v-571c0 -87 29 -86 68 -88c6 0 9 -3 9 -6c0 -5 -2 -10 -9 -12l-127 -33c-12 34 -14 43 -20 80c-24 -31 -62 -80 -158 -80c-116 0 -219 85 -219 234
c0 123 89 230 223 230c94 0 125 -37 143 -58h2v207c0 55 -5 66 -56 66c-16 0 -19 4 -19 12c0 4 2 9 9 10c69 7 142 22 147 22c4 0 7 -2 7 -13z" />
    <glyph glyph-name="e" unicode="e" horiz-adv-x="500" 
d="M142 298h213c14 0 20 2 20 31c0 41 -25 95 -105 95c-73 0 -115 -51 -128 -126zM450 273h-313c-2 -9 -4 -32 -4 -48c0 -148 93 -204 168 -204c88 0 110 64 130 64c5 0 11 -4 11 -11c0 -23 -57 -89 -167 -89s-238 61 -238 228c0 135 115 236 233 236
c105 0 193 -65 193 -159c0 -11 -3 -17 -13 -17z" />
    <glyph glyph-name="f" unicode="f" horiz-adv-x="389" 
d="M214 391v-269c0 -95 17 -99 90 -103c16 -1 21 -4 21 -13c0 -6 -2 -9 -9 -9c-43 0 -103 3 -139 3c-34 0 -93 -3 -123 -3c-7 0 -9 3 -9 9c0 9 6 11 21 13c50 6 60 9 60 73v299h-67c-9 0 -14 4 -14 14s5 14 14 14h67c0 81 0 142 23 191c12 25 58 98 166 98
c53 0 126 -20 126 -75c0 -18 -14 -30 -31 -30c-29 0 -37 17 -41 28c-12 31 -21 52 -59 52c-86 0 -96 -95 -96 -166v-98h109c10 0 14 -4 14 -14s-4 -14 -14 -14h-109z" />
    <glyph glyph-name="g" unicode="g" 
d="M81 53c0 58 54 77 88 88c-33 13 -106 40 -106 146c0 112 115 162 191 162c58 0 112 -27 133 -46c42 25 68 41 102 41c43 0 56 -26 56 -44c0 -12 -4 -31 -30 -31c-15 0 -32 18 -35 21c-11 11 -16 16 -32 16c-23 0 -37 -12 -45 -20c17 -25 36 -52 36 -104
c0 -37 -8 -151 -195 -159c-59 -3 -113 -4 -113 -45c0 -29 31 -29 109 -31c136 -3 254 -13 254 -151c0 -129 -121 -176 -223 -176c-139 0 -223 59 -223 140c0 38 24 86 75 86c11 0 32 -7 32 -14c0 -16 -47 -24 -47 -79c0 -18 4 -111 163 -111c109 0 155 56 155 118
c0 94 -82 95 -165 99c-108 5 -180 15 -180 94zM148 288c0 -65 22 -144 108 -144c74 0 98 75 98 143c0 101 -55 140 -101 140c-75 0 -105 -68 -105 -139z" />
    <glyph glyph-name="h" unicode="h" horiz-adv-x="611" 
d="M116 80v518c0 55 -5 66 -56 66c-16 0 -19 4 -19 12c0 4 2 9 9 10c69 7 142 22 147 22c4 0 7 -2 7 -13v-327l2 6c38 50 100 75 146 75c95 0 161 -32 161 -143v-226c0 -54 13 -61 38 -64c28 -3 32 -5 32 -11s-8 -8 -16 -8c-20 0 -69 3 -103 3s-81 -3 -105 -3
c-7 0 -9 3 -9 9s6 8 21 10c44 6 54 24 54 64v224c0 78 -33 113 -98 113c-66 0 -123 -59 -123 -133v-204c0 -54 13 -61 38 -64c28 -3 32 -5 32 -11s-8 -8 -16 -8c-20 0 -69 3 -103 3s-81 -3 -105 -3c-7 0 -9 3 -9 9s6 8 21 10c44 6 54 24 54 64z" />
    <glyph glyph-name="i" unicode="i" horiz-adv-x="278" 
d="M103 80v273c0 31 -5 45 -38 45h-18c-16 0 -19 4 -19 9c0 4 2 9 9 10c20 3 142 32 147 32c4 0 7 -2 7 -10v-359c0 -54 13 -61 38 -64c28 -3 32 -5 32 -11s-8 -8 -16 -8c-20 0 -69 3 -103 3s-81 -3 -105 -3c-7 0 -9 3 -9 9s6 8 21 10c44 6 54 24 54 64zM83 616
c0 30 24 54 54 54s54 -24 54 -54s-24 -54 -54 -54s-54 24 -54 54z" />
    <glyph glyph-name="j" unicode="j" horiz-adv-x="278" 
d="M118 -98v451c0 31 -5 45 -38 45h-18c-16 0 -19 4 -19 9c0 4 2 9 9 10c20 3 142 32 147 32c4 0 7 -2 7 -10v-535c0 -123 -97 -184 -189 -184c-89 0 -142 34 -142 67c0 20 11 31 32 31c18 0 30 -10 38 -28c16 -37 44 -48 72 -48c65 0 101 43 101 160zM98 616
c0 30 24 54 54 54s54 -24 54 -54s-24 -54 -54 -54s-54 24 -54 54z" />
    <glyph glyph-name="k" unicode="k" 
d="M116 80v518c0 45 -5 59 -56 59c-16 0 -19 4 -19 9c0 4 2 9 9 10c20 3 142 32 147 32c4 0 7 -2 7 -10v-479c2 0 147 138 147 172c0 18 -18 21 -32 24c-12 2 -23 2 -23 13c0 9 9 9 17 9c31 0 62 -3 74 -3c27 0 65 3 72 3c11 0 14 -4 14 -10c0 -11 -10 -11 -26 -12
c-15 -1 -35 -11 -50 -29c-37 -46 -78 -89 -119 -131l215 -214c8 -8 18 -15 29 -18c15 -4 24 -7 24 -17c0 -4 -3 -9 -11 -9s-26 3 -53 3c-26 0 -44 -3 -55 -3c-9 0 -20 10 -50 41l-139 144c-12 13 -24 18 -34 18v-120c0 -54 13 -61 38 -64c28 -3 32 -5 32 -11s-8 -8 -16 -8
c-20 0 -69 3 -103 3s-81 -3 -105 -3c-7 0 -9 3 -9 9s6 8 21 10c44 6 54 24 54 64z" />
    <glyph glyph-name="l" unicode="l" horiz-adv-x="278" 
d="M97 80v518c0 55 -5 66 -56 66c-16 0 -19 4 -19 12c0 4 2 9 9 10c69 7 137 22 144 22s10 -5 10 -11v-617c0 -54 13 -61 38 -64c28 -3 32 -5 32 -11s-8 -8 -16 -8c-20 0 -69 3 -103 3s-81 -3 -105 -3c-7 0 -9 3 -9 9s6 8 21 10c44 6 54 24 54 64z" />
    <glyph glyph-name="m" unicode="m" horiz-adv-x="889" 
d="M110 80v230c0 61 -11 85 -43 85c-20 0 -30 0 -30 11c0 8 5 10 13 11c37 2 117 32 124 32c16 0 16 -75 16 -85c43 58 85 85 161 85c67 0 121 -34 137 -87c7 25 64 87 147 87c124 0 157 -53 157 -166v-203c0 -40 10 -58 54 -64c15 -2 21 -4 21 -10s-2 -9 -9 -9
c-24 0 -71 3 -105 3s-83 -3 -103 -3c-8 0 -16 2 -16 8s4 8 32 11c25 3 38 10 38 64v221c0 64 -25 116 -86 116c-66 0 -123 -51 -123 -127v-210c0 -40 12 -58 56 -64c15 -2 21 -4 21 -10s-2 -9 -9 -9c-24 0 -71 3 -112 3s-88 -3 -112 -3c-7 0 -9 3 -9 9s6 8 21 10
c44 6 56 24 56 64v221c0 64 -25 116 -86 116c-66 0 -123 -51 -123 -127v-210c0 -54 13 -61 38 -64c28 -3 32 -5 32 -11s-8 -8 -16 -8c-20 0 -69 3 -103 3s-81 -3 -105 -3c-7 0 -9 3 -9 9s6 8 21 10c44 6 54 24 54 64z" />
    <glyph glyph-name="n" unicode="n" horiz-adv-x="611" 
d="M116 80v230c0 61 -11 85 -43 85c-20 0 -30 0 -30 11c0 8 5 10 13 11c37 2 117 32 124 32c16 0 16 -85 16 -88h2c32 57 96 88 154 88c95 0 161 -32 161 -143v-226c0 -54 13 -61 38 -64c28 -3 32 -5 32 -11s-8 -8 -16 -8c-20 0 -69 3 -103 3s-81 -3 -105 -3c-7 0 -9 3 -9 9
s6 8 21 10c44 6 54 24 54 64v224c0 78 -33 113 -98 113c-66 0 -123 -59 -123 -133v-204c0 -54 13 -61 38 -64c28 -3 32 -5 32 -11s-8 -8 -16 -8c-20 0 -69 3 -103 3s-81 -3 -105 -3c-7 0 -9 3 -9 9s6 8 21 10c44 6 54 24 54 64z" />
    <glyph glyph-name="o" unicode="o" 
d="M37 215c0 133 105 234 245 234c117 0 237 -92 237 -229c0 -134 -105 -235 -245 -235c-117 0 -237 92 -237 230zM133 217c0 -134 46 -213 145 -213s145 79 145 213s-46 213 -145 213s-145 -79 -145 -213z" />
    <glyph glyph-name="p" unicode="p" horiz-adv-x="611" 
d="M118 -211v564c0 31 -5 45 -38 45h-14c-15 0 -18 2 -18 8c0 5 5 8 17 11c40 9 114 32 120 32c4 0 7 -2 7 -10v-74h2c31 52 81 84 149 84c121 0 228 -92 228 -241c0 -132 -103 -223 -228 -223c-62 0 -104 18 -137 53v-249c0 -23 13 -39 38 -40s32 -5 32 -10
c0 -7 -8 -9 -16 -9c-33 0 -65 3 -98 3s-65 -3 -98 -3c-8 0 -16 2 -16 9c0 5 7 9 32 10s38 17 38 40zM200 267v-117c0 -78 20 -137 128 -137c88 0 143 78 143 206c0 133 -52 202 -139 202c-90 0 -132 -56 -132 -154z" />
    <glyph glyph-name="q" unicode="q" 
d="M388 -211v258c-29 -28 -65 -62 -147 -62c-130 0 -211 107 -211 225c0 134 103 239 233 239c35 0 73 -9 98 -21c20 -10 33 -16 42 -16c12 0 58 29 65 29s8 -7 8 -11v-641c0 -23 13 -39 38 -40s32 -5 32 -10c0 -7 -8 -9 -16 -9c-33 0 -65 3 -98 3s-65 -3 -98 -3
c-8 0 -16 2 -16 9c0 5 7 9 32 10s38 17 38 40zM259 10c108 0 129 91 129 152v93c0 80 -4 172 -115 172c-87 0 -143 -75 -143 -221c0 -90 33 -196 129 -196z" />
    <glyph glyph-name="r" unicode="r" horiz-adv-x="444" 
d="M124 80v196c0 99 -17 106 -35 113c-15 6 -58 5 -58 17c0 10 17 11 41 16c67 14 103 27 110 27c10 0 9 -8 10 -18l9 -86h2c16 38 64 94 143 94c63 0 81 -27 81 -53c0 -14 -9 -36 -38 -36c-40 0 -31 57 -74 57c-46 0 -103 -47 -103 -130v-197c0 -54 13 -61 38 -64
c28 -3 32 -5 32 -11s-8 -8 -16 -8c-20 0 -69 3 -103 3s-81 -3 -105 -3c-7 0 -9 3 -9 9s6 8 21 10c44 6 54 24 54 64z" />
    <glyph glyph-name="s" unicode="s" horiz-adv-x="389" 
d="M51 328c0 77 58 121 131 121c17 0 34 -4 49 -8c14 -5 26 -9 30 -9c7 0 36 19 39 19s6 -1 6 -5c0 -6 -3 -24 -3 -45c0 -26 4 -53 4 -61s-3 -16 -11 -16c-7 0 -11 5 -16 17c-17 40 -36 86 -97 86c-16 0 -72 0 -72 -60c0 -98 233 -85 233 -247c0 -61 -43 -135 -145 -135
c-58 0 -90 27 -109 27c-6 0 -29 -21 -35 -21c-4 0 -5 4 -5 7l-4 106c0 9 -1 17 -1 26c0 7 4 9 9 9c6 0 9 -4 12 -11c12 -42 35 -121 127 -121c38 0 84 23 84 73c0 111 -226 98 -226 248z" />
    <glyph glyph-name="t" unicode="t" horiz-adv-x="333" 
d="M175 406v-291c0 -52 6 -102 63 -102c33 0 43 16 49 25c9 14 12 22 24 22c7 0 14 -4 14 -16c0 -19 -41 -59 -120 -59c-71 0 -115 24 -115 112v309h-46c-7 0 -10 4 -10 10c0 7 11 12 19 17c64 39 90 86 103 109c3 6 6 7 8 7c5 0 11 -3 11 -9v-106h106c10 0 14 -4 14 -14
s-4 -14 -14 -14h-106z" />
    <glyph glyph-name="u" unicode="u" horiz-adv-x="611" 
d="M500 302v-206c0 -38 4 -58 24 -58c12 0 29 3 39 3c9 0 10 -4 10 -12c0 -6 -5 -9 -10 -10c-23 -5 -96 -23 -114 -30c-5 -2 -9 -4 -15 -4c-8 0 -11 6 -13 19c-3 13 -9 69 -9 83h-2c-40 -73 -88 -102 -165 -102c-81 0 -142 44 -142 143v240c0 38 -16 40 -50 43
c-15 1 -27 3 -27 15c0 11 13 11 21 11c16 0 60 -3 85 -3c18 0 40 3 46 3c7 0 16 -4 16 -14c0 -6 -3 -28 -3 -121v-167c0 -57 14 -115 74 -115c117 0 144 111 147 204v144c0 38 -16 40 -50 43c-15 1 -27 3 -27 15c0 11 13 11 21 11c16 0 60 -3 80 -3c23 0 45 3 51 3
c7 0 16 -4 16 -14c0 -6 -3 -28 -3 -121z" />
    <glyph glyph-name="v" unicode="v" horiz-adv-x="500" 
d="M241 -15l-168 398c-8 19 -16 28 -31 32c-8 2 -26 3 -26 13c0 5 3 9 13 9c32 0 63 -3 95 -3c30 0 61 3 91 3c7 0 13 -2 13 -9c0 -11 -15 -11 -36 -13c-8 -1 -23 -4 -23 -23c0 -12 5 -30 11 -43l100 -251c35 76 67 156 99 238c6 15 11 37 11 50c0 21 -19 29 -36 32
c-15 2 -22 5 -22 12c0 4 3 7 10 7c18 0 45 -3 68 -3c20 0 45 3 64 3c7 0 10 -3 10 -7s-4 -8 -22 -12c-20 -5 -30 -13 -50 -63c-45 -113 -104 -263 -152 -370h-19z" />
    <glyph glyph-name="w" unicode="w" horiz-adv-x="722" 
d="M213 -15l-119 359c-15 47 -26 71 -52 71c-5 0 -26 2 -26 12s9 10 21 10c28 0 55 -3 93 -3c44 0 80 3 95 3c10 0 16 -2 16 -11c0 -7 -5 -9 -29 -10c-18 -1 -38 -12 -38 -35c0 -18 12 -55 15 -66l66 -211h2l120 333h13l129 -337h2l77 236c6 15 11 37 11 50
c0 21 -19 29 -33 31c-18 3 -25 6 -25 13c0 4 3 7 10 7c18 0 45 -3 68 -3c20 0 45 3 64 3c7 0 10 -3 10 -7s-4 -8 -17 -11c-25 -6 -38 -13 -55 -64l-124 -370h-21l-131 319l-119 -319h-23z" />
    <glyph glyph-name="x" unicode="x" 
d="M286 262l39 50c45 58 50 64 50 79c0 18 -14 22 -25 24c-18 3 -32 5 -32 14c0 7 6 8 14 8c24 0 43 -2 74 -2c25 0 57 2 80 2c8 0 12 -3 12 -9c0 -9 -12 -10 -20 -10c-31 0 -54 -29 -98 -81l-33 -39c-9 -11 -43 -52 -46 -58l153 -180c17 -20 30 -34 48 -38
c18 -3 35 -3 35 -14c0 -10 -8 -11 -15 -11c-24 0 -60 3 -99 3c-50 0 -80 -3 -107 -3c-10 0 -17 2 -17 8c0 8 7 11 24 12c26 3 34 8 34 17c0 10 -5 23 -112 146l-77 -97c-14 -16 -15 -26 -15 -36c0 -9 7 -16 14 -20c11 -6 45 -9 44 -20c-1 -5 -4 -10 -12 -10
c-27 0 -50 3 -87 3c-31 0 -50 -3 -75 -3c-11 0 -13 7 -13 9c0 10 7 12 20 13c39 3 67 36 84 57l101 124l-155 189c-15 18 -23 23 -31 26c-14 4 -24 7 -24 14s4 8 17 8c14 0 39 -2 88 -3c33 0 74 3 95 3c10 0 17 -1 17 -8c0 -8 -17 -9 -28 -11c-18 -3 -28 -5 -28 -16
c0 -24 80 -113 104 -140h2z" />
    <glyph glyph-name="y" unicode="y" horiz-adv-x="500" 
d="M183 349l100 -251c35 76 67 156 99 238c6 15 11 37 11 50c0 21 -19 29 -35 32c-16 2 -23 5 -23 12c0 4 3 7 10 7c18 0 45 -3 68 -3c20 0 45 3 64 3c7 0 10 -3 10 -7s-4 -8 -21 -12c-21 -5 -31 -13 -51 -63c-65 -161 -131 -320 -209 -496c-48 -110 -66 -139 -105 -139
c-12 0 -23 9 -23 29c0 34 63 51 79 73c1 0 79 157 80 181l-161 380c-8 19 -16 28 -32 32c-9 3 -25 3 -25 13c0 5 3 9 13 9c32 0 63 -3 95 -3c30 0 62 3 91 3c7 0 13 -2 13 -9c0 -11 -15 -11 -33 -13c-11 -1 -26 -4 -26 -23c0 -12 5 -30 11 -43z" />
    <glyph glyph-name="z" unicode="z" horiz-adv-x="444" 
d="M408 437l-264 -418h79c128 0 146 21 156 56c8 30 12 35 17 35c6 0 12 -3 12 -8c0 -6 0 -19 -2 -38l-6 -67h-345c-13 0 -18 2 -18 6c0 6 5 12 10 20l253 392h-99c-67 0 -84 -8 -93 -17c-17 -16 -26 -64 -40 -64c-6 0 -8 7 -8 16s1 18 2 32l5 55h341z" />
    <glyph glyph-name="braceleft" unicode="{" horiz-adv-x="333" 
d="M131 354v174c0 121 55 142 118 142h30v-19c-64 -12 -82 -51 -82 -121v-161c0 -71 -12 -111 -69 -130v-2c57 -19 69 -59 69 -130v-161c0 -70 18 -109 82 -121v-19h-30c-63 0 -118 21 -118 142v174c0 64 -14 96 -77 116c63 20 77 52 77 116z" />
    <glyph glyph-name="bar" unicode="|" horiz-adv-x="278" 
d="M109 -214v1000h60v-1000h-60z" />
    <glyph glyph-name="braceright" unicode="}" horiz-adv-x="333" 
d="M136 369v161c0 70 -18 109 -82 121v19h30c63 0 118 -21 118 -142v-174c0 -64 14 -96 77 -116c-63 -20 -77 -52 -77 -116v-174c0 -121 -55 -142 -118 -142h-30v19c64 12 82 51 82 121v161c0 71 12 111 69 130v2c-57 19 -69 59 -69 130z" />
    <glyph glyph-name="asciitilde" unicode="~" horiz-adv-x="600" 
d="M105 191l-36 43c33 54 68 81 124 81c41 0 82 -15 118 -32s70 -32 96 -32c33 0 59 25 88 64l36 -43c-36 -52 -74 -81 -125 -81c-37 0 -78 15 -116 32s-73 32 -100 32c-41 0 -69 -35 -85 -64z" />
    <glyph glyph-name="afii10051" unicode="&#x402;" horiz-adv-x="778" 
d="M345 231v-107c0 -77 19 -104 63 -105c26 -1 29 -3 29 -11c0 -9 -6 -11 -19 -11c-42 0 -83 3 -125 3s-83 -3 -125 -3c-13 0 -19 2 -19 11c0 8 3 10 29 11c44 1 63 28 63 105v508c-1 9 -25 13 -77 13c-70 0 -124 -12 -129 -87c-2 -32 -7 -35 -15 -35c-6 0 -8 4 -8 13v122
c0 9 3 15 17 15c88 0 176 -3 264 -3c90 0 180 3 270 3c14 0 17 -6 17 -15c0 -29 6 -95 6 -122c0 -9 -5 -13 -11 -13c-8 0 -13 3 -15 35c-4 64 -62 87 -126 87s-88 -4 -89 -13v-291c57 67 115 94 183 94c65 0 147 -25 191 -126c16 -38 26 -86 26 -160
c0 -174 -61 -413 -273 -413c-84 0 -130 38 -130 70c0 18 14 38 39 38s33 -18 44 -40c8 -18 23 -45 66 -45c127 0 139 213 139 380c0 127 0 256 -122 256c-54 0 -116 -26 -144 -78c-19 -37 -19 -54 -19 -86z" />
    <glyph glyph-name="afii10052" unicode="&#x403;" horiz-adv-x="611" 
d="M198 713l147 148c14 14 26 24 43 24c20 0 34 -15 34 -34c0 -18 -12 -30 -30 -41l-154 -97h-40zM150 124v422c0 77 -19 104 -68 105c-40 1 -43 3 -43 11c0 9 6 11 27 11c83 0 166 -3 249 -3s166 3 246 3c9 0 15 -4 15 -12c0 -28 6 -119 6 -138c0 -10 -4 -18 -12 -18
c-6 0 -12 2 -15 24c-14 99 -66 119 -254 119c-44 0 -47 -7 -47 -25v-499c0 -77 19 -104 68 -105c40 -1 43 -3 43 -11c0 -9 -6 -11 -27 -11c-36 0 -89 3 -136 3s-100 -3 -136 -3c-21 0 -27 2 -27 11c0 8 3 10 43 11c49 1 68 28 68 105z" />
    <glyph glyph-name="quotesinglbase" unicode="&#x201a;" horiz-adv-x="222" 
d="M65 -135l-12 17c61 33 82 96 82 116c0 10 -2 17 -4 18c-5 -8 -17 -14 -33 -14c-31 0 -49 23 -49 50c0 31 24 56 57 56c40 0 67 -30 67 -85c0 -71 -49 -130 -108 -158z" />
    <glyph glyph-name="afii10100" unicode="&#x453;" horiz-adv-x="444" 
d="M146 536l147 148c14 14 26 24 43 24c20 0 34 -15 34 -34c0 -18 -12 -30 -30 -41l-154 -97h-40zM111 56v322c0 23 -13 39 -38 40s-32 5 -32 10c0 7 8 9 16 9c59 0 117 -3 176 -3s117 3 176 3c8 0 13 -2 13 -9c0 -13 4 -73 4 -87c0 -7 -2 -12 -8 -12c-9 0 -15 21 -22 35
c-17 34 -51 51 -138 51c-51 0 -59 -4 -59 -15v-344c0 -23 13 -39 38 -40s32 -5 32 -10c0 -7 -8 -9 -16 -9c-33 0 -65 3 -98 3s-65 -3 -98 -3c-8 0 -16 2 -16 9c0 5 7 9 32 10s38 17 38 40z" />
    <glyph glyph-name="quotedblbase" unicode="&#x201e;" horiz-adv-x="444" 
d="M66 -137l-12 17c53 29 84 81 84 118c0 6 -2 12 -5 16c-8 -7 -20 -14 -33 -14c-31 0 -50 23 -50 50c0 31 25 56 58 56c39 0 66 -30 66 -89c0 -53 -25 -106 -108 -154zM286 -137l-12 17c53 29 84 81 84 118c0 6 -2 12 -5 16c-8 -7 -20 -14 -33 -14c-31 0 -50 23 -50 50
c0 31 25 56 58 56c39 0 66 -30 66 -89c0 -53 -25 -106 -108 -154z" />
    <glyph glyph-name="ellipsis" unicode="&#x2026;" horiz-adv-x="1000" 
d="M167 -6c-31 0 -57 26 -57 57s26 57 57 57s57 -26 57 -57s-26 -57 -57 -57zM500 -6c-31 0 -57 26 -57 57s26 57 57 57s57 -26 57 -57s-26 -57 -57 -57zM833 -6c-31 0 -57 26 -57 57s26 57 57 57s57 -26 57 -57s-26 -57 -57 -57z" />
    <glyph glyph-name="dagger" unicode="&#x2020;" horiz-adv-x="500" 
d="M239 -134v148c0 126 -31 239 -40 256c40 40 40 144 40 184c-21 0 -26 0 -45 -5c-16 -4 -66 -31 -98 -31c-26 0 -39 15 -39 44c0 23 11 45 44 45c22 0 39 -11 76 -24c23 -8 40 -10 62 -10c0 36 0 67 -16 114c-7 19 -18 41 -18 57c0 24 11 48 45 48s45 -24 45 -48
c0 -16 -11 -38 -18 -57c-16 -47 -16 -78 -16 -114c22 0 39 2 62 10c37 13 54 24 76 24c33 0 44 -22 44 -45c0 -29 -13 -44 -39 -44c-32 0 -82 27 -98 31c-19 5 -24 5 -45 5c0 -40 0 -144 40 -184c-9 -17 -40 -130 -40 -256v-148h-22z" />
    <glyph glyph-name="daggerdbl" unicode="&#x2021;" horiz-adv-x="500" 
d="M250 692c34 0 45 -24 45 -48c0 -16 -11 -38 -18 -57c-16 -47 -16 -78 -16 -114c22 0 39 2 62 10c37 13 54 24 76 24c33 0 44 -22 44 -45c0 -29 -13 -44 -39 -44c-32 0 -82 27 -98 31c-19 5 -24 5 -45 5c4 -95 5 -117 43 -175c-38 -58 -39 -80 -43 -175c21 0 26 0 45 5
c16 4 66 31 98 31c26 0 39 -15 39 -44c0 -23 -11 -45 -44 -45c-22 0 -39 11 -76 24c-23 8 -40 10 -62 10c0 -36 0 -67 16 -114c7 -19 18 -41 18 -57c0 -24 -11 -48 -45 -48s-45 24 -45 48c0 16 11 38 18 57c16 47 16 78 16 114c-22 0 -39 -2 -62 -10
c-37 -13 -54 -24 -76 -24c-33 0 -44 22 -44 45c0 29 13 44 39 44c32 0 82 -27 98 -31c19 -5 24 -5 45 -5c-4 95 -5 117 -43 175c38 58 39 80 43 175c-21 0 -26 0 -45 -5c-16 -4 -66 -31 -98 -31c-26 0 -39 15 -39 44c0 23 11 45 44 45c22 0 39 -11 76 -24
c23 -8 40 -10 62 -10c0 36 0 67 -16 114c-7 19 -18 41 -18 57c0 24 11 48 45 48z" />
    <glyph glyph-name="perthousand" unicode="&#x2030;" horiz-adv-x="1000" 
d="M502 -18c-92 0 -140 70 -140 159c0 93 50 157 140 157s140 -64 140 -157c0 -89 -48 -159 -140 -159zM502 276c-57 0 -72 -53 -72 -134c0 -91 21 -138 72 -138s72 47 72 138c0 81 -15 134 -72 134zM828 -18c-92 0 -140 70 -140 159c0 93 50 157 140 157s140 -64 140 -157
c0 -89 -48 -159 -140 -159zM828 276c-57 0 -72 -53 -72 -134c0 -91 21 -138 72 -138s72 47 72 138c0 81 -15 134 -72 134zM172 372c-92 0 -140 70 -140 159c0 93 50 157 140 157s140 -64 140 -157c0 -89 -48 -159 -140 -159zM172 666c-57 0 -72 -53 -72 -134
c0 -91 21 -138 72 -138s72 47 72 138c0 81 -15 134 -72 134zM169 -31h-48l387 728h48z" />
    <glyph glyph-name="afii10058" unicode="&#x409;" horiz-adv-x="1000" 
d="M517 124v524h-2l-288 -545c-54 -103 -96 -121 -146 -121c-42 0 -70 22 -70 51c0 23 16 41 37 41c40 0 46 -52 77 -52c22 0 44 26 79 93l211 399c15 28 32 55 32 81c0 28 -20 54 -76 56c-32 1 -35 3 -35 11c0 9 6 11 19 11c21 0 87 -3 154 -3s133 3 190 3
c14 0 20 -2 20 -11c0 -8 -3 -10 -35 -11c-44 -1 -63 -28 -63 -105v-180h45c219 0 304 -86 304 -191c0 -121 -115 -178 -227 -178c-55 0 -114 3 -174 3c-45 0 -98 -3 -131 -3c-13 0 -19 2 -19 11c0 8 3 10 35 11c44 1 63 28 63 105zM621 328v-243c0 -50 35 -66 88 -66
c69 0 143 46 143 161c0 133 -86 161 -181 161c-41 0 -50 -4 -50 -13z" />
    <glyph glyph-name="guilsinglleft" unicode="&#x2039;" horiz-adv-x="320" 
d="M240 348l-85 -116c-5 -7 -7 -11 -7 -15s2 -8 7 -15l85 -116c4 -6 7 -9 7 -14c0 -4 -3 -7 -6 -7s-5 0 -11 5l-146 134c-6 6 -10 9 -10 13s4 7 10 13l146 134c6 5 8 5 11 5s6 -3 6 -7c0 -5 -3 -8 -7 -14z" />
    <glyph glyph-name="afii10059" unicode="&#x40a;" horiz-adv-x="1000" 
d="M144 124v422c0 77 -19 104 -63 105c-32 1 -35 3 -35 11c0 9 6 11 19 11c33 0 86 -3 131 -3s98 3 131 3c13 0 19 -2 19 -11c0 -8 -3 -10 -35 -11c-44 -1 -63 -28 -63 -105v-180h269v180c0 77 -19 104 -63 105c-32 1 -35 3 -35 11c0 9 6 11 19 11c33 0 86 -3 131 -3
s98 3 131 3c13 0 19 -2 19 -11c0 -8 -3 -10 -35 -11c-44 -1 -63 -28 -63 -105v-180h45c219 0 304 -86 304 -191c0 -121 -115 -178 -227 -178c-55 0 -114 3 -174 3c-45 0 -98 -3 -131 -3c-13 0 -19 2 -19 11c0 8 3 10 35 11c44 1 63 28 63 105v217h-269v-217
c0 -77 19 -104 63 -105c32 -1 35 -3 35 -11c0 -9 -6 -11 -19 -11c-33 0 -86 3 -131 3s-98 -3 -131 -3c-13 0 -19 2 -19 11c0 8 3 10 35 11c44 1 63 28 63 105zM621 328v-243c0 -50 35 -66 88 -66c69 0 143 46 143 161c0 133 -86 161 -181 161c-41 0 -50 -4 -50 -13z" />
    <glyph glyph-name="afii10061" unicode="&#x40c;" horiz-adv-x="778" 
d="M332 713l147 148c14 14 26 24 43 24c20 0 34 -15 34 -34c0 -18 -12 -30 -30 -41l-154 -97h-40zM170 124v422c0 77 -19 104 -63 105c-32 1 -35 3 -35 11c0 9 6 11 19 11c33 0 86 -3 131 -3s98 3 131 3c13 0 19 -2 19 -11c0 -8 -3 -10 -35 -11c-44 -1 -63 -28 -63 -105
v-186h37c63 0 94 18 120 90l43 120c38 105 89 118 141 118c48 0 80 -32 80 -58c0 -19 -15 -35 -38 -35c-40 0 -44 53 -83 53c-26 0 -49 -28 -67 -77l-47 -130c-17 -46 -31 -74 -70 -92v-2c109 -18 161 -73 189 -129l79 -156c10 -19 18 -33 37 -33c36 0 41 48 56 48
c6 0 10 -4 10 -12c0 -23 -34 -83 -104 -83c-55 0 -85 27 -113 81l-82 159c-42 81 -73 110 -155 110h-33v-208c0 -77 19 -104 63 -105c32 -1 35 -3 35 -11c0 -9 -6 -11 -19 -11c-33 0 -86 3 -131 3s-98 -3 -131 -3c-13 0 -19 2 -19 11c0 8 3 10 35 11c44 1 63 28 63 105z" />
    <glyph glyph-name="afii10060" unicode="&#x40b;" horiz-adv-x="833" 
d="M249 124v508c-1 9 -25 13 -71 13c-70 0 -128 -23 -132 -87c-2 -32 -7 -35 -15 -35c-6 0 -11 4 -11 13c0 11 6 112 6 122c0 9 3 15 17 15c82 0 170 -3 258 -3c94 0 189 3 283 3c14 0 17 -6 17 -15c0 -10 6 -111 6 -122c0 -9 -5 -13 -11 -13c-8 0 -13 3 -15 35
c-4 64 -62 87 -132 87c-71 0 -95 -4 -96 -13v-293h2c43 58 96 95 188 95c138 0 178 -73 178 -165v-145c0 -77 19 -104 63 -105c26 -1 29 -3 29 -11c0 -9 -6 -11 -19 -11c-42 0 -83 3 -125 3s-83 -3 -125 -3c-13 0 -19 2 -19 11c0 8 3 10 29 11c44 1 63 28 63 105v149
c0 86 -44 121 -109 121c-102 0 -155 -78 -155 -114v-156c0 -77 19 -104 63 -105c32 -1 35 -3 35 -11c0 -9 -6 -11 -19 -11c-33 0 -86 3 -131 3s-98 -3 -131 -3c-13 0 -19 2 -19 11c0 8 3 10 35 11c44 1 63 28 63 105z" />
    <glyph glyph-name="afii10145" unicode="&#x40f;" horiz-adv-x="888" 
d="M732 546v-422c0 -77 19 -104 63 -105c32 -1 35 -3 35 -11c0 -9 -6 -11 -19 -11c-112 0 -224 2 -333 3c3 -60 10 -169 10 -181c0 -5 -3 -10 -10 -10h-68c-7 0 -10 5 -10 10c0 12 7 121 10 181c-55 0 -111 -1 -166 -1c-56 -1 -111 -2 -167 -2c-13 0 -19 2 -19 11
c0 8 3 10 35 11c44 1 63 28 63 105v422c0 77 -19 104 -63 105c-32 1 -35 3 -35 11c0 9 6 11 19 11c33 0 86 -3 131 -3s98 3 131 3c13 0 19 -2 19 -11c0 -8 -3 -10 -35 -11c-44 -1 -63 -28 -63 -105v-470c0 -33 14 -54 60 -54h248c46 0 60 21 60 54v470c0 77 -19 104 -63 105
c-32 1 -35 3 -35 11c0 9 6 11 19 11c33 0 86 -3 131 -3s98 3 131 3c13 0 19 -2 19 -11c0 -8 -3 -10 -35 -11c-44 -1 -63 -28 -63 -105z" />
    <glyph glyph-name="afii10099" unicode="&#x452;" horiz-adv-x="611" 
d="M28 540v32h88v26c0 45 -5 59 -56 59c-16 0 -19 4 -19 9c0 4 2 9 9 10c20 3 142 32 147 32c4 0 7 -2 7 -10v-126h213v-32h-213v-172h2c38 56 98 81 154 81c92 0 153 -39 153 -149v-364c0 -117 -51 -203 -180 -203c-89 0 -120 41 -120 67c0 18 16 31 33 31
c15 0 29 -10 42 -40c12 -28 28 -36 49 -36c59 0 88 42 88 171v368c0 84 -36 123 -104 123c-58 0 -117 -59 -117 -133v-204c0 -54 13 -61 38 -64c28 -3 32 -5 32 -11s-8 -8 -16 -8c-20 0 -69 3 -103 3s-81 -3 -105 -3c-7 0 -9 3 -9 9s6 8 21 10c44 6 54 24 54 64v460h-88z
" />
    <glyph glyph-name="quoteleft" unicode="&#x2018;" horiz-adv-x="222" 
d="M157 688l12 -17c-53 -29 -84 -81 -84 -118c0 -6 2 -12 5 -16c8 7 20 14 33 14c31 0 50 -23 50 -50c0 -31 -25 -56 -58 -56c-39 0 -66 30 -66 89c0 53 25 106 108 154z" />
    <glyph glyph-name="quoteright" unicode="&#x2019;" horiz-adv-x="222" 
d="M65 445l-12 17c53 29 84 81 84 118c0 6 -2 12 -5 16c-8 -7 -20 -14 -33 -14c-31 0 -50 23 -50 50c0 31 25 56 58 56c39 0 66 -30 66 -89c0 -53 -25 -106 -108 -154z" />
    <glyph glyph-name="quotedblleft" unicode="&#x201c;" horiz-adv-x="444" 
d="M378 688l12 -17c-53 -29 -84 -81 -84 -118c0 -6 2 -12 5 -16c8 7 20 14 33 14c31 0 50 -23 50 -50c0 -31 -25 -56 -58 -56c-39 0 -66 30 -66 89c0 53 25 106 108 154zM158 688l12 -17c-53 -29 -84 -81 -84 -118c0 -6 2 -12 5 -16c8 7 20 14 33 14c31 0 50 -23 50 -50
c0 -31 -25 -56 -58 -56c-39 0 -66 30 -66 89c0 53 25 106 108 154z" />
    <glyph glyph-name="quotedblright" unicode="&#x201d;" horiz-adv-x="444" 
d="M66 445l-12 17c53 29 84 81 84 118c0 6 -2 12 -5 16c-8 -7 -20 -14 -33 -14c-31 0 -50 23 -50 50c0 31 25 56 58 56c39 0 66 -30 66 -89c0 -53 -25 -106 -108 -154zM286 445l-12 17c53 29 84 81 84 118c0 6 -2 12 -5 16c-8 -7 -20 -14 -33 -14c-31 0 -50 23 -50 50
c0 31 25 56 58 56c39 0 66 -30 66 -89c0 -53 -25 -106 -108 -154z" />
    <glyph glyph-name="bullet" unicode="&#x2022;" horiz-adv-x="460" 
d="M58 344c0 95 77 172 172 172s172 -77 172 -172s-77 -172 -172 -172s-172 77 -172 172z" />
    <glyph glyph-name="endash" unicode="&#x2013;" horiz-adv-x="500" 
d="M500 199h-500v53h500v-53z" />
    <glyph glyph-name="emdash" unicode="&#x2014;" horiz-adv-x="1000" 
d="M870 199h-740v53h740v-53z" />
    <glyph glyph-name="trademark" unicode="&#x2122;" horiz-adv-x="1000" 
d="M294 266h-182v20c17 0 41 -1 52 6s11 26 11 38v315h-41c-58 0 -77 -12 -77 -71h-23v96h338v-96h-23c0 59 -19 71 -77 71h-41v-315c0 -12 0 -31 11 -38s35 -6 52 -6v-20zM882 632v-299c0 -41 6 -44 48 -47v-20h-155v20c42 2 51 2 51 46v298h-2l-150 -364h-8l-151 364h-2
v-310c0 -32 20 -34 50 -34v-20h-123v20c31 1 48 -1 48 33v296c0 34 4 35 -40 35v20h109l129 -308l132 308h112v-20c-17 0 -48 5 -48 -18z" />
    <glyph glyph-name="afii10106" unicode="&#x459;" horiz-adv-x="667" 
d="M294 56v359h-21l-123 -348c-21 -58 -57 -82 -98 -82c-32 0 -52 11 -52 38c0 17 11 32 35 32c26 0 29 -23 50 -23c16 0 28 13 40 47l96 273c4 10 8 27 8 35c0 14 -4 31 -37 31c-26 0 -31 5 -31 11c0 8 15 8 29 8c41 0 82 -3 123 -3s82 3 123 3c8 0 16 -2 16 -9
c0 -5 -7 -9 -32 -10s-38 -17 -38 -40v-120c25 2 42 3 70 3c123 0 187 -54 187 -133c0 -87 -75 -131 -157 -131c-46 0 -98 3 -144 3c-33 0 -65 -3 -98 -3c-8 0 -16 2 -16 9c0 5 7 9 32 10s38 17 38 40zM382 224v-90c0 -86 10 -115 72 -115c44 0 89 32 89 107
c0 83 -55 113 -116 113c-27 0 -45 0 -45 -15z" />
    <glyph glyph-name="guilsinglright" unicode="&#x203a;" horiz-adv-x="320" 
d="M166 232l-85 116c-4 6 -7 9 -7 14c0 4 3 7 6 7s5 0 11 -5l146 -134c6 -6 10 -9 10 -13s-4 -7 -10 -13l-146 -134c-6 -5 -8 -5 -11 -5s-6 3 -6 7c0 5 3 8 7 14l85 116c5 7 7 11 7 15s-2 8 -7 15z" />
    <glyph glyph-name="afii10107" unicode="&#x45a;" horiz-adv-x="778" 
d="M103 56v322c0 23 -13 39 -38 40s-32 5 -32 10c0 7 8 9 16 9c33 0 65 -3 98 -3s65 3 98 3c8 0 16 -2 16 -9c0 -5 -7 -9 -32 -10s-38 -17 -38 -40v-123h207v123c0 23 -13 39 -38 40s-32 5 -32 10c0 7 8 9 16 9c33 0 65 -3 98 -3s65 3 98 3c8 0 16 -2 16 -9
c0 -5 -7 -9 -32 -10s-38 -17 -38 -40v-120c25 2 42 3 70 3c134 0 198 -54 198 -133c0 -87 -75 -131 -168 -131c-46 0 -98 3 -144 3c-33 0 -65 -3 -98 -3c-8 0 -16 2 -16 9c0 5 7 9 32 10s38 17 38 40v177h-207v-177c0 -23 13 -39 38 -40s32 -5 32 -10c0 -7 -8 -9 -16 -9
c-33 0 -65 3 -98 3s-65 -3 -98 -3c-8 0 -16 2 -16 9c0 5 7 9 32 10s38 17 38 40zM486 224v-90c0 -86 10 -115 83 -115c44 0 89 32 89 107c0 83 -55 113 -116 113c-38 0 -56 0 -56 -15z" />
    <glyph glyph-name="afii10109" unicode="&#x45c;" 
d="M192 536l147 148c14 14 26 24 43 24c20 0 34 -15 34 -34c0 -18 -12 -30 -30 -41l-154 -97h-40zM103 56v322c0 23 -13 39 -38 40s-32 5 -32 10c0 7 8 9 16 9c33 0 65 -3 98 -3s65 3 98 3c8 0 16 -2 16 -9c0 -5 -7 -9 -32 -10s-38 -17 -38 -40v-144h41c51 0 70 24 87 69
l30 78c22 56 58 68 91 68c42 0 60 -22 60 -41c0 -16 -12 -32 -29 -32c-46 0 -27 37 -62 37c-14 0 -24 -8 -38 -46l-19 -51c-19 -52 -31 -71 -52 -87v-2c85 -16 115 -40 152 -123c29 -65 37 -72 49 -72c22 0 22 30 32 30c6 0 7 -6 7 -12c0 -31 -25 -65 -72 -65
c-36 0 -62 20 -95 89c-62 130 -78 138 -140 138h-42v-156c0 -23 13 -39 38 -40s32 -5 32 -10c0 -7 -8 -9 -16 -9c-33 0 -65 3 -98 3s-65 -3 -98 -3c-8 0 -16 2 -16 9c0 5 7 9 32 10s38 17 38 40z" />
    <glyph glyph-name="afii10108" unicode="&#x45b;" horiz-adv-x="611" 
d="M28 540v32h88v26c0 45 -5 59 -56 59c-16 0 -19 4 -19 9c0 4 2 9 9 10c20 3 142 32 147 32c4 0 7 -2 7 -10v-126h213v-32h-213v-172h2c38 56 100 81 152 81c89 0 155 -38 155 -128v-241c0 -54 13 -61 38 -64c28 -3 32 -5 32 -11s-8 -8 -16 -8c-20 0 -69 3 -103 3
s-81 -3 -105 -3c-7 0 -9 3 -9 9s6 8 21 10c44 6 54 24 54 64v236c0 60 -33 101 -98 101c-66 0 -123 -59 -123 -133v-204c0 -54 13 -61 38 -64c28 -3 32 -5 32 -11s-8 -8 -16 -8c-20 0 -69 3 -103 3s-81 -3 -105 -3c-7 0 -9 3 -9 9s6 8 21 10c44 6 54 24 54 64v460h-88z" />
    <glyph glyph-name="afii10193" unicode="&#x45f;" horiz-adv-x="612" 
d="M508 378v-322c0 -23 13 -39 38 -40s32 -5 32 -10c0 -7 -8 -9 -16 -9c-76 0 -152 2 -227 3c3 -40 8 -112 8 -121c0 -6 -4 -10 -10 -10h-54c-6 0 -10 4 -10 10c0 9 5 81 8 121c-37 0 -75 -1 -113 -2c-38 0 -76 -1 -114 -1c-8 0 -16 2 -16 9c0 5 7 9 32 10s38 17 38 40v322
c0 23 -13 39 -38 40s-32 5 -32 10c0 7 8 9 16 9c33 0 65 -3 98 -3s65 3 98 3c8 0 16 -2 16 -9c0 -5 -7 -9 -32 -10s-38 -17 -38 -40v-308c0 -39 22 -48 114 -48s114 9 114 48v308c0 23 -13 39 -38 40s-32 5 -32 10c0 7 8 9 16 9c33 0 65 -3 98 -3s65 3 98 3c8 0 16 -2 16 -9
c0 -5 -7 -9 -32 -10s-38 -17 -38 -40z" />
    <glyph glyph-name="afii10062" unicode="&#x40e;" horiz-adv-x="667" 
d="M364 713c-92 0 -173 39 -173 107c0 17 14 43 45 43s43 -21 43 -41c0 -21 -11 -30 -11 -38c0 -33 32 -49 96 -49s96 16 96 49c0 8 -11 17 -11 38c0 20 12 41 43 41s45 -26 45 -43c0 -68 -81 -107 -173 -107zM373 320l99 157c34 53 58 101 58 129c0 26 -17 43 -49 45
c-19 1 -22 3 -22 11c0 9 6 11 19 11c28 0 55 -3 83 -3s55 3 83 3c13 0 19 -2 19 -11c0 -8 -3 -11 -15 -11c-25 -1 -48 -22 -64 -48l-340 -537c-42 -66 -76 -84 -119 -84c-50 0 -86 26 -86 58c0 19 17 34 38 34c46 0 47 -52 84 -52c20 0 33 13 51 41l103 165l-190 341
c-31 56 -49 80 -79 82c-17 1 -22 3 -22 11c0 9 6 11 19 11c39 0 78 -3 117 -3s78 3 117 3c14 0 20 -2 20 -11c0 -8 -3 -10 -22 -11c-40 -2 -55 -18 -55 -35c0 -23 16 -50 28 -71z" />
    <glyph glyph-name="afii10110" unicode="&#x45e;" horiz-adv-x="500" 
d="M270 536c-92 0 -173 39 -173 107c0 17 14 43 45 43s43 -21 43 -41c0 -21 -11 -30 -11 -38c0 -33 32 -49 96 -49s96 16 96 49c0 8 -11 17 -11 38c0 20 12 41 43 41s45 -26 45 -43c0 -68 -81 -107 -173 -107zM185 348l97 -243h2l90 217c11 26 21 51 21 66
c0 13 -5 25 -28 30c-22 5 -28 5 -28 12c0 5 6 7 16 7c19 0 38 -3 57 -3s38 3 57 3c5 0 11 -2 11 -8c0 -8 -6 -10 -14 -11c-10 -1 -19 -4 -25 -17l-280 -628c-19 -42 -34 -53 -54 -53c-18 0 -31 13 -31 32c0 23 25 33 44 42c44 21 115 197 115 213c0 7 -3 12 -10 28l-144 338
c-11 25 -18 41 -38 45c-16 3 -23 5 -23 10c0 7 8 9 16 9c33 0 65 -3 98 -3s65 3 90 3c8 0 16 -2 16 -9c0 -5 -5 -9 -28 -10c-17 -1 -36 -10 -36 -30c0 -9 4 -26 9 -40z" />
    <glyph glyph-name="afii10057" unicode="&#x408;" horiz-adv-x="444" 
d="M190 -140v686c0 77 -19 104 -63 105c-32 1 -35 3 -35 11c0 9 6 11 19 11c33 0 86 -3 131 -3s98 3 131 3c13 0 19 -2 19 -11c0 -8 -3 -10 -35 -11c-44 -1 -63 -28 -63 -105v-617c0 -175 -117 -209 -236 -209c-81 0 -141 30 -141 74c0 27 17 41 43 41s39 -16 52 -59
c8 -26 21 -34 54 -34c63 0 124 19 124 118z" />
    <glyph glyph-name="currency" unicode="&#xa4;" 
d="M92 500l-54 54l26 26l54 -54c54 42 106 56 160 56s106 -12 160 -54l54 54l26 -26l-54 -54c45 -56 62 -110 62 -165c0 -51 -17 -105 -62 -161l54 -54l-26 -26l-54 54c-54 -42 -106 -58 -160 -58s-106 14 -160 56l-54 -54l-26 26l54 54c-45 56 -62 110 -62 163
s17 107 62 163zM486 337c0 115 -93 208 -208 208s-208 -93 -208 -208s93 -208 208 -208s208 93 208 208z" />
    <glyph glyph-name="afii10050" unicode="&#x490;" horiz-adv-x="611" 
d="M150 124v422c0 77 -19 104 -68 105c-40 1 -43 3 -43 11c0 9 6 11 27 11c39 0 78 -1 118 -1c39 0 78 -2 117 -2c188 0 240 20 254 119c3 22 9 24 15 24c8 0 12 -8 12 -18c0 -19 -6 -110 -6 -138c0 -8 -6 -12 -15 -12c-80 0 -163 3 -246 3c-58 0 -61 -8 -61 -25v-499
c0 -77 19 -104 68 -105c40 -1 43 -3 43 -11c0 -9 -6 -11 -27 -11c-36 0 -89 3 -136 3s-100 -3 -136 -3c-21 0 -27 2 -27 11c0 8 3 10 43 11c49 1 68 28 68 105z" />
    <glyph glyph-name="brokenbar" unicode="&#xa6;" horiz-adv-x="278" 
d="M109 -89v250h60v-250h-60zM109 411v250h60v-250h-60z" />
    <glyph glyph-name="section" unicode="&#xa7;" 
d="M222 508l108 -89c76 -63 97 -118 97 -160c0 -83 -60 -123 -115 -123c-6 0 -11 0 -15 1l-2 -2c71 -52 92 -102 92 -146c0 -58 -42 -126 -146 -126c-77 0 -136 49 -136 102c0 33 27 53 55 53c21 0 45 -15 45 -43c0 -32 -32 -44 -32 -53c0 -18 28 -37 73 -37
c53 0 87 31 87 75c0 31 -18 61 -88 115l-78 60c-68 53 -94 108 -94 156c0 88 55 126 116 126c7 0 13 0 19 -1v2c-73 56 -95 99 -95 150c0 79 71 120 140 120c81 0 127 -54 127 -97c0 -35 -21 -54 -53 -54c-26 0 -47 17 -47 43c0 29 34 43 34 56c0 12 -17 30 -68 30
c-46 0 -79 -30 -79 -70c0 -26 14 -55 55 -88zM127 329c0 -26 8 -50 40 -82c69 -69 111 -89 137 -89c46 0 69 34 69 74c0 50 -121 163 -180 163c-33 0 -66 -24 -66 -66z" />
    <glyph glyph-name="afii10023" unicode="&#x401;" horiz-adv-x="667" 
d="M150 124v422c0 77 -19 104 -63 105c-32 1 -35 3 -35 11c0 9 6 11 19 11c79 0 159 -3 238 -3s159 3 235 3c8 0 16 -2 16 -12v-113c0 -15 -4 -19 -11 -19s-13 4 -14 14c-8 83 -42 105 -158 105c-113 0 -123 -1 -123 -17v-271c70 0 156 18 162 101c2 28 5 33 15 33
c9 0 13 -4 13 -12c0 -42 -3 -83 -3 -125s3 -83 3 -125c0 -8 -4 -12 -11 -12s-11 4 -17 34c-13 64 -63 81 -128 81h-34v-184c0 -89 14 -129 151 -129c129 0 172 45 184 109c4 21 8 27 17 27c5 0 9 -4 9 -12c0 -20 -6 -74 -6 -102v-34c0 -9 -5 -13 -16 -13
c-87 0 -174 3 -261 3s-174 -3 -261 -3c-13 0 -19 2 -19 11c0 8 3 10 35 11c44 1 63 28 63 105zM383 763c0 28 22 50 50 50s50 -22 50 -50s-22 -50 -50 -50s-50 22 -50 50zM185 763c0 28 22 50 50 50s50 -22 50 -50s-22 -50 -50 -50s-50 22 -50 50z" />
    <glyph glyph-name="copyright" unicode="&#xa9;" horiz-adv-x="740" 
d="M17 335c0 195 158 353 353 353s353 -158 353 -353s-158 -353 -353 -353s-353 158 -353 353zM57 335c0 -172 141 -313 313 -313s313 141 313 313s-141 313 -313 313s-313 -141 -313 -313zM531 257v-109c0 -6 -3 -9 -8 -9c-4 0 -7 3 -7 12c0 7 -4 11 -11 11
c-21 0 -39 -41 -127 -41c-144 0 -217 91 -217 202c0 151 106 224 220 224c78 0 100 -31 114 -31s7 21 18 21c4 0 7 -3 7 -8c0 -31 5 -64 5 -96c0 -8 -2 -14 -6 -14c-5 0 -8 3 -11 20c-6 31 -42 95 -126 95c-70 0 -146 -53 -146 -212c0 -141 85 -188 146 -188
c84 0 116 60 132 115c6 21 7 23 11 23c6 0 6 -5 6 -15z" />
    <glyph glyph-name="afii10053" unicode="&#x404;" horiz-adv-x="722" 
d="M168 354v-53c84 75 113 92 173 92c40 0 100 -16 121 -16c45 0 48 72 70 72c6 0 8 -4 8 -10c0 -7 -1 -13 -4 -21l-72 -214c-4 -11 -7 -12 -13 -12c-5 0 -8 4 -8 11c0 8 10 40 10 62c0 50 -112 68 -151 68c-59 0 -89 -22 -131 -62c9 -185 126 -267 238 -267
c126 0 154 61 169 122c7 28 20 40 44 40c22 0 35 -10 35 -37c0 -70 -106 -147 -254 -147c-232 0 -359 139 -359 352c0 208 155 354 350 354c124 0 138 -45 174 -45c16 0 13 37 25 37c8 0 12 -4 12 -25c0 -43 3 -86 3 -129c0 -21 -4 -27 -11 -27s-14 15 -20 36
c-25 86 -92 131 -175 131c-128 0 -234 -93 -234 -312z" />
    <glyph glyph-name="guillemotleft" unicode="&#xab;" horiz-adv-x="500" 
d="M407 346l-89 -119c-2 -3 -5 -7 -5 -12s3 -9 5 -12l89 -119c3 -4 7 -9 7 -13c0 -5 -3 -8 -7 -8c-2 0 -6 2 -10 5l-143 131c-6 6 -13 12 -13 16s7 10 13 16l143 131c4 3 8 5 10 5c4 0 7 -3 7 -8c0 -4 -4 -9 -7 -13zM252 346l-89 -119c-2 -3 -5 -7 -5 -12s3 -9 5 -12
l89 -119c3 -4 7 -9 7 -13c0 -5 -3 -8 -7 -8c-2 0 -6 2 -10 5l-143 131c-6 6 -13 12 -13 16s7 10 13 16l143 131c4 3 8 5 10 5c4 0 7 -3 7 -8c0 -4 -4 -9 -7 -13z" />
    <glyph glyph-name="logicalnot" unicode="&#xac;" horiz-adv-x="600" 
d="M493 134v189h-446v60h506v-249h-60z" />
    <glyph glyph-name="registered" unicode="&#xae;" horiz-adv-x="370" 
d="M185 336c-97 0 -176 79 -176 176c0 100 79 176 176 176s176 -79 176 -176s-79 -176 -176 -176zM32 512c0 -89 64 -153 153 -153s153 64 153 153s-64 153 -153 153s-153 -67 -153 -153zM120 455v127c0 23 -6 31 -19 31c-9 1 -10 1 -10 4c0 2 1 3 5 3c10 0 26 -1 40 -1
c17 0 35 1 52 1c40 0 66 -18 66 -52c-3 -37 -25 -46 -57 -53c22 -24 43 -50 66 -75c5 -6 16 -14 22 -16c5 -2 7 -2 7 -5c0 -2 -1 -2 -5 -2c-2 0 -6 0 -11 1h-35c-19 24 -38 47 -57 71c-11 15 -15 21 -27 21c-4 0 -6 -2 -6 -5v-50c0 -23 6 -31 19 -31c10 -1 11 -1 11 -4
c0 -2 -2 -3 -6 -3c-10 0 -26 1 -39 1c-14 0 -30 -1 -40 -1c-4 0 -5 1 -5 3c0 3 1 3 10 4c13 0 19 8 19 31zM151 518h14c38 0 54 11 54 49c0 35 -21 46 -49 46c-13 0 -19 -1 -19 -6v-89z" />
    <glyph glyph-name="afii10056" unicode="&#x407;" horiz-adv-x="444" 
d="M170 124v422c0 77 -19 104 -63 105c-32 1 -35 3 -35 11c0 9 6 11 19 11c33 0 86 -3 131 -3s98 3 131 3c13 0 19 -2 19 -11c0 -8 -3 -10 -35 -11c-44 -1 -63 -28 -63 -105v-422c0 -77 19 -104 63 -105c32 -1 35 -3 35 -11c0 -9 -6 -11 -19 -11c-33 0 -86 3 -131 3
s-98 -3 -131 -3c-13 0 -19 2 -19 11c0 8 3 10 35 11c44 1 63 28 63 105zM271 763c0 28 22 50 50 50s50 -22 50 -50s-22 -50 -50 -50s-50 22 -50 50zM73 763c0 28 22 50 50 50s50 -22 50 -50s-22 -50 -50 -50s-50 22 -50 50z" />
    <glyph glyph-name="degree" unicode="&#xb0;" horiz-adv-x="400" 
d="M325 563c0 -69 -57 -125 -125 -125c-69 0 -125 56 -125 125c-1 68 56 125 125 125c68 0 125 -57 125 -125zM292 563c0 50 -42 92 -93 92c-50 0 -91 -42 -91 -92c0 -51 41 -92 92 -92c50 0 92 41 92 92z" />
    <glyph glyph-name="plusminus" unicode="&#xb1;" horiz-adv-x="600" 
d="M47 0v60h506v-60h-506zM270 140v153h-223v60h223v153h60v-153h223v-60h-223v-153h-60z" />
    <glyph glyph-name="afii10055" unicode="&#x406;" horiz-adv-x="444" 
d="M170 124v422c0 77 -19 104 -63 105c-32 1 -35 3 -35 11c0 9 6 11 19 11c33 0 86 -3 131 -3s98 3 131 3c13 0 19 -2 19 -11c0 -8 -3 -10 -35 -11c-44 -1 -63 -28 -63 -105v-422c0 -77 19 -104 63 -105c32 -1 35 -3 35 -11c0 -9 -6 -11 -19 -11c-33 0 -86 3 -131 3
s-98 -3 -131 -3c-13 0 -19 2 -19 11c0 8 3 10 35 11c44 1 63 28 63 105z" />
    <glyph glyph-name="afii10103" unicode="&#x456;" horiz-adv-x="278" 
d="M103 80v273c0 31 -5 45 -38 45h-18c-16 0 -19 4 -19 9c0 4 2 9 9 10c20 3 142 32 147 32c4 0 7 -2 7 -10v-359c0 -54 13 -61 38 -64c28 -3 32 -5 32 -11s-8 -8 -16 -8c-20 0 -69 3 -103 3s-81 -3 -105 -3c-7 0 -9 3 -9 9s6 8 21 10c44 6 54 24 54 64zM83 616
c0 30 24 54 54 54s54 -24 54 -54s-24 -54 -54 -54s-54 24 -54 54z" />
    <glyph glyph-name="afii10098" unicode="&#x491;" horiz-adv-x="444" 
d="M111 56v322c0 23 -13 39 -38 40s-32 5 -32 10c0 7 8 9 16 9c20 0 82 -6 159 -5c136 2 163 19 180 53c7 14 13 35 22 35c6 0 8 -5 8 -12c0 -14 -4 -74 -4 -87c0 -7 -5 -9 -13 -9h-176c-26 0 -34 -4 -34 -15v-341c0 -23 13 -39 38 -40s32 -5 32 -10c0 -7 -8 -9 -16 -9
c-33 0 -65 3 -98 3s-65 -3 -98 -3c-8 0 -16 2 -16 9c0 5 7 9 32 10s38 17 38 40z" />
    <glyph glyph-name="mu" unicode="&#xb5;" horiz-adv-x="611" 
d="M460 479v-339c0 -68 1 -113 36 -113c31 0 38 30 38 100h24c-2 -75 -9 -138 -77 -138c-29 0 -58 15 -71 49c-9 23 -11 53 -13 106c-25 -74 -61 -151 -147 -151c-73 0 -92 51 -102 78c3 -30 19 -183 19 -217s-10 -74 -35 -74c-30 0 -30 55 -30 74c0 26 8 139 10 163
c3 55 4 135 4 167v294h64v-291c0 -27 0 -92 9 -116c17 -43 54 -44 68 -44c58 0 88 47 108 100c21 56 30 110 30 196v156h65z" />
    <glyph glyph-name="paragraph" unicode="&#xb6;" horiz-adv-x="600" 
d="M416 508v-437c0 -33 0 -106 11 -135c13 -33 54 -28 84 -31v-23h-160v756h-46v-756h-170v23c34 1 83 -4 96 34c9 27 9 101 9 132v252c-9 0 -19 -1 -28 -1c-111 0 -179 57 -179 172c0 138 119 176 236 176h242v-23c-32 1 -72 2 -86 -31c-9 -21 -9 -73 -9 -108z" />
    <glyph glyph-name="periodcentered" unicode="&#xb7;" horiz-adv-x="278" 
d="M79 285c0 33 27 60 60 60s60 -27 60 -60s-27 -60 -60 -60s-60 27 -60 60z" />
    <glyph glyph-name="afii10071" unicode="&#x451;" horiz-adv-x="500" 
d="M143 298h212c14 0 20 2 20 31c0 41 -25 95 -105 95c-73 0 -115 -51 -127 -126zM450 273h-312c-3 -15 -5 -32 -5 -48c0 -148 93 -204 168 -204c88 0 110 64 130 64c5 0 11 -4 11 -11c0 -23 -57 -89 -167 -89s-238 61 -238 228c0 135 115 236 233 236
c105 0 193 -65 193 -159c0 -11 -3 -17 -13 -17zM319 612c0 28 22 50 50 50s50 -22 50 -50s-22 -50 -50 -50s-50 22 -50 50zM121 612c0 28 22 50 50 50s50 -22 50 -50s-22 -50 -50 -50s-50 22 -50 50z" />
    <glyph glyph-name="afii61352" unicode="&#x2116;" horiz-adv-x="1000" 
d="M176 177v415c-19 27 -40 57 -82 59c-26 1 -29 3 -29 11s6 11 13 11c33 0 59 -3 86 -3c35 0 56 3 70 3c8 0 11 -2 17 -11l310 -490h2v370c0 97 47 146 125 146c55 0 76 -35 76 -55c0 -17 -16 -38 -40 -38c-47 0 -46 53 -77 53c-34 0 -54 -51 -54 -100v-566h-22l-363 569
h-2v-374c0 -144 -43 -195 -129 -195c-47 0 -73 24 -73 52c0 24 15 39 38 39c44 0 55 -51 79 -51c27 0 55 39 55 155zM686 -18v60h254v-60h-254zM660 329c0 106 60 169 153 169s153 -63 153 -169c0 -107 -60 -169 -153 -169s-153 62 -153 169zM742 329
c0 -123 31 -147 71 -147s71 24 71 147c0 122 -31 147 -71 147s-71 -25 -71 -147z" />
    <glyph glyph-name="afii10101" unicode="&#x454;" horiz-adv-x="500" 
d="M37 217c0 120 94 232 253 232c78 0 99 -28 120 -28c10 0 16 19 24 19c5 0 8 -4 8 -19c0 -13 6 -92 6 -104c0 -7 -1 -14 -8 -14c-16 0 -32 130 -145 127c-105 0 -162 -86 -162 -213c0 -8 1 -14 2 -22c46 45 77 63 124 63c28 0 53 -7 71 -7c33 0 32 38 48 38c5 0 8 -2 8 -8
c0 -28 -39 -157 -56 -157c-6 0 -9 4 -9 10c0 9 4 23 4 41s-60 36 -106 36c-35 0 -53 -16 -80 -39c15 -111 70 -168 153 -168c131 0 76 111 138 111c21 0 33 -11 33 -31c0 -45 -79 -99 -173 -99c-159 0 -253 95 -253 232z" />
    <glyph glyph-name="guillemotright" unicode="&#xbb;" horiz-adv-x="500" 
d="M93 84l89 119c2 3 5 7 5 12s-3 9 -5 12l-89 119c-3 4 -7 9 -7 13c0 5 3 8 7 8c2 0 6 -2 10 -5l143 -131c6 -6 13 -12 13 -16s-7 -10 -13 -16l-143 -131c-4 -3 -8 -5 -10 -5c-4 0 -7 3 -7 8c0 4 4 9 7 13zM248 84l89 119c2 3 5 7 5 12s-3 9 -5 12l-89 119c-3 4 -7 9 -7 13
c0 5 3 8 7 8c2 0 6 -2 10 -5l143 -131c6 -6 13 -12 13 -16s-7 -10 -13 -16l-143 -131c-4 -3 -8 -5 -10 -5c-4 0 -7 3 -7 8c0 4 4 9 7 13z" />
    <glyph glyph-name="afii10105" unicode="&#x458;" horiz-adv-x="278" 
d="M118 -98v451c0 31 -5 45 -38 45h-18c-16 0 -19 4 -19 9c0 4 2 9 9 10c20 3 142 32 147 32c4 0 7 -2 7 -10v-535c0 -123 -97 -184 -189 -184c-89 0 -142 34 -142 67c0 20 11 31 32 31c18 0 30 -10 38 -28c16 -37 44 -48 72 -48c65 0 101 43 101 160zM98 616
c0 30 24 54 54 54s54 -24 54 -54s-24 -54 -54 -54s-54 24 -54 54z" />
    <glyph glyph-name="afii10054" unicode="&#x405;" 
d="M44 27v159c0 12 5 17 14 17c10 0 13 -7 15 -19c7 -43 53 -177 186 -177c107 0 157 65 157 134c0 198 -353 128 -353 367c0 128 112 180 204 180c104 0 118 -45 154 -45c16 0 13 37 25 37c8 0 12 -4 12 -17c0 -22 3 -124 3 -144c0 -14 -4 -20 -11 -20s-14 15 -20 36
c-24 83 -92 128 -160 128c-71 0 -125 -46 -125 -108c0 -178 367 -123 367 -373c0 -132 -112 -200 -255 -200c-103 0 -158 59 -171 59c-16 0 -13 -33 -29 -33c-9 0 -13 9 -13 19z" />
    <glyph glyph-name="afii10102" unicode="&#x455;" horiz-adv-x="389" 
d="M52 328c0 74 54 121 130 121c40 0 57 -15 83 -15c16 0 19 15 29 15c6 0 9 -3 9 -9c0 -11 3 -83 3 -103c0 -10 -4 -13 -10 -13c-7 0 -11 4 -22 34c-14 37 -42 69 -91 69c-45 0 -71 -25 -71 -60c0 -98 232 -86 232 -247c0 -69 -50 -135 -145 -135c-63 0 -92 27 -109 27
s-20 -21 -31 -21c-6 0 -9 4 -9 12c0 12 -5 107 -5 123c0 8 5 12 10 12c8 0 10 -11 15 -27c15 -49 48 -104 123 -104c53 0 85 35 85 73c0 111 -226 99 -226 248z" />
    <glyph glyph-name="afii10104" unicode="&#x457;" horiz-adv-x="278" 
d="M188 612c0 28 22 50 50 50s50 -22 50 -50s-22 -50 -50 -50s-50 22 -50 50zM-10 612c0 28 22 50 50 50s50 -22 50 -50s-22 -50 -50 -50s-50 22 -50 50zM103 80v273c0 31 -5 45 -38 45h-18c-16 0 -19 4 -19 9c0 4 2 9 9 10c20 3 142 32 147 32c4 0 7 -2 7 -10v-359
c0 -54 13 -61 38 -64c28 -3 32 -5 32 -11s-8 -8 -16 -8c-20 0 -69 3 -103 3s-81 -3 -105 -3c-7 0 -9 3 -9 9s6 8 21 10c44 6 54 24 54 64z" />
    <glyph glyph-name="afii10017" unicode="&#x410;" horiz-adv-x="778" 
d="M471 273l-112 292c-1 1 -1 0 -2 0l-118 -292h232zM168 163l209 525h36l221 -570c24 -61 45 -97 88 -99c29 -2 32 -4 32 -9c0 -12 -3 -13 -22 -13c-41 0 -81 3 -122 3s-81 -3 -122 -3c-20 0 -26 1 -26 13c0 5 6 9 34 9c33 0 46 19 46 40c0 20 -16 70 -31 110l-29 76h-254
l-56 -152c-3 -9 -5 -19 -5 -30c0 -32 26 -40 57 -44c23 -3 26 -4 26 -9c0 -12 -3 -13 -20 -13c-31 0 -63 3 -94 3s-63 -3 -94 -3c-14 0 -18 3 -18 13c0 4 2 7 21 9c44 5 75 24 123 144z" />
    <glyph glyph-name="afii10018" unicode="&#x411;" horiz-adv-x="722" 
d="M150 124v422c0 77 -19 104 -68 105c-40 1 -43 3 -43 11c0 9 6 11 27 11c86 0 172 -3 264 -3c83 0 166 3 246 3c9 0 15 -4 15 -12c0 -28 6 -119 6 -138c0 -10 -4 -18 -12 -18c-6 0 -12 2 -15 24c-14 99 -66 119 -254 119c-59 0 -62 -6 -62 -20v-262h70
c157 0 321 -34 321 -195c0 -135 -133 -174 -288 -174c-51 0 -101 3 -155 3c-47 0 -100 -3 -136 -3c-21 0 -27 2 -27 11c0 8 3 10 43 11c49 1 68 28 68 105zM254 329v-221c0 -55 33 -89 103 -89c110 0 164 50 164 163c0 127 -74 162 -220 162c-42 0 -47 -4 -47 -15z" />
    <glyph glyph-name="afii10019" unicode="&#x412;" horiz-adv-x="722" 
d="M157 124v422c0 77 -19 104 -68 105c-40 1 -43 3 -43 11c0 9 6 11 27 11c36 0 89 -3 136 -3c45 0 87 3 128 3c149 0 246 -46 246 -154c0 -87 -58 -137 -166 -157v-2c132 -11 235 -60 235 -189c0 -135 -133 -174 -288 -174c-51 0 -101 3 -155 3c-47 0 -100 -3 -136 -3
c-21 0 -27 2 -27 11c0 8 3 10 43 11c49 1 68 28 68 105zM261 329v-221c0 -55 33 -89 103 -89c110 0 164 50 164 163c0 127 -74 162 -220 162c-42 0 -47 -4 -47 -15zM261 630v-246c0 -13 8 -18 25 -18c122 0 189 36 189 142c0 108 -65 143 -153 143c-41 0 -61 -6 -61 -21z
" />
    <glyph glyph-name="afii10020" unicode="&#x413;" horiz-adv-x="611" 
d="M150 124v422c0 77 -19 104 -68 105c-40 1 -43 3 -43 11c0 9 6 11 27 11c83 0 166 -3 249 -3s166 3 246 3c9 0 15 -4 15 -12c0 -28 6 -119 6 -138c0 -10 -4 -18 -12 -18c-6 0 -12 2 -15 24c-14 99 -66 119 -254 119c-44 0 -47 -7 -47 -25v-499c0 -77 19 -104 68 -105
c40 -1 43 -3 43 -11c0 -9 -6 -11 -27 -11c-36 0 -89 3 -136 3s-100 -3 -136 -3c-21 0 -27 2 -27 11c0 8 3 10 43 11c49 1 68 28 68 105z" />
    <glyph glyph-name="afii10021" unicode="&#x414;" horiz-adv-x="833" 
d="M126 22l310 543c9 18 19 38 19 55c0 24 -23 30 -70 31c-32 1 -35 3 -35 11c0 9 6 11 20 11c63 0 127 -3 190 -3s127 3 190 3c13 0 19 -2 19 -11c0 -8 -3 -10 -35 -11c-44 -1 -63 -28 -63 -105v-524h90c13 0 19 -4 19 -12c0 -3 -1 -9 -4 -16l-76 -196c-1 -4 -4 -7 -8 -7
c-6 0 -8 5 -8 9v181c0 10 -6 16 -22 16c-78 1 -169 3 -261 3c-88 0 -176 -2 -261 -3c-16 0 -22 -6 -22 -16v-181c0 -4 -2 -9 -8 -9c-4 0 -7 3 -8 7l-76 196c-3 7 -4 13 -4 16c0 8 6 12 19 12h85zM567 22v626h-48l-361 -626h409z" />
    <glyph glyph-name="afii10022" unicode="&#x415;" horiz-adv-x="667" 
d="M150 124v422c0 77 -19 104 -63 105c-32 1 -35 3 -35 11c0 9 6 11 19 11c79 0 159 -3 238 -3s159 3 235 3c8 0 16 -2 16 -12v-113c0 -15 -4 -19 -11 -19s-13 4 -14 14c-8 83 -42 105 -158 105c-113 0 -123 -1 -123 -17v-271c70 0 156 18 162 101c2 28 5 33 15 33
c9 0 13 -4 13 -12c0 -42 -3 -83 -3 -125s3 -83 3 -125c0 -8 -4 -12 -11 -12s-11 4 -17 34c-13 64 -63 81 -128 81h-34v-184c0 -89 14 -129 151 -129c129 0 172 45 184 109c4 21 8 27 17 27c5 0 9 -4 9 -12c0 -20 -6 -74 -6 -102v-34c0 -9 -5 -13 -16 -13
c-87 0 -174 3 -261 3s-174 -3 -261 -3c-13 0 -19 2 -19 11c0 8 3 10 35 11c44 1 63 28 63 105z" />
    <glyph glyph-name="afii10024" unicode="&#x416;" horiz-adv-x="1000" 
d="M448 124v208h-33c-61 0 -104 -18 -146 -110l-78 -172c-24 -53 -55 -68 -99 -68c-56 0 -81 57 -81 68c0 5 2 9 7 9c14 0 18 -30 42 -30c16 0 26 5 44 51c69 180 100 243 238 263v2c-37 16 -53 45 -75 108l-41 116c-16 46 -33 79 -63 79c-46 0 -24 -51 -78 -51
c-22 0 -36 16 -36 35c0 39 41 56 85 56c56 0 92 -31 117 -103l45 -128c29 -85 50 -97 129 -97h23v186c0 77 -19 104 -63 105c-26 1 -29 3 -29 11c0 9 6 11 19 11c27 0 80 -3 125 -3s98 3 125 3c13 0 19 -2 19 -11c0 -8 -3 -10 -29 -11c-44 -1 -63 -28 -63 -105v-186h23
c79 0 100 12 129 97l45 128c25 72 61 103 117 103c44 0 85 -17 85 -56c0 -19 -14 -35 -36 -35c-54 0 -32 51 -78 51c-30 0 -47 -33 -63 -79l-41 -116c-22 -63 -38 -92 -75 -108v-2c138 -20 169 -83 238 -263c18 -46 28 -51 44 -51c24 0 28 30 42 30c5 0 7 -4 7 -9
c0 -11 -25 -68 -81 -68c-44 0 -75 15 -99 68l-78 172c-42 92 -85 110 -146 110h-33v-208c0 -77 19 -104 63 -105c26 -1 29 -3 29 -11c0 -9 -6 -11 -19 -11c-42 0 -83 3 -125 3s-83 -3 -125 -3c-13 0 -19 2 -19 11c0 8 3 10 29 11c44 1 63 28 63 105z" />
    <glyph glyph-name="afii10025" unicode="&#x417;" horiz-adv-x="667" 
d="M501 189c0 106 -75 157 -195 157c-55 0 -63 2 -63 13s16 12 61 12c123 0 173 62 173 142c0 98 -84 153 -167 153c-110 0 -175 -70 -199 -144c-8 -25 -11 -30 -19 -30c-5 0 -9 2 -9 12c0 15 4 135 4 151c0 14 4 21 12 21c15 0 13 -31 29 -31c35 0 77 43 190 43
c126 0 267 -50 267 -167c0 -84 -49 -140 -159 -160v-2c136 -15 193 -94 193 -178c0 -111 -108 -199 -314 -199c-191 0 -257 100 -257 148c0 29 22 41 40 41c27 0 32 -14 44 -57c23 -82 91 -110 169 -110c115 0 200 67 200 185z" />
    <glyph glyph-name="afii10026" unicode="&#x418;" horiz-adv-x="889" 
d="M157 124v422c0 77 -19 104 -63 105c-32 1 -35 3 -35 11c0 9 6 11 19 11c33 0 86 -3 131 -3s98 3 131 3c13 0 19 -2 19 -11c0 -8 -3 -10 -35 -11c-44 -1 -63 -28 -63 -105v-389l367 403c0 67 -22 90 -63 91c-32 1 -35 3 -35 11c0 9 6 11 19 11c33 0 86 -3 131 -3
s98 3 131 3c13 0 19 -2 19 -11c0 -8 -3 -10 -35 -11c-44 -1 -63 -28 -63 -105v-422c0 -77 19 -104 63 -105c32 -1 35 -3 35 -11c0 -9 -6 -11 -19 -11c-33 0 -86 3 -131 3s-98 -3 -131 -3c-13 0 -19 2 -19 11c0 8 3 10 35 11c44 1 63 28 63 105v397l-367 -404
c0 -72 20 -97 63 -98c32 -1 35 -3 35 -11c0 -9 -6 -11 -19 -11c-33 0 -86 3 -131 3s-98 -3 -131 -3c-13 0 -19 2 -19 11c0 8 3 10 35 11c44 1 63 28 63 105z" />
    <glyph glyph-name="afii10027" unicode="&#x419;" horiz-adv-x="889" 
d="M157 124v422c0 77 -19 104 -63 105c-32 1 -35 3 -35 11c0 9 6 11 19 11c33 0 86 -3 131 -3s98 3 131 3c13 0 19 -2 19 -11c0 -8 -3 -10 -35 -11c-44 -1 -63 -28 -63 -105v-389l367 403c0 67 -22 90 -63 91c-32 1 -35 3 -35 11c0 9 6 11 19 11c33 0 86 -3 131 -3
s98 3 131 3c13 0 19 -2 19 -11c0 -8 -3 -10 -35 -11c-44 -1 -63 -28 -63 -105v-422c0 -77 19 -104 63 -105c32 -1 35 -3 35 -11c0 -9 -6 -11 -19 -11c-33 0 -86 3 -131 3s-98 -3 -131 -3c-13 0 -19 2 -19 11c0 8 3 10 35 11c44 1 63 28 63 105v397l-367 -404
c0 -72 20 -97 63 -98c32 -1 35 -3 35 -11c0 -9 -6 -11 -19 -11c-33 0 -86 3 -131 3s-98 -3 -131 -3c-13 0 -19 2 -19 11c0 8 3 10 35 11c44 1 63 28 63 105zM444 713c-92 0 -173 39 -173 107c0 17 14 43 45 43s43 -21 43 -41c0 -21 -11 -30 -11 -38c0 -33 32 -49 96 -49
s96 16 96 49c0 8 -11 17 -11 38c0 20 12 41 43 41s45 -26 45 -43c0 -68 -81 -107 -173 -107z" />
    <glyph glyph-name="afii10028" unicode="&#x41a;" horiz-adv-x="778" 
d="M170 124v422c0 77 -19 104 -63 105c-32 1 -35 3 -35 11c0 9 6 11 19 11c33 0 86 -3 131 -3s98 3 131 3c13 0 19 -2 19 -11c0 -8 -3 -10 -35 -11c-44 -1 -63 -28 -63 -105v-186h37c63 0 94 18 120 90l43 120c38 105 89 118 141 118c48 0 80 -32 80 -58
c0 -19 -15 -35 -38 -35c-40 0 -44 53 -83 53c-26 0 -49 -28 -67 -77l-47 -130c-17 -46 -31 -74 -70 -92v-2c109 -18 161 -73 189 -129l79 -156c10 -19 18 -33 37 -33c36 0 41 48 56 48c6 0 10 -4 10 -12c0 -23 -34 -83 -104 -83c-55 0 -85 27 -113 81l-82 159
c-42 81 -73 110 -155 110h-33v-208c0 -77 19 -104 63 -105c32 -1 35 -3 35 -11c0 -9 -6 -11 -19 -11c-33 0 -86 3 -131 3s-98 -3 -131 -3c-13 0 -19 2 -19 11c0 8 3 10 35 11c44 1 63 28 63 105z" />
    <glyph glyph-name="afii10029" unicode="&#x41b;" horiz-adv-x="833" 
d="M605 55c0 18 -3 49 -31 119l-157 400l-178 -434c-59 -141 -108 -158 -166 -158c-42 0 -70 22 -70 51c0 23 16 41 37 41c40 0 46 -52 77 -52c24 0 65 56 98 136l136 329c25 60 36 81 36 109c0 27 -19 53 -74 55c-31 1 -35 3 -35 12c0 8 6 10 19 10c30 0 60 -3 90 -3
s66 3 77 3c9 0 14 -3 18 -14l224 -564c15 -38 42 -73 79 -76c29 -2 32 -6 32 -9c0 -12 -3 -13 -22 -13c-41 0 -81 3 -122 3s-81 -3 -122 -3c-20 0 -26 1 -26 13c0 5 6 9 34 9c33 0 46 19 46 36z" />
    <glyph glyph-name="afii10030" unicode="&#x41c;" horiz-adv-x="944" 
d="M150 124v422c0 77 -19 104 -63 105c-32 1 -35 3 -35 11c0 9 6 11 19 11c25 0 49 -3 74 -3s49 3 74 3h17c10 0 15 -3 18 -10l220 -512l218 507c4 10 8 15 17 15c27 0 55 -3 82 -3s55 3 82 3c13 0 19 -2 19 -11c0 -8 -3 -10 -35 -11c-44 -1 -63 -28 -63 -105v-422
c0 -77 19 -104 63 -105c32 -1 35 -3 35 -11c0 -9 -6 -11 -19 -11c-33 0 -86 3 -131 3s-98 -3 -131 -3c-13 0 -19 2 -19 11c0 8 3 10 35 11c44 1 63 28 63 105v461h-2c-4 -13 -8 -30 -13 -41l-229 -531c-3 -8 -6 -13 -13 -13c-4 0 -7 3 -11 12l-240 573h-2v-461
c0 -77 19 -104 63 -105c32 -1 35 -3 35 -11c0 -9 -6 -11 -19 -11c-31 0 -63 3 -94 3s-63 -3 -94 -3c-13 0 -19 2 -19 11c0 8 3 10 35 11c44 1 63 28 63 105z" />
    <glyph glyph-name="afii10031" unicode="&#x41d;" horiz-adv-x="889" 
d="M628 124v211h-367v-211c0 -77 19 -104 63 -105c32 -1 35 -3 35 -11c0 -9 -6 -11 -19 -11c-33 0 -86 3 -131 3s-98 -3 -131 -3c-13 0 -19 2 -19 11c0 8 3 10 35 11c44 1 63 28 63 105v422c0 77 -19 104 -63 105c-32 1 -35 3 -35 11c0 9 6 11 19 11c33 0 86 -3 131 -3
s98 3 131 3c13 0 19 -2 19 -11c0 -8 -3 -10 -35 -11c-44 -1 -63 -28 -63 -105v-186h367v186c0 77 -19 104 -63 105c-32 1 -35 3 -35 11c0 9 6 11 19 11c33 0 86 -3 131 -3s98 3 131 3c13 0 19 -2 19 -11c0 -8 -3 -10 -35 -11c-44 -1 -63 -28 -63 -105v-422
c0 -77 19 -104 63 -105c32 -1 35 -3 35 -11c0 -9 -6 -11 -19 -11c-33 0 -86 3 -131 3s-98 -3 -131 -3c-13 0 -19 2 -19 11c0 8 3 10 35 11c44 1 63 28 63 105z" />
    <glyph glyph-name="afii10032" unicode="&#x41e;" horiz-adv-x="832" 
d="M44 335c0 207 155 353 372 353s372 -146 372 -353s-155 -353 -372 -353s-372 146 -372 353zM168 335c0 -161 78 -331 248 -331s248 170 248 331s-78 331 -248 331s-248 -170 -248 -331z" />
    <glyph glyph-name="afii10033" unicode="&#x41f;" horiz-adv-x="889" 
d="M157 124v422c0 77 -19 104 -63 105c-32 1 -35 3 -35 11c0 9 6 11 19 11c123 0 247 -3 367 -3c119 0 243 3 366 3c13 0 19 -2 19 -11c0 -8 -3 -10 -35 -11c-44 -1 -63 -28 -63 -105v-422c0 -77 19 -104 63 -105c32 -1 35 -3 35 -11c0 -9 -6 -11 -19 -11
c-33 0 -86 3 -131 3s-98 -3 -131 -3c-13 0 -19 2 -19 11c0 8 3 10 35 11c44 1 63 28 63 105v497c0 20 -11 27 -41 27h-285c-30 0 -41 -7 -41 -27v-497c0 -77 19 -104 63 -105c32 -1 35 -3 35 -11c0 -9 -6 -11 -19 -11c-33 0 -86 3 -131 3s-98 -3 -131 -3c-13 0 -19 2 -19 11
c0 8 3 10 35 11c44 1 63 28 63 105z" />
    <glyph glyph-name="afii10034" unicode="&#x420;" horiz-adv-x="611" 
d="M150 124v422c0 77 -19 104 -63 105c-32 1 -35 3 -35 11c0 9 6 11 19 11c33 0 86 -3 131 -3s90 3 134 3c183 0 249 -88 249 -174c0 -123 -93 -188 -266 -188h-65v-187c0 -77 19 -104 63 -105c32 -1 35 -3 35 -11c0 -9 -6 -11 -19 -11c-33 0 -86 3 -131 3s-98 -3 -131 -3
c-13 0 -19 2 -19 11c0 8 3 10 35 11c44 1 63 28 63 105zM254 623v-284c24 -2 40 -3 59 -3c110 0 158 45 158 159c0 118 -71 156 -165 156c-45 0 -52 -7 -52 -28z" />
    <glyph glyph-name="afii10035" unicode="&#x421;" horiz-adv-x="722" 
d="M659 207v-180c0 -10 -4 -16 -12 -16s-13 5 -13 21c0 11 -6 17 -18 17c-35 0 -65 -67 -212 -67c-239 0 -360 149 -360 335c0 251 176 371 365 371c130 0 167 -52 191 -52c23 0 12 36 30 36c7 0 11 -6 11 -14c0 -50 8 -104 8 -158c0 -14 -3 -24 -10 -24c-8 0 -13 6 -18 34
c-9 51 -70 156 -210 156c-116 0 -243 -86 -243 -351c0 -235 142 -311 243 -311c140 0 194 98 220 190c10 35 12 38 18 38c10 0 10 -8 10 -25z" />
    <glyph glyph-name="afii10036" unicode="&#x422;" horiz-adv-x="778" 
d="M337 124v502c0 15 -6 19 -154 19c-70 0 -124 -12 -129 -87c-2 -32 -7 -35 -15 -35c-6 0 -8 4 -8 13v122c0 9 3 15 17 15c114 0 227 -3 341 -3s227 3 341 3c14 0 17 -6 17 -15v-122c0 -9 -2 -13 -8 -13c-8 0 -13 3 -15 35c-5 75 -59 87 -129 87c-148 0 -154 -4 -154 -19
v-502c0 -77 19 -104 63 -105c32 -1 35 -3 35 -11c0 -9 -6 -11 -19 -11c-33 0 -86 3 -131 3s-98 -3 -131 -3c-13 0 -19 2 -19 11c0 8 3 10 35 11c44 1 63 28 63 105z" />
    <glyph glyph-name="afii10037" unicode="&#x423;" horiz-adv-x="667" 
d="M373 320l99 157c34 53 58 101 58 129c0 26 -17 43 -49 45c-19 1 -22 3 -22 11c0 9 6 11 19 11c28 0 55 -3 83 -3s55 3 83 3c13 0 19 -2 19 -11c0 -8 -3 -11 -15 -11c-25 -1 -48 -22 -64 -48l-340 -537c-42 -66 -76 -84 -119 -84c-50 0 -86 26 -86 58c0 19 17 34 38 34
c46 0 47 -52 84 -52c20 0 33 13 51 41l103 165l-190 341c-31 56 -49 80 -79 82c-17 1 -22 3 -22 11c0 9 6 11 19 11c39 0 78 -3 117 -3s78 3 117 3c14 0 20 -2 20 -11c0 -8 -3 -10 -22 -11c-40 -2 -55 -18 -55 -35c0 -23 16 -50 28 -71z" />
    <glyph glyph-name="afii10038" unicode="&#x424;" horiz-adv-x="832" 
d="M364 104v458c-95 -1 -217 -46 -217 -229s122 -228 217 -229zM33 333c0 178 151 249 329 251c-6 48 -25 66 -61 67c-32 1 -35 3 -35 11c0 9 6 11 19 11c33 0 86 -3 131 -3s98 3 131 3c13 0 19 -2 19 -11c0 -8 -3 -10 -35 -11c-36 -1 -55 -19 -61 -67
c178 -2 329 -73 329 -251c0 -179 -151 -250 -329 -251c7 -45 26 -62 61 -63c32 -1 35 -3 35 -11c0 -9 -6 -11 -19 -11c-33 0 -86 3 -131 3s-98 -3 -131 -3c-13 0 -19 2 -19 11c0 8 3 10 35 11c35 1 54 18 61 63c-178 1 -329 72 -329 251zM468 562v-458c95 1 217 46 217 229
s-122 228 -217 229z" />
    <glyph glyph-name="afii10039" unicode="&#x425;" horiz-adv-x="778" 
d="M348 314l-235 300c-14 18 -30 36 -46 37c-25 1 -28 3 -28 11c0 9 6 11 19 11c41 0 82 -3 123 -3s82 3 123 3c14 0 20 -2 20 -11c0 -8 -3 -10 -35 -11c-25 -1 -42 -7 -42 -19s9 -34 24 -53l148 -189l93 124c32 43 45 72 45 92c0 26 -17 44 -36 45c-32 1 -35 3 -35 11
c0 9 6 11 19 11c31 0 62 -3 93 -3s62 3 93 3c13 0 19 -2 19 -11c0 -8 -3 -10 -33 -11c-21 -1 -42 -23 -62 -49l-180 -232l247 -310c21 -26 39 -41 49 -41c32 -1 35 -3 35 -11c0 -9 -6 -11 -19 -11c-44 0 -87 3 -131 3s-87 -3 -131 -3c-13 0 -19 2 -19 11c0 8 3 10 35 11
c20 1 46 6 46 30c0 10 -10 30 -38 65l-143 179l-123 -163c-30 -40 -33 -58 -33 -73c0 -25 23 -37 44 -38c32 -1 35 -3 35 -11c0 -9 -6 -11 -19 -11c-34 0 -68 3 -102 3s-68 -3 -102 -3c-13 0 -19 2 -19 11c0 8 3 10 35 11c11 0 43 14 86 68z" />
    <glyph glyph-name="afii10040" unicode="&#x426;" horiz-adv-x="889" 
d="M157 124v422c0 77 -19 104 -63 105c-32 1 -35 3 -35 11c0 9 6 11 19 11c33 0 86 -3 131 -3s98 3 131 3c13 0 19 -2 19 -11c0 -8 -3 -10 -35 -11c-44 -1 -63 -28 -63 -105v-470c0 -33 14 -54 60 -54h247c46 0 60 21 60 54v470c0 77 -19 104 -63 105c-32 1 -35 3 -35 11
c0 9 6 11 19 11c33 0 86 -3 131 -3s98 3 131 3c13 0 19 -2 19 -11c0 -8 -3 -10 -35 -11c-44 -1 -63 -28 -63 -105v-422c0 -77 19 -104 63 -105c29 -1 35 -3 35 -9c0 -3 -1 -9 -4 -16l-78 -196c-2 -4 -4 -7 -8 -7c-6 0 -8 5 -8 9v181c0 10 -6 16 -22 16c-92 1 -200 3 -308 3
c-54 0 -108 -1 -162 -1c-54 -1 -108 -2 -162 -2c-13 0 -19 2 -19 11c0 8 3 10 35 11c44 1 63 28 63 105z" />
    <glyph glyph-name="afii10041" unicode="&#x427;" horiz-adv-x="778" 
d="M522 107v221c-44 -25 -99 -52 -181 -52c-159 0 -196 67 -196 184v121c0 53 -24 69 -58 70c-32 1 -35 3 -35 11c0 9 6 11 19 11c39 0 79 -3 118 -3s79 3 118 3c12 0 18 -2 18 -11c0 -8 -3 -10 -32 -11c-27 -1 -44 -24 -44 -91v-124c0 -88 58 -128 132 -128
c40 0 89 17 141 42v213c0 71 -14 87 -41 88c-32 1 -35 3 -35 11c0 9 6 11 19 11c38 0 77 -3 115 -3s77 3 115 3c13 0 19 -2 19 -11c0 -8 -3 -10 -25 -11c-44 -1 -63 -28 -63 -105v-422c0 -77 19 -104 63 -105c22 -1 25 -3 25 -11c0 -9 -6 -11 -19 -11c-38 0 -77 3 -115 3
s-77 -3 -115 -3c-13 0 -19 2 -19 11c0 8 3 10 35 11c27 1 41 17 41 88z" />
    <glyph glyph-name="afii10042" unicode="&#x428;" horiz-adv-x="1104" 
d="M964 546v-422c0 -77 19 -104 63 -105c32 -1 35 -3 35 -11c0 -9 -6 -11 -19 -11c-146 0 -293 3 -491 3s-345 -3 -491 -3c-13 0 -19 2 -19 11c0 8 3 10 35 11c44 1 63 28 63 105v422c0 77 -19 104 -63 105c-32 1 -35 3 -35 11c0 9 6 11 19 11c39 0 79 -3 118 -3s79 3 118 3
c13 0 19 -2 19 -11c0 -8 -3 -10 -35 -11c-27 -1 -37 -17 -37 -88v-481c0 -48 25 -60 127 -60s129 12 129 60v481c0 71 -12 87 -39 88c-32 1 -35 3 -35 11c0 9 6 11 19 11c36 0 71 -3 107 -3s71 3 107 3c13 0 19 -2 19 -11c0 -8 -3 -10 -35 -11c-27 -1 -39 -17 -39 -88v-481
c0 -48 27 -60 129 -60s127 12 127 60v481c0 71 -10 87 -37 88c-32 1 -35 3 -35 11c0 9 6 11 19 11c39 0 79 -3 118 -3s79 3 118 3c13 0 19 -2 19 -11c0 -8 -3 -10 -35 -11c-44 -1 -63 -28 -63 -105z" />
    <glyph glyph-name="afii10043" unicode="&#x429;" horiz-adv-x="1104" 
d="M964 546v-422c0 -77 19 -104 63 -105c29 -1 35 -3 35 -9c0 -3 -1 -9 -4 -16l-78 -196c-2 -4 -4 -7 -8 -7c-6 0 -8 5 -8 9v181c0 10 -6 16 -22 16c-45 0 -192 3 -390 3s-345 -3 -491 -3c-13 0 -19 2 -19 11c0 8 3 10 35 11c44 1 63 28 63 105v422c0 77 -19 104 -63 105
c-32 1 -35 3 -35 11c0 9 6 11 19 11c39 0 79 -3 118 -3s79 3 118 3c13 0 19 -2 19 -11c0 -8 -3 -10 -35 -11c-27 -1 -37 -17 -37 -88v-481c0 -48 25 -60 127 -60s129 12 129 60v481c0 71 -12 87 -39 88c-32 1 -35 3 -35 11c0 9 6 11 19 11c36 0 71 -3 107 -3s71 3 107 3
c13 0 19 -2 19 -11c0 -8 -3 -10 -35 -11c-27 -1 -39 -17 -39 -88v-481c0 -48 27 -60 129 -60s127 12 127 60v481c0 71 -10 87 -37 88c-32 1 -35 3 -35 11c0 9 6 11 19 11c39 0 79 -3 118 -3s79 3 118 3c13 0 19 -2 19 -11c0 -8 -3 -10 -35 -11c-44 -1 -63 -28 -63 -105z" />
    <glyph glyph-name="afii10044" unicode="&#x42a;" horiz-adv-x="778" 
d="M266 124v497c0 21 -13 27 -54 27c-123 0 -156 -23 -169 -119c-3 -22 -9 -24 -15 -24c-8 0 -12 8 -12 18c0 19 6 110 6 138c0 8 6 12 15 12c79 0 146 -3 214 -3s135 3 203 3c21 0 27 -2 27 -11c0 -8 -3 -10 -43 -11c-49 -1 -68 -28 -68 -105v-180h48
c157 0 321 -34 321 -195c0 -135 -133 -174 -285 -174c-44 0 -90 3 -136 3c-47 0 -100 -3 -136 -3c-21 0 -27 2 -27 11c0 8 3 10 43 11c49 1 68 28 68 105zM370 329v-221c0 -55 33 -89 98 -89c93 0 147 50 147 163c0 127 -74 162 -200 162c-40 0 -45 -4 -45 -15z" />
    <glyph glyph-name="afii10045" unicode="&#x42b;" horiz-adv-x="944" 
d="M150 124v422c0 77 -19 104 -68 105c-40 1 -43 3 -43 11c0 9 6 11 27 11c36 0 89 -3 136 -3s100 3 136 3c21 0 27 -2 27 -11c0 -8 -3 -10 -43 -11c-49 -1 -68 -28 -68 -105v-180h53c193 0 283 -58 283 -186c0 -140 -109 -183 -208 -183c-60 0 -120 3 -180 3
c-47 0 -100 -3 -136 -3c-21 0 -27 2 -27 11c0 8 3 10 43 11c49 1 68 28 68 105zM254 331v-233c0 -44 18 -79 81 -79c103 0 137 76 137 165c0 93 -41 160 -168 160c-41 0 -50 -4 -50 -13zM682 124v422c0 77 -19 104 -63 105c-32 1 -35 3 -35 11c0 9 6 11 19 11
c33 0 86 -3 131 -3s98 3 131 3c13 0 19 -2 19 -11c0 -8 -3 -10 -35 -11c-44 -1 -63 -28 -63 -105v-422c0 -77 19 -104 63 -105c32 -1 35 -3 35 -11c0 -9 -6 -11 -19 -11c-33 0 -86 3 -131 3s-98 -3 -131 -3c-13 0 -19 2 -19 11c0 8 3 10 35 11c44 1 63 28 63 105z" />
    <glyph glyph-name="afii10046" unicode="&#x42c;" horiz-adv-x="667" 
d="M150 124v422c0 77 -19 104 -68 105c-40 1 -43 3 -43 11c0 9 6 11 27 11c36 0 89 -3 136 -3s100 3 136 3c21 0 27 -2 27 -11c0 -8 -3 -10 -43 -11c-49 -1 -68 -28 -68 -105v-180h53c157 0 321 -34 321 -195c0 -135 -133 -174 -288 -174c-46 0 -92 3 -138 3
c-47 0 -100 -3 -136 -3c-21 0 -27 2 -27 11c0 8 3 10 43 11c49 1 68 28 68 105zM254 326v-218c0 -55 33 -89 103 -89c93 0 147 50 147 163c0 127 -74 159 -203 159c-42 0 -47 -4 -47 -15z" />
    <glyph glyph-name="afii10047" unicode="&#x42d;" horiz-adv-x="722" 
d="M554 301v53c0 219 -106 312 -252 312c-100 0 -167 -45 -192 -131c-6 -21 -13 -36 -20 -36s-11 6 -11 27c0 43 3 86 3 129c0 21 4 25 12 25c12 0 9 -37 25 -37c36 0 50 45 191 45c213 0 368 -146 368 -354c0 -213 -127 -352 -359 -352c-148 0 -254 77 -254 147
c0 27 13 37 35 37c24 0 37 -12 44 -40c15 -61 43 -122 169 -122c112 0 229 82 238 267c-52 45 -83 61 -142 61c-38 0 -164 -16 -164 -67c0 -37 10 -49 10 -60c0 -9 -3 -13 -8 -13c-6 0 -9 1 -13 12l-72 214c-3 8 -4 14 -4 17c0 10 2 14 8 14c22 0 22 -72 73 -72
c10 0 70 15 130 15c58 0 101 -16 185 -91z" />
    <glyph glyph-name="afii10048" unicode="&#x42e;" horiz-adv-x="1000" 
d="M144 124v422c0 77 -19 104 -63 105c-32 1 -35 3 -35 11c0 9 6 11 19 11c33 0 86 -3 131 -3s98 3 131 3c13 0 19 -2 19 -11c0 -8 -3 -10 -35 -11c-44 -1 -63 -28 -63 -105v-196h90c17 219 148 338 326 338c142 0 300 -119 300 -353s-158 -353 -300 -353
c-197 0 -315 142 -326 343h-90v-201c0 -77 19 -104 63 -105c32 -1 35 -3 35 -11c0 -9 -6 -11 -19 -11c-33 0 -86 3 -131 3s-98 -3 -131 -3c-13 0 -19 2 -19 11c0 8 3 10 35 11c44 1 63 28 63 105zM456 335c0 -207 61 -331 195 -331s195 124 195 331s-61 331 -195 331
s-195 -124 -195 -331z" />
    <glyph glyph-name="afii10049" unicode="&#x42f;" horiz-adv-x="722" 
d="M572 546v-422c0 -77 19 -104 63 -105c32 -1 35 -3 35 -11c0 -9 -6 -11 -19 -11c-33 0 -86 3 -131 3s-98 -3 -131 -3c-13 0 -19 2 -19 11c0 8 3 10 35 11c44 1 63 28 63 105v179c0 11 -5 15 -47 15c-68 0 -88 -18 -124 -83l-87 -158c-29 -53 -77 -95 -119 -95
c-67 0 -86 53 -86 77c0 8 3 12 9 12c11 0 19 -42 40 -42c13 0 22 6 31 23l83 155c38 72 93 105 159 116v2c-126 24 -204 76 -204 181c0 107 90 167 222 167c58 0 117 -3 175 -3c45 0 98 3 131 3c13 0 19 -2 19 -11c0 -8 -3 -10 -35 -11c-44 -1 -63 -28 -63 -105zM468 358
v272c0 15 -20 21 -61 21c-95 0 -166 -37 -166 -154c0 -141 97 -157 202 -157c17 0 25 5 25 18z" />
    <glyph glyph-name="afii10065" unicode="&#x430;" horiz-adv-x="500" 
d="M37 78c0 68 45 103 225 170c54 20 56 27 56 58c0 92 -15 118 -100 118c-73 0 -87 -22 -90 -59c-2 -29 -14 -41 -37 -41c-21 0 -40 10 -40 34c0 50 62 91 170 91c135 0 177 -49 177 -130c0 -56 -5 -151 -5 -235c0 -39 11 -59 44 -59c18 0 28 19 35 19s8 -5 8 -10
c0 -18 -34 -49 -80 -49c-43 0 -77 19 -90 68c-55 -48 -109 -68 -161 -68c-67 0 -112 24 -112 93zM312 103l6 144c-142 -55 -193 -87 -193 -153c0 -31 22 -73 68 -73c33 0 74 24 106 49c10 8 12 17 13 33z" />
    <glyph glyph-name="afii10066" unicode="&#x431;" 
d="M488 708h16c-12 -79 -54 -110 -108 -110c-31 0 -138 19 -172 19c-48 0 -81 -65 -81 -228c43 39 87 60 141 60c111 0 231 -92 231 -229c0 -134 -105 -235 -245 -235c-143 0 -229 129 -229 303c0 84 15 165 62 239c76 119 143 161 198 161c24 0 48 -2 72 -5
c24 -2 48 -5 72 -5c17 0 35 9 43 30zM419 217c0 134 -46 213 -145 213c-43 0 -85 -21 -117 -53c-14 -15 -20 -25 -20 -115c0 -100 8 -258 137 -258c99 0 145 79 145 213z" />
    <glyph glyph-name="afii10067" unicode="&#x432;" 
d="M103 56v322c0 23 -13 39 -38 40s-32 5 -32 10c0 7 8 9 16 9c33 0 65 -3 98 -3c52 0 105 3 157 3c97 0 143 -44 143 -98c0 -52 -37 -92 -115 -103v-4c94 -5 158 -49 158 -116c0 -70 -60 -119 -160 -119c-61 0 -122 3 -183 3c-33 0 -65 -3 -98 -3c-8 0 -16 2 -16 9
c0 5 7 9 32 10s38 17 38 40zM191 211v-93c0 -68 9 -102 95 -102c72 0 104 43 104 103c0 74 -39 103 -157 103c-34 0 -42 -3 -42 -11zM191 404v-152c0 -9 8 -11 45 -11c83 0 115 19 115 88c0 50 -21 89 -114 89c-33 0 -46 -2 -46 -14z" />
    <glyph glyph-name="afii10068" unicode="&#x433;" horiz-adv-x="444" 
d="M111 56v322c0 23 -13 39 -38 40s-32 5 -32 10c0 7 8 9 16 9c59 0 117 -3 176 -3s117 3 176 3c8 0 13 -2 13 -9c0 -13 4 -73 4 -87c0 -7 -2 -12 -8 -12c-9 0 -15 21 -22 35c-17 34 -51 51 -138 51c-51 0 -59 -4 -59 -15v-344c0 -23 13 -39 38 -40s32 -5 32 -10
c0 -7 -8 -9 -16 -9c-33 0 -65 3 -98 3s-65 -3 -98 -3c-8 0 -16 2 -16 9c0 5 7 9 32 10s38 17 38 40z" />
    <glyph glyph-name="afii10069" unicode="&#x434;" 
d="M82 22l192 320c12 20 27 46 27 55c0 15 -18 21 -37 21c-25 0 -31 5 -31 11s4 8 23 8c47 0 88 -3 129 -3s82 3 123 3c8 0 16 -2 16 -8s-7 -10 -32 -11s-38 -17 -38 -40v-356h55c26 0 33 -3 33 -16c0 -15 -49 -160 -64 -160c-7 0 -9 8 -9 21v113c0 13 -4 17 -16 17
c-54 1 -116 3 -178 3c-57 0 -114 -2 -178 -3c-12 0 -16 -4 -16 -17v-113c0 -13 -2 -21 -9 -21c-15 0 -64 145 -64 160c0 13 7 16 33 16h41zM366 22v393h-14l-235 -393h249z" />
    <glyph glyph-name="afii10070" unicode="&#x435;" horiz-adv-x="500" 
d="M143 298h212c14 0 20 2 20 31c0 41 -25 95 -105 95c-73 0 -115 -51 -127 -126zM450 273h-312c-3 -15 -5 -32 -5 -48c0 -148 93 -204 168 -204c88 0 110 64 130 64c5 0 11 -4 11 -11c0 -23 -57 -89 -167 -89s-238 61 -238 228c0 135 115 236 233 236
c105 0 193 -65 193 -159c0 -11 -3 -17 -13 -17z" />
    <glyph glyph-name="afii10072" unicode="&#x436;" horiz-adv-x="778" 
d="M348 234v144c0 23 -13 39 -38 40s-32 5 -32 10c0 7 8 9 16 9c32 0 63 -3 95 -3s63 3 95 3c8 0 16 -2 16 -9c0 -5 -7 -9 -32 -10s-38 -17 -38 -40v-144c77 0 101 16 121 68l34 89c17 45 41 58 84 58c37 0 55 -22 55 -41c0 -16 -12 -32 -29 -32c-44 0 -33 37 -62 37
c-16 0 -23 -16 -39 -57l-28 -72c-12 -31 -22 -41 -42 -55v-2c81 -11 116 -40 139 -100c29 -75 39 -94 56 -95c26 0 22 30 32 30c4 0 7 -4 7 -12c0 -27 -25 -65 -58 -65c-50 0 -81 31 -109 107c-38 103 -78 120 -140 120h-21v-156c0 -23 13 -39 38 -40s32 -5 32 -10
c0 -7 -8 -9 -16 -9c-32 0 -63 3 -95 3s-63 -3 -95 -3c-8 0 -16 2 -16 9c0 5 7 9 32 10s38 17 38 40v156h-21c-62 0 -102 -17 -140 -120c-28 -76 -59 -107 -109 -107c-33 0 -58 38 -58 65c0 8 3 12 7 12c10 0 6 -30 32 -30c17 1 27 20 56 95c23 60 58 89 139 100v2
c-20 14 -30 24 -42 55l-28 72c-16 41 -23 57 -39 57c-29 0 -18 -37 -62 -37c-17 0 -29 16 -29 32c0 19 18 41 55 41c43 0 67 -13 84 -58l34 -89c20 -52 44 -68 121 -68z" />
    <glyph glyph-name="afii10073" unicode="&#x437;" horiz-adv-x="444" 
d="M411 121c0 -87 -86 -136 -206 -136c-104 0 -172 58 -172 96c0 22 11 34 30 34c69 0 4 -111 141 -111c57 0 111 36 111 114c0 88 -48 107 -121 107c-22 0 -28 3 -28 10c0 6 6 9 45 9c47 0 91 23 91 93c0 61 -37 93 -100 93c-57 0 -83 -23 -103 -56
c-22 -39 -25 -71 -39 -71c-5 0 -7 7 -7 14c0 18 4 82 4 100c0 16 3 23 12 23c8 0 10 -19 21 -19c16 0 41 28 121 28c90 0 179 -36 179 -112c0 -50 -38 -84 -106 -101v-2c72 -12 127 -42 127 -113z" />
    <glyph glyph-name="afii10074" unicode="&#x438;" horiz-adv-x="611" 
d="M103 56v322c0 23 -13 39 -38 40s-32 5 -32 10c0 7 8 9 16 9c33 0 65 -3 98 -3s65 3 98 3c8 0 16 -2 16 -9c0 -5 -7 -9 -32 -10s-38 -17 -38 -40v-256l229 225v31c0 23 -13 39 -38 40s-32 5 -32 10c0 7 8 9 16 9c33 0 65 -3 98 -3s65 3 98 3c8 0 16 -2 16 -9
c0 -5 -7 -9 -32 -10s-38 -17 -38 -40v-322c0 -23 13 -39 38 -40s32 -5 32 -10c0 -7 -8 -9 -16 -9c-33 0 -65 3 -98 3s-65 -3 -98 -3c-8 0 -16 2 -16 9c0 5 7 9 32 10s38 17 38 40v255l-229 -225v-30c0 -23 13 -39 38 -40s32 -5 32 -10c0 -7 -8 -9 -16 -9c-33 0 -65 3 -98 3
s-65 -3 -98 -3c-8 0 -16 2 -16 9c0 5 7 9 32 10s38 17 38 40z" />
    <glyph glyph-name="afii10075" unicode="&#x439;" horiz-adv-x="611" 
d="M103 56v322c0 23 -13 39 -38 40s-32 5 -32 10c0 7 8 9 16 9c33 0 65 -3 98 -3s65 3 98 3c8 0 16 -2 16 -9c0 -5 -7 -9 -32 -10s-38 -17 -38 -40v-256l229 225v31c0 23 -13 39 -38 40s-32 5 -32 10c0 7 8 9 16 9c33 0 65 -3 98 -3s65 3 98 3c8 0 16 -2 16 -9
c0 -5 -7 -9 -32 -10s-38 -17 -38 -40v-322c0 -23 13 -39 38 -40s32 -5 32 -10c0 -7 -8 -9 -16 -9c-33 0 -65 3 -98 3s-65 -3 -98 -3c-8 0 -16 2 -16 9c0 5 7 9 32 10s38 17 38 40v255l-229 -225v-30c0 -23 13 -39 38 -40s32 -5 32 -10c0 -7 -8 -9 -16 -9c-33 0 -65 3 -98 3
s-65 -3 -98 -3c-8 0 -16 2 -16 9c0 5 7 9 32 10s38 17 38 40zM305 536c-92 0 -173 39 -173 107c0 17 14 43 45 43s43 -21 43 -41c0 -21 -11 -30 -11 -38c0 -33 32 -49 96 -49s96 16 96 49c0 8 -11 17 -11 38c0 20 12 41 43 41s45 -26 45 -43c0 -68 -81 -107 -173 -107z" />
    <glyph glyph-name="afii10076" unicode="&#x43a;" 
d="M103 56v322c0 23 -13 39 -38 40s-32 5 -32 10c0 7 8 9 16 9c33 0 65 -3 98 -3s65 3 98 3c8 0 16 -2 16 -9c0 -5 -7 -9 -32 -10s-38 -17 -38 -40v-144h41c51 0 70 24 87 69l30 78c22 56 58 68 91 68c42 0 60 -22 60 -41c0 -16 -12 -32 -29 -32c-46 0 -27 37 -62 37
c-14 0 -24 -8 -38 -46l-19 -51c-19 -52 -31 -71 -52 -87v-2c85 -16 115 -40 152 -123c29 -65 37 -72 49 -72c22 0 22 30 32 30c6 0 7 -6 7 -12c0 -31 -25 -65 -72 -65c-36 0 -62 20 -95 89c-62 130 -78 138 -140 138h-42v-156c0 -23 13 -39 38 -40s32 -5 32 -10
c0 -7 -8 -9 -16 -9c-33 0 -65 3 -98 3s-65 -3 -98 -3c-8 0 -16 2 -16 9c0 5 7 9 32 10s38 17 38 40z" />
    <glyph glyph-name="afii10077" unicode="&#x43b;" 
d="M132 79l89 226c18 46 25 72 25 86c0 12 -9 27 -37 27c-25 0 -31 4 -31 10c0 7 4 9 16 9c33 0 52 -3 71 -3s38 3 49 3c8 0 10 -6 16 -18l154 -369c8 -20 15 -32 32 -34c19 -2 22 -4 23 -9c0 -7 -5 -10 -14 -10c-12 0 -31 3 -47 3c-17 0 -35 -3 -47 -3c-10 0 -15 4 -21 19
l-141 341l-112 -290c-20 -51 -52 -82 -99 -82c-32 0 -52 11 -52 38c0 17 11 32 35 32c26 0 29 -23 50 -23c20 0 31 21 41 47z" />
    <glyph glyph-name="afii10078" unicode="&#x43c;" horiz-adv-x="667" 
d="M476 56v294h-2l-167 -350h-8l-166 345h-2v-289c0 -23 13 -39 38 -40s32 -5 32 -10c0 -7 -8 -9 -16 -9c-23 0 -45 3 -68 3s-45 -3 -68 -3c-8 0 -16 2 -16 9c0 5 7 9 32 10s38 17 38 40v322c0 23 -13 39 -38 40s-32 5 -32 10c0 7 8 9 16 9c21 0 41 -3 62 -3s47 3 58 3
c8 0 10 -5 15 -16l147 -307l146 307c5 10 9 16 17 16c11 0 39 -3 60 -3s43 3 64 3c8 0 16 -2 16 -9c0 -5 -7 -9 -32 -10s-38 -17 -38 -40v-322c0 -23 13 -39 38 -40s32 -5 32 -10c0 -7 -8 -9 -16 -9c-33 0 -65 3 -98 3s-65 -3 -98 -3c-8 0 -16 2 -16 9c0 5 7 9 32 10
s38 17 38 40z" />
    <glyph glyph-name="afii10079" unicode="&#x43d;" horiz-adv-x="611" 
d="M103 56v322c0 23 -13 39 -38 40s-32 5 -32 10c0 7 8 9 16 9c33 0 65 -3 98 -3s65 3 98 3c8 0 16 -2 16 -9c0 -5 -7 -9 -32 -10s-38 -17 -38 -40v-141h229v141c0 23 -13 39 -38 40s-32 5 -32 10c0 7 8 9 16 9c33 0 65 -3 98 -3s65 3 98 3c8 0 16 -2 16 -9
c0 -5 -7 -9 -32 -10s-38 -17 -38 -40v-322c0 -23 13 -39 38 -40s32 -5 32 -10c0 -7 -8 -9 -16 -9c-33 0 -65 3 -98 3s-65 -3 -98 -3c-8 0 -16 2 -16 9c0 5 7 9 32 10s38 17 38 40v159h-229v-159c0 -23 13 -39 38 -40s32 -5 32 -10c0 -7 -8 -9 -16 -9c-33 0 -65 3 -98 3
s-65 -3 -98 -3c-8 0 -16 2 -16 9c0 5 7 9 32 10s38 17 38 40z" />
    <glyph glyph-name="afii10080" unicode="&#x43e;" 
d="M37 215c0 133 105 234 245 234c117 0 237 -92 237 -229c0 -134 -105 -235 -245 -235c-117 0 -237 92 -237 230zM133 217c0 -134 46 -213 145 -213s145 79 145 213s-46 213 -145 213s-145 -79 -145 -213z" />
    <glyph glyph-name="afii10081" unicode="&#x43f;" horiz-adv-x="611" 
d="M103 56v322c0 23 -13 39 -38 40s-32 5 -32 10c0 7 8 9 17 9c85 0 171 -3 256 -3s171 3 256 3c8 0 16 -2 16 -9c0 -5 -7 -9 -32 -10s-38 -17 -38 -40v-322c0 -23 13 -39 38 -40s32 -5 32 -10c0 -7 -8 -9 -16 -9c-33 0 -65 3 -98 3s-65 -3 -98 -3c-8 0 -16 2 -16 9
c0 5 7 9 32 10s38 17 38 40v344c0 12 -12 15 -115 15c-102 0 -114 -3 -114 -15v-344c0 -23 13 -39 38 -40s32 -5 32 -10c0 -7 -8 -9 -16 -9c-33 0 -65 3 -98 3s-65 -3 -98 -3c-8 0 -16 2 -16 9c0 5 7 9 32 10s38 17 38 40z" />
    <glyph glyph-name="afii10082" unicode="&#x440;" horiz-adv-x="611" 
d="M118 -211v564c0 31 -5 45 -38 45h-14c-15 0 -18 2 -18 8c0 5 5 8 17 11c40 9 114 32 120 32c4 0 7 -2 7 -10v-74h2c31 52 81 84 149 84c121 0 228 -92 228 -241c0 -132 -103 -223 -228 -223c-62 0 -104 18 -137 53v-249c0 -23 13 -39 38 -40s32 -5 32 -10
c0 -7 -8 -9 -16 -9c-33 0 -65 3 -98 3s-65 -3 -98 -3c-8 0 -16 2 -16 9c0 5 7 9 32 10s38 17 38 40zM200 267v-117c0 -78 20 -137 128 -137c88 0 143 78 143 206c0 133 -52 202 -139 202c-90 0 -132 -56 -132 -154z" />
    <glyph glyph-name="afii10083" unicode="&#x441;" horiz-adv-x="444" 
d="M28 213c0 151 126 236 256 236c92 0 127 -36 127 -62c0 -22 -15 -34 -34 -34c-15 0 -24 7 -32 23c-21 42 -33 54 -77 54c-65 0 -140 -50 -140 -225c0 -142 82 -192 148 -192c48 0 91 15 101 42c8 19 12 23 22 23s17 -6 17 -18c0 -19 -43 -75 -163 -75
c-104 0 -225 55 -225 228z" />
    <glyph glyph-name="afii10084" unicode="&#x442;" horiz-adv-x="500" 
d="M206 56v344c0 11 -8 15 -61 15c-51 0 -85 -10 -93 -46c-8 -34 -12 -40 -17 -40c-6 0 -7 5 -7 16c0 12 6 68 6 78c0 12 3 14 11 14c68 0 135 -3 205 -3s137 3 205 3c8 0 11 -2 11 -14c0 -10 6 -66 6 -78c0 -11 -1 -16 -7 -16c-5 0 -9 6 -17 40c-8 36 -42 46 -93 46
c-53 0 -61 -4 -61 -15v-344c0 -23 13 -39 38 -40s32 -5 32 -10c0 -7 -8 -9 -16 -9c-33 0 -65 3 -98 3s-65 -3 -98 -3c-8 0 -16 2 -16 9c0 5 7 9 32 10s38 17 38 40z" />
    <glyph glyph-name="afii10085" unicode="&#x443;" horiz-adv-x="500" 
d="M185 348l97 -243h2l90 217c11 26 21 51 21 66c0 13 -5 25 -28 30c-22 5 -28 5 -28 12c0 5 6 7 16 7c19 0 38 -3 57 -3s38 3 57 3c5 0 11 -2 11 -8c0 -8 -6 -10 -14 -11c-10 -1 -19 -4 -25 -17l-280 -628c-19 -42 -34 -53 -54 -53c-18 0 -31 13 -31 32c0 23 25 33 44 42
c44 21 115 197 115 213c0 7 -3 12 -10 28l-144 338c-11 25 -18 41 -38 45c-16 3 -23 5 -23 10c0 7 8 9 16 9c33 0 65 -3 98 -3s65 3 90 3c8 0 16 -2 16 -9c0 -5 -5 -9 -28 -10c-17 -1 -36 -10 -36 -30c0 -9 4 -26 9 -40z" />
    <glyph glyph-name="afii10086" unicode="&#x444;" horiz-adv-x="666" 
d="M289 -211v196c-135 6 -256 82 -256 232s121 226 256 232v102c0 23 -13 39 -38 40s-32 5 -32 10c0 7 8 9 16 9c33 0 65 -3 98 -3s65 3 98 3c8 0 16 -2 16 -9c0 -5 -7 -9 -32 -10s-38 -17 -38 -40v-102c135 -6 256 -82 256 -232s-121 -226 -256 -232v-196
c0 -23 13 -39 38 -40s32 -5 32 -10c0 -7 -8 -9 -16 -9c-33 0 -65 3 -98 3s-65 -3 -98 -3c-8 0 -16 2 -16 9c0 5 7 9 32 10s38 17 38 40zM289 4v426c-103 -5 -160 -87 -160 -213s57 -208 160 -213zM377 430v-426c103 5 160 87 160 213s-57 208 -160 213z" />
    <glyph glyph-name="afii10087" unicode="&#x445;" 
d="M229 204l-150 183c-14 17 -26 31 -40 31s-21 4 -21 10c0 7 8 9 16 9c31 0 62 -3 92 -3s61 3 91 3c9 0 17 -2 17 -9c0 -5 -7 -10 -32 -10c-13 0 -22 -5 -22 -18c0 -9 14 -27 30 -46l75 -90l65 78c17 20 25 39 25 50c0 16 -11 26 -32 26c-17 0 -24 5 -24 10c0 7 8 9 16 9
c26 0 53 -3 79 -3c27 0 53 3 76 3c4 0 8 -2 8 -8c0 -8 -5 -11 -16 -11c-27 0 -39 -7 -61 -33l-121 -139l130 -156c29 -34 65 -73 83 -74s25 -4 25 -10s-5 -9 -18 -9c-35 0 -69 3 -104 3s-69 -3 -104 -3c-8 0 -16 2 -16 9c0 5 7 9 32 10c17 1 28 9 28 23c0 13 -16 29 -53 74
l-58 71l-34 -41c-34 -43 -61 -78 -61 -98c0 -16 9 -28 26 -29c25 -1 32 -5 32 -10c0 -7 -8 -9 -16 -9c-25 0 -49 3 -74 3s-49 -3 -74 -3c-16 0 -23 2 -23 8s9 9 34 11s43 26 75 66z" />
    <glyph glyph-name="afii10088" unicode="&#x446;" horiz-adv-x="611" 
d="M420 70v308c0 23 -13 39 -38 40s-32 5 -32 10c0 7 8 9 16 9c33 0 65 -3 98 -3s65 3 98 3c8 0 16 -2 16 -9c0 -5 -7 -9 -32 -10s-38 -17 -38 -40v-308c0 -29 9 -48 37 -48c26 0 33 -4 33 -16c0 -15 -49 -160 -64 -160c-7 0 -9 8 -9 21v113c0 13 -4 17 -16 17
c-48 1 -143 3 -217 3c-37 0 -74 -1 -111 -1c-38 -1 -75 -2 -112 -2c-8 0 -16 2 -16 9c0 5 7 9 32 10s38 17 38 40v322c0 23 -13 39 -38 40s-32 5 -32 10c0 7 8 9 16 9c33 0 65 -3 98 -3s65 3 98 3c8 0 16 -2 16 -9c0 -5 -7 -9 -32 -10s-38 -17 -38 -40v-308
c0 -39 31 -48 115 -48c83 0 114 9 114 48z" />
    <glyph glyph-name="afii10089" unicode="&#x447;" 
d="M361 56v156c-31 -21 -76 -33 -124 -33c-98 0 -146 31 -146 114v85c0 23 -13 39 -38 40s-32 5 -32 10c0 7 8 9 16 9c33 0 65 -3 98 -3s65 3 98 3c8 0 16 -2 16 -9c0 -5 -7 -9 -32 -10s-38 -17 -38 -40v-81c0 -71 26 -93 87 -93c36 0 69 12 95 30v144c0 23 -13 39 -38 40
s-32 5 -32 10c0 7 8 9 16 9c33 0 65 -3 98 -3s65 3 98 3c8 0 16 -2 16 -9c0 -5 -7 -9 -32 -10s-38 -17 -38 -40v-322c0 -23 13 -39 38 -40s32 -5 32 -10c0 -7 -8 -9 -16 -9c-33 0 -65 3 -98 3s-65 -3 -98 -3c-8 0 -16 2 -16 9c0 5 7 9 32 10s38 17 38 40z" />
    <glyph glyph-name="afii10090" unicode="&#x448;" horiz-adv-x="832" 
d="M650 70v308c0 23 -13 39 -38 40s-32 5 -32 10c0 7 8 9 16 9c33 0 65 -3 98 -3s65 3 98 3c8 0 16 -2 16 -9c0 -5 -7 -9 -32 -10s-38 -17 -38 -40v-322c0 -23 13 -39 38 -40s32 -5 32 -10c0 -7 -8 -9 -16 -9c-125 0 -251 3 -376 3s-251 -3 -376 -3c-8 0 -16 2 -16 9
c0 5 7 9 32 10s38 17 38 40v322c0 23 -13 39 -38 40s-32 5 -32 10c0 7 8 9 16 9c33 0 65 -3 98 -3s65 3 98 3c8 0 16 -2 16 -9c0 -5 -7 -9 -32 -10s-38 -17 -38 -40v-308c0 -39 31 -48 95 -48s95 9 95 48v308c0 23 -13 39 -38 40s-32 5 -32 10c0 7 8 9 16 9
c33 0 65 -3 98 -3s65 3 98 3c8 0 16 -2 16 -9c0 -5 -7 -9 -32 -10s-38 -17 -38 -40v-308c0 -39 31 -48 95 -48s95 9 95 48z" />
    <glyph glyph-name="afii10091" unicode="&#x449;" horiz-adv-x="832" 
d="M650 70v308c0 23 -13 39 -38 40s-32 5 -32 10c0 7 8 9 16 9c33 0 65 -3 98 -3s65 3 98 3c8 0 16 -2 16 -9c0 -5 -7 -9 -32 -10s-38 -17 -38 -40v-308c0 -29 9 -48 37 -48c26 0 33 -4 33 -16c0 -15 -49 -160 -64 -160c-7 0 -9 8 -9 21v113c0 13 -4 17 -16 17
c-106 0 -221 3 -335 3c-57 0 -114 -1 -171 -1c-58 -1 -115 -2 -172 -2c-9 0 -17 2 -17 9c0 5 7 9 32 10s38 17 38 40v322c0 23 -13 39 -38 40s-32 5 -32 10c0 7 8 9 16 9c33 0 65 -3 98 -3s65 3 98 3c8 0 16 -2 16 -9c0 -5 -7 -9 -32 -10s-38 -17 -38 -40v-308
c0 -39 31 -48 95 -48s95 9 95 48v308c0 23 -13 39 -38 40s-32 5 -32 10c0 7 8 9 16 9c33 0 65 -3 98 -3s65 3 98 3c8 0 16 -2 16 -9c0 -5 -7 -9 -32 -10s-38 -17 -38 -40v-308c0 -39 31 -48 95 -48s95 9 95 48z" />
    <glyph glyph-name="afii10092" unicode="&#x44a;" horiz-adv-x="611" 
d="M214 56v344c0 9 -14 15 -40 15c-81 0 -103 -17 -120 -51c-7 -14 -13 -35 -22 -35c-6 0 -8 5 -8 12c0 14 4 74 4 87c0 7 5 9 13 9c59 0 117 -3 158 -3c52 0 105 3 157 3c8 0 16 -2 16 -9c0 -5 -7 -9 -32 -10s-38 -17 -38 -40v-120c25 2 42 3 77 3c140 0 204 -54 204 -133
c0 -87 -75 -131 -174 -131c-53 0 -105 3 -151 3c-33 0 -65 -3 -98 -3c-8 0 -16 2 -16 9c0 5 7 9 32 10s38 17 38 40zM302 224v-90c0 -86 10 -115 90 -115c50 0 95 32 95 107c0 83 -55 113 -129 113c-38 0 -56 0 -56 -15z" />
    <glyph glyph-name="afii10093" unicode="&#x44b;" horiz-adv-x="722" 
d="M531 56v322c0 23 -13 39 -38 40s-32 5 -32 10c0 7 8 9 16 9c33 0 65 -3 98 -3s65 3 98 3c8 0 16 -2 16 -9c0 -5 -7 -9 -32 -10s-38 -17 -38 -40v-322c0 -23 13 -39 38 -40s32 -5 32 -10c0 -7 -8 -9 -16 -9c-33 0 -65 3 -98 3s-65 -3 -98 -3c-8 0 -16 2 -16 9
c0 5 7 9 32 10s38 17 38 40zM97 56v322c0 23 -13 39 -38 40s-32 5 -32 10c0 7 8 9 16 9c33 0 65 -3 98 -3s65 3 98 3c8 0 16 -2 16 -9c0 -5 -7 -9 -32 -10s-38 -17 -38 -40v-120c25 2 42 3 70 3c134 0 198 -54 198 -133c0 -87 -75 -131 -168 -131c-46 0 -98 3 -144 3
c-33 0 -65 -3 -98 -3c-8 0 -16 2 -16 9c0 5 7 9 32 10s38 17 38 40zM185 224v-90c0 -86 10 -115 83 -115c44 0 89 32 89 107c0 83 -55 113 -116 113c-38 0 -56 0 -56 -15z" />
    <glyph glyph-name="afii10094" unicode="&#x44c;" horiz-adv-x="500" 
d="M103 56v322c0 23 -13 39 -38 40s-32 5 -32 10c0 7 8 9 16 9c33 0 65 -3 98 -3s65 3 98 3c8 0 16 -2 16 -9c0 -5 -7 -9 -32 -10s-38 -17 -38 -40v-120c25 2 42 3 77 3c140 0 204 -54 204 -133c0 -87 -75 -131 -174 -131c-53 0 -105 3 -151 3c-33 0 -65 -3 -98 -3
c-8 0 -16 2 -16 9c0 5 7 9 32 10s38 17 38 40zM191 224v-90c0 -86 10 -115 90 -115c50 0 95 32 95 107c0 83 -55 113 -129 113c-38 0 -56 0 -56 -15z" />
    <glyph glyph-name="afii10095" unicode="&#x44d;" horiz-adv-x="500" 
d="M463 217c0 -137 -94 -232 -253 -232c-94 0 -173 54 -173 99c0 20 12 31 33 31c62 0 7 -111 138 -111c83 0 138 57 153 168c-27 23 -45 39 -80 39c-46 0 -106 -18 -106 -36s4 -32 4 -41c0 -6 -3 -10 -9 -10c-17 0 -56 129 -56 157c0 6 3 8 8 8c16 0 15 -38 48 -38
c18 0 43 7 71 7c47 0 78 -18 124 -63c1 8 2 14 2 22c0 127 -57 213 -162 213c-113 3 -129 -127 -145 -127c-7 0 -8 7 -8 14c0 12 6 91 6 104c0 15 3 19 8 19c8 0 14 -19 24 -19c21 0 42 28 120 28c159 0 253 -112 253 -232z" />
    <glyph glyph-name="afii10096" unicode="&#x44e;" horiz-adv-x="778" 
d="M103 56v322c0 23 -13 39 -38 40s-32 5 -32 10c0 7 8 9 16 9c33 0 65 -3 98 -3s65 3 98 3c8 0 16 -2 16 -9c0 -5 -7 -9 -32 -10s-38 -17 -38 -40v-144h86c11 126 101 215 227 215c117 0 237 -92 237 -229c0 -134 -105 -235 -245 -235c-113 0 -210 89 -219 224h-86v-153
c0 -23 13 -39 38 -40s32 -5 32 -10c0 -7 -8 -9 -16 -9c-33 0 -65 3 -98 3s-65 -3 -98 -3c-8 0 -16 2 -16 9c0 5 7 9 32 10s38 17 38 40zM373 217c0 -152 56 -213 127 -213c99 0 145 79 145 213s-46 213 -145 213c-71 0 -127 -61 -127 -213z" />
    <glyph glyph-name="afii10097" unicode="&#x44f;" 
d="M361 56v139c0 9 -7 10 -20 10c-72 0 -87 -12 -106 -47l-47 -86c-36 -66 -78 -87 -108 -87c-53 0 -64 45 -64 64c0 7 3 11 8 11c13 0 5 -35 32 -35c11 0 19 10 43 67c27 65 61 114 141 119v2c-98 13 -141 50 -141 112c0 83 64 112 163 112c47 0 92 -3 143 -3
c33 0 65 3 98 3c8 0 16 -2 16 -9c0 -5 -7 -9 -32 -10s-38 -17 -38 -40v-322c0 -23 13 -39 38 -40s32 -5 32 -10c0 -7 -8 -9 -16 -9c-33 0 -65 3 -98 3s-65 -3 -98 -3c-8 0 -16 2 -16 9c0 5 7 9 32 10s38 17 38 40zM361 233v170c0 12 -11 15 -55 15c-66 0 -111 -28 -111 -98
c0 -74 50 -96 131 -96c25 0 35 1 35 9z" />
    <glyph glyph-name="cent" unicode="&#xa2;" 
d="M209 191l134 338c-9 3 -19 5 -30 5c-112 0 -141 -117 -141 -208c0 -47 6 -97 37 -135zM130 -11l55 140c-72 32 -113 114 -113 190c0 135 105 238 240 238c14 -1 27 -1 41 -2l45 111h37l-46 -117c26 -8 61 -28 61 -60c0 -18 -14 -33 -33 -33c-30 0 -41 29 -44 54h-2
l-135 -347c28 -17 53 -28 87 -28c49 0 86 32 120 65l20 -20c-40 -49 -102 -77 -165 -77c-28 0 -55 5 -82 13l-49 -127h-37z" />
    <glyph glyph-name="sterling" unicode="&#xa3;" 
d="M61 333v35h120c-13 35 -24 97 -24 124c0 132 76 196 182 196c117 0 167 -56 167 -100c0 -24 -16 -42 -39 -42c-39 0 -41 31 -48 62c-7 30 -19 61 -79 61c-33 0 -103 -21 -103 -116c0 -55 25 -129 36 -185h166v-35h-157c5 -21 12 -52 12 -103c0 -38 -5 -92 -29 -142
c62 -25 119 -28 141 -28c64 0 96 26 105 49c3 9 8 12 13 12c7 0 8 -7 8 -13c0 -67 -57 -126 -123 -126c-63 0 -114 32 -172 69c-20 -26 -53 -69 -124 -69c-32 0 -76 22 -76 70s44 78 89 78c38 0 70 -14 97 -28c5 13 8 22 8 41c0 42 -5 63 -40 190h-130zM119 105
c-21 0 -57 -12 -57 -52c0 -27 22 -46 53 -46c38 0 85 23 96 62c-37 27 -69 36 -92 36z" />
    <glyph glyph-name="fraction" unicode="&#x2044;" horiz-adv-x="165" 
d="M307 688l-426 -725l-28 22l425 721z" />
    <glyph glyph-name="yen" unicode="&#xa5;" 
d="M235 124v71h-150v36h150v24l-39 92h-111v36h96l-79 184c-22 53 -35 84 -69 84c-7 0 -14 0 -14 11s4 11 19 11c31 0 61 -3 91 -3s60 3 90 3c15 0 19 -1 19 -11c0 -8 -5 -11 -16 -11c-16 0 -45 -7 -45 -35c0 -19 8 -36 16 -57c25 -62 53 -129 73 -176l37 -86l40 86
c50 105 91 195 91 229c0 14 0 25 -28 34c-22 7 -27 8 -27 16s3 11 9 11c17 0 46 -3 70 -3c22 0 44 3 66 3c7 0 13 -1 13 -10c0 -8 -6 -11 -20 -13c-21 -4 -41 -36 -55 -66l-73 -160l-20 -41h102v-36h-119l-37 -76v-40h156v-36h-156v-71c0 -77 15 -104 48 -105
c25 -1 27 -3 27 -11c0 -9 -4 -11 -14 -11c-26 0 -66 3 -101 3s-76 -3 -101 -3c-10 0 -15 2 -15 11c0 8 3 10 27 11c34 1 49 28 49 105z" />
    <glyph glyph-name="florin" unicode="&#x192;" 
d="M423 484h-104l-30 -184c-15 -91 -33 -203 -72 -286c-35 -74 -78 -141 -168 -141c-35 0 -88 10 -88 54c0 25 19 45 44 45c50 0 33 -72 73 -72c79 0 101 215 110 273l47 311h-91l8 27h88l10 52c12 57 19 92 56 140c39 49 94 84 159 84c31 0 73 -16 73 -53
c0 -24 -21 -43 -44 -43c-47 0 -47 64 -77 64c-31 0 -49 -31 -57 -57c-14 -40 -23 -94 -30 -137l-9 -50h109z" />
    <glyph glyph-name="acute" unicode="&#xb4;" horiz-adv-x="278" 
d="M63 536l147 148c14 14 26 24 43 24c20 0 34 -15 34 -34c0 -18 -12 -30 -30 -41l-154 -97h-40z" />
    <glyph glyph-name="macron" unicode="&#xaf;" horiz-adv-x="278" 
d="M269 596h-260v41h260v-41z" />
    <glyph glyph-name="dieresis" unicode="&#xa8;" horiz-adv-x="278" 
d="M188 612c0 28 22 50 50 50s50 -22 50 -50s-22 -50 -50 -50s-50 22 -50 50zM-10 612c0 28 22 50 50 50s50 -22 50 -50s-22 -50 -50 -50s-50 22 -50 50z" />
    <glyph glyph-name="hungarumlaut" unicode="&#x2dd;" horiz-adv-x="278" 
d="M377 633l-154 -97h-40l147 148c14 14 26 24 43 24c20 0 34 -15 34 -34c0 -18 -12 -30 -30 -41zM177 633l-154 -97h-40l147 148c14 14 26 24 43 24c20 0 34 -15 34 -34c0 -18 -12 -30 -30 -41z" />
    <glyph glyph-name="caron" unicode="&#x2c7;" horiz-adv-x="278" 
d="M109 536l-125 172h36l119 -104l119 104h36l-125 -172h-60z" />
    <glyph glyph-name="dotlessi" unicode="&#x131;" horiz-adv-x="278" 
d="M103 80v273c0 31 -5 45 -38 45h-18c-16 0 -19 4 -19 9c0 4 2 9 9 10c20 3 142 32 147 32c4 0 7 -2 7 -10v-359c0 -54 13 -61 38 -64c28 -3 32 -5 32 -11s-8 -8 -16 -8c-20 0 -69 3 -103 3s-81 -3 -105 -3c-7 0 -9 3 -9 9s6 8 21 10c44 6 54 24 54 64z" />
    <glyph glyph-name="onehalf" unicode="&#xbd;" horiz-adv-x="764" 
d="M253 302h-217v26c68 2 76 8 76 53v213c0 31 0 40 -33 41l-45 1v24c46 5 96 13 143 31v-310c0 -44 8 -49 76 -53v-26zM580 688l-427 -725l-28 22l426 721zM717 123l22 -9c-12 -38 -27 -83 -35 -114h-289v22c98 71 214 143 214 232c0 51 -31 84 -85 84
c-46 0 -79 -29 -113 -73l-19 17l35 46c25 34 78 62 128 62c65 0 126 -39 126 -116c0 -61 -47 -113 -138 -172l-69 -48v-2h146c39 0 54 12 77 71z" />
    <glyph glyph-name="onequarter" unicode="&#xbc;" horiz-adv-x="764" 
d="M707 110h-71v-42c0 -36 8 -40 66 -44v-24h-201v24c66 4 69 8 69 44v42h-199v22c66 82 158 195 217 257h48v-244h71v-35zM570 145v173h-2c-38 -48 -112 -121 -149 -173h151zM269 302h-217v26c68 3 76 8 76 53v213c0 31 1 40 -33 41l-45 1v24c47 5 96 13 144 31v-310
c0 -44 7 -49 75 -53v-26zM598 688l-427 -725l-28 21l426 722z" />
    <glyph glyph-name="divide" unicode="&#xf7;" horiz-adv-x="600" 
d="M47 223v60h506v-60h-506zM300 -6c-31 0 -57 26 -57 57s26 57 57 57s57 -26 57 -57s-26 -57 -57 -57zM300 398c-31 0 -57 26 -57 57s26 57 57 57s57 -26 57 -57s-26 -57 -57 -57z" />
    <glyph glyph-name="threequarters" unicode="&#xbe;" horiz-adv-x="764" 
d="M714 110h-71v-42c0 -36 8 -40 66 -44v-24h-201v24c66 4 70 8 70 44v42h-200v22c65 82 158 195 217 257h48v-244h71v-35zM578 145v173h-3c-38 -48 -112 -121 -149 -173h152zM241 522l-1 -3c66 -9 102 -39 102 -85c0 -93 -116 -142 -193 -142c-37 0 -71 15 -91 31
c-12 11 -17 24 -13 36c4 10 12 20 20 24c4 3 11 3 16 -2c25 -31 56 -55 100 -55c61 -1 91 38 91 84c0 56 -39 77 -87 77c-19 1 -49 -5 -64 -10l-5 24c84 23 129 44 129 87c0 33 -23 57 -73 57c-42 0 -72 -23 -105 -69l-16 17l36 49c24 24 63 48 111 48h1
c72 0 116 -39 116 -88c0 -23 -19 -45 -33 -56c-13 -9 -25 -16 -41 -24zM620 688l-427 -725l-28 21l426 722z" />
    <glyph glyph-name="minus" unicode="&#x2212;" horiz-adv-x="537" 
d="M488 248h-440v56h440v-56z" />
    <glyph glyph-name="multiply" unicode="&#xd7;" horiz-adv-x="537" 
d="M486 69l-42 -39l-178 197l-178 -197l-40 39l182 198l-180 197l41 40l178 -196l177 196l40 -38l-182 -198z" />
    <glyph glyph-name="Delta" unicode="&#x2206;" horiz-adv-x="759" 
d="M557 65l-211 509l-222 -509h433zM66 0l301 688h37l288 -688h-626z" />
    <glyph glyph-name="Omega" unicode="&#x2126;" horiz-adv-x="728" 
d="M693 141l-25 -141h-235l-7 19c44 81 132 210 131 355c-1 211 -97 286 -195 286c-105 0 -192 -77 -192 -291c0 -139 75 -257 128 -350l-8 -19h-233l-23 141l24 1c21 -65 37 -76 77 -76h105c-64 55 -168 151 -168 310c0 192 129 314 293 314c167 0 288 -114 288 -306
c0 -141 -96 -245 -170 -318h109c43 0 54 9 75 76z" />
    <glyph glyph-name="uni03BC" unicode="&#x3bc;" horiz-adv-x="611" 
d="M460 479v-339c0 -68 1 -113 36 -113c31 0 38 30 38 100h24c-2 -75 -9 -138 -77 -138c-29 0 -58 15 -71 49c-9 23 -11 53 -13 106c-25 -74 -61 -151 -147 -151c-73 0 -92 51 -102 78c3 -30 19 -183 19 -217s-10 -74 -35 -74c-30 0 -30 55 -30 74c0 26 8 139 10 163
c3 55 4 135 4 167v294h64v-291c0 -27 0 -92 9 -116c17 -43 54 -44 68 -44c58 0 88 47 108 100c21 56 30 110 30 196v156h65z" />
    <glyph glyph-name="pi" unicode="&#x3c0;" horiz-adv-x="562" 
d="M510 469l23 -9c-7 -38 -22 -71 -35 -88c-16 -4 -40 -5 -68 -5c-6 -60 -5 -162 -4 -232c0 -59 12 -90 43 -90c21 0 33 10 50 30l13 -20c-25 -46 -66 -67 -102 -67c-51 0 -88 26 -88 127c0 90 6 177 11 255c-59 1 -117 2 -158 2v-19c0 -226 -50 -331 -65 -348
c-17 -7 -43 -15 -59 -17l-6 17c74 91 93 267 93 368c-66 1 -92 -18 -128 -45l-14 21c29 35 66 90 168 90c37 0 79 -1 124 -2c46 -1 94 -2 142 -2c30 0 43 5 60 34z" />
    <glyph glyph-name="afii10146" unicode="&#x462;" horiz-adv-x="813" 
d="M400 329v-221c0 -55 33 -89 103 -89c93 0 147 50 147 163c0 127 -74 162 -203 162c-42 0 -47 -4 -47 -15zM296 124v413c-6 9 -27 12 -116 12c-82 0 -136 -12 -141 -87c-2 -32 -7 -35 -15 -35c-6 0 -8 4 -8 13v122c0 9 3 15 16 15c102 0 187 -3 264 -3
c-6 57 -26 76 -68 77c-40 1 -43 3 -43 11c0 9 6 11 27 11c36 0 89 -3 136 -3s100 3 136 3c21 0 27 -2 27 -11c0 -8 -3 -10 -43 -11c-51 -1 -64 -34 -68 -77c97 0 192 3 259 3c14 0 17 -6 17 -15v-122c0 -9 -2 -13 -8 -13c-8 0 -13 3 -15 35c-5 75 -59 87 -129 87
c-96 0 -119 -3 -124 -13v-170h53c157 0 321 -34 321 -195c0 -135 -133 -174 -288 -174c-46 0 -92 3 -138 3c-47 0 -100 -3 -136 -3c-21 0 -27 2 -27 11c0 8 3 10 43 11c49 1 68 28 68 105z" />
    <glyph glyph-name="afii10147" unicode="&#x472;" horiz-adv-x="832" 
d="M44 335c0 207 155 353 372 353s372 -146 372 -353s-155 -353 -372 -353s-372 146 -372 353zM170 360h492c-6 153 -84 306 -246 306c-161 0 -240 -153 -246 -306zM664 328h-496c3 -160 81 -324 248 -324s245 164 248 324z" />
    <glyph glyph-name="afii10148" unicode="&#x474;" horiz-adv-x="778" 
d="M357 -3l-229 578c-15 38 -42 73 -79 76c-29 2 -32 6 -32 9c0 12 3 13 22 13c41 0 81 -3 122 -3s81 3 122 3c20 0 26 -1 26 -13c0 -5 -6 -9 -34 -9c-33 0 -46 -19 -46 -36c0 -18 3 -49 31 -119l157 -399l183 442c46 112 89 149 162 149c43 0 69 -20 69 -50
c0 -24 -12 -39 -30 -39c-32 0 -48 49 -83 49c-32 0 -62 -47 -86 -104l-227 -547h-48z" />
    <glyph glyph-name="afii10194" unicode="&#x463;" horiz-adv-x="596" 
d="M199 56v288c0 11 -8 15 -67 15c-31 0 -60 -5 -76 -20c-13 -13 -16 -54 -26 -54c-5 0 -6 5 -6 14c0 17 3 58 3 66c0 11 5 13 14 13h158c0 23 -13 39 -38 40s-32 5 -32 10c0 7 8 9 16 9c33 0 65 -3 98 -3s65 3 98 3c8 0 16 -2 16 -9c0 -5 -7 -9 -32 -10s-38 -17 -38 -40
h170c9 0 14 -2 14 -13c0 -8 3 -49 3 -66c0 -9 -1 -14 -6 -14c-10 0 -13 41 -26 54c-16 15 -45 20 -76 20h-16c-55 0 -63 -4 -63 -15v-86c25 2 42 3 77 3c140 0 204 -54 204 -133c0 -87 -75 -131 -174 -131c-53 0 -105 3 -151 3c-33 0 -65 -3 -98 -3c-8 0 -16 2 -16 9
c0 5 7 9 32 10s38 17 38 40zM287 224v-90c0 -86 10 -115 90 -115c50 0 95 32 95 107c0 83 -55 113 -129 113c-38 0 -56 0 -56 -15z" />
    <glyph glyph-name="afii10195" unicode="&#x473;" 
d="M37 215c0 133 105 234 245 234c117 0 237 -92 237 -229c0 -134 -105 -235 -245 -235c-117 0 -237 92 -237 230zM134 246h288c-6 116 -53 184 -144 184s-138 -68 -144 -184zM423 224h-290v-7c0 -134 46 -213 145 -213s145 79 145 213v7z" />
    <glyph glyph-name="afii10196" unicode="&#x475;" horiz-adv-x="500" 
d="M214 0l-148 353c-18 43 -27 63 -49 65c-14 1 -21 5 -21 10c0 7 8 9 16 9c33 0 65 -3 98 -3s65 3 98 3c8 0 16 -2 16 -9c0 -5 -7 -10 -32 -10c-21 0 -40 -10 -40 -30c0 -13 4 -26 10 -40l94 -230l83 201c40 99 70 127 132 127c29 0 50 -18 50 -45c0 -22 -10 -36 -24 -36
c-26 0 -39 45 -61 45c-26 0 -48 -44 -69 -94l-131 -316h-22z" />
    <glyph glyph-name="afii10846" unicode="&#x4d9;" horiz-adv-x="500" 
d="M142 298h213c14 0 20 2 20 31c0 41 -25 95 -105 95c-73 0 -115 -51 -128 -126zM450 273h-313c-2 -9 -4 -32 -4 -48c0 -148 93 -204 168 -204c88 0 110 64 130 64c5 0 11 -4 11 -11c0 -23 -57 -89 -167 -89s-238 61 -238 228c0 135 115 236 233 236
c105 0 193 -65 193 -159c0 -11 -3 -17 -13 -17z" />
    <glyph glyph-name="afii10064" unicode="&#xf6c5;" 
d="M486 708h17c-2 -34 -18 -60 -22 -65c-23 -37 -57 -44 -93 -44c-60 0 -120 12 -180 12c-15 0 -108 0 -108 -85c0 -74 72 -77 178 -77c124 0 241 -92 241 -229c0 -134 -105 -235 -245 -235c-117 0 -237 92 -237 230c0 103 62 183 150 217c-33 3 -112 10 -112 102
c0 37 20 149 162 149c31 0 62 -2 94 -3c31 -2 62 -4 93 -4c41 0 57 14 62 32zM278 4c99 0 145 79 145 213s-46 213 -145 213s-145 -79 -145 -213s46 -213 145 -213z" />
    <glyph glyph-name="Euro" unicode="&#x20ac;" 
d="M20 362l15 36h52c15 180 108 290 243 290c104 0 112 -49 123 -49c23 0 10 33 28 33c7 0 11 -6 11 -14c0 -50 5 -74 5 -128c0 -14 -3 -24 -10 -24c-8 0 -15 7 -18 34c-3 25 -39 126 -139 126c-104 0 -139 -125 -148 -268h254l-15 -36h-241c0 -9 -1 -17 -1 -26
c0 -10 0 -21 1 -29h218l-15 -36h-202c11 -157 64 -266 150 -266c101 0 125 55 146 130c10 35 12 38 18 38c10 0 10 -8 10 -25v-140c0 -10 -4 -16 -12 -16s-13 5 -13 21c0 11 -6 17 -18 17s-32 -33 -85 -43c-17 -3 -32 -4 -53 -4c-115 0 -220 103 -235 288h-69l15 36h49
c-1 9 -1 21 -1 30c0 7 1 16 1 25h-64z" />
    <glyph glyph-name="afii61289" unicode="&#x2113;" horiz-adv-x="407" 
d="M370 111l19 -17c-38 -71 -92 -110 -164 -110c-47 0 -79 15 -100 39c-23 28 -34 61 -34 143v81l-60 -45l-12 24l72 57v127c0 162 9 215 52 264c25 32 54 47 86 47c59 0 89 -61 89 -131c0 -117 -63 -207 -147 -292v-91c0 -131 33 -169 90 -169c46 0 82 33 109 73zM171 469
v-126c55 66 96 157 96 246c0 58 -15 102 -46 102c-38 0 -50 -59 -50 -222z" />
    <glyph glyph-name="estimated" unicode="&#x212e;" horiz-adv-x="850" 
d="M816 325h-634c-3 0 -5 -1 -5 -5v-191c0 -9 3 -16 8 -22c62 -64 146 -105 240 -105c101 0 191 46 252 117h57c-70 -82 -184 -136 -310 -136c-216 0 -391 157 -391 351c0 195 175 352 391 352c217 0 392 -157 392 -352v-9zM672 350v193c0 8 -3 16 -9 22
c-62 61 -145 101 -238 101s-177 -41 -239 -104c-6 -6 -9 -14 -9 -24v-188c0 -2 2 -7 5 -7h486c3 0 4 5 4 7z" />
    <glyph glyph-name="partialdiff" unicode="&#x2202;" horiz-adv-x="600" 
d="M456 308l-61 -46c-29 63 -54 94 -126 94c-73 0 -143 -44 -143 -148c0 -107 72 -142 140 -142c119 0 226 142 223 332c0 162 -77 212 -165 212c-60 0 -121 -35 -148 -78h-36c60 116 134 156 207 156c115 0 187 -82 187 -264c0 -234 -134 -436 -288 -436
c-98 0 -180 64 -180 190c0 132 98 226 224 226c81 0 124 -30 166 -96z" />
    <glyph glyph-name="product" unicode="&#x220f;" horiz-adv-x="681" 
d="M652 683v-26c-86 -6 -90 -13 -90 -68v-570c0 -64 7 -72 88 -78v-26h-255v26c78 5 83 9 83 78v599c0 29 -6 32 -35 32h-208c-29 0 -33 -3 -33 -28v-603c0 -63 0 -72 75 -78v-26h-247v26c80 6 87 12 87 78v570c0 56 -5 62 -91 68v26h626z" />
    <glyph glyph-name="summation" unicode="&#x2211;" horiz-adv-x="550" 
d="M526 97l-43 -185h-455v23l223 342l-218 382v24h450c1 -18 8 -96 12 -160l-26 -5c-9 47 -20 80 -33 101c-13 24 -29 32 -103 32h-193l185 -319l-222 -347h258c86 0 97 5 139 119z" />
    <glyph glyph-name="uni2219" unicode="&#x2219;" horiz-adv-x="278" 
d="M79 285c0 33 27 60 60 60s60 -27 60 -60s-27 -60 -60 -60s-60 27 -60 60z" />
    <glyph glyph-name="radical" unicode="&#x221a;" horiz-adv-x="600" 
d="M208 208l116 -290h2l135 778h36l-156 -900h-36l-154 376l-42 -14l-6 13z" />
    <glyph glyph-name="infinity" unicode="&#x221e;" horiz-adv-x="600" 
d="M162 403c73 0 100 -46 126 -103c31 54 62 103 133 103c87 0 132 -62 132 -150c0 -83 -41 -149 -125 -149c-69 0 -91 54 -119 102c-30 -53 -63 -102 -129 -102c-86 0 -133 66 -133 150c0 87 35 149 115 149zM170 337c-60 0 -93 -35 -93 -86c0 -46 27 -93 79 -93
c65 0 88 68 119 118c-27 44 -56 61 -105 61zM440 349c-59 0 -88 -67 -113 -115c24 -45 54 -64 103 -64c58 0 93 30 93 87c0 52 -29 92 -83 92z" />
    <glyph glyph-name="integral" unicode="&#x222b;" horiz-adv-x="370" 
d="M159 15l-19 405c-16 338 67 412 150 412c25 0 59 -15 59 -46c0 -28 -21 -42 -42 -42c-32 0 -29 46 -52 46c-21 0 -48 -31 -42 -166l18 -379c18 -357 -63 -440 -151 -440c-35 0 -59 22 -59 47c-1 26 23 45 49 45c28 0 27 -48 49 -48c30 0 46 66 40 166z" />
    <glyph glyph-name="approxequal" unicode="&#x2248;" horiz-adv-x="600" 
d="M105 111l-36 43c33 54 68 81 124 81c41 0 82 -15 118 -32s70 -32 96 -32c33 0 59 25 88 64l36 -43c-36 -52 -74 -81 -125 -81c-37 0 -78 15 -116 32s-73 32 -100 32c-41 0 -69 -35 -85 -64zM105 271l-36 43c33 54 68 81 124 81c41 0 82 -15 118 -32s70 -32 96 -32
c33 0 59 25 88 64l36 -43c-36 -52 -74 -81 -125 -81c-37 0 -78 15 -116 32s-73 32 -100 32c-41 0 -69 -35 -85 -64z" />
    <glyph glyph-name="notequal" unicode="&#x2260;" horiz-adv-x="600" 
d="M292 183h261v-60h-297l-74 -123h-70l74 123h-139v60h175l85 140h-260v60h297l74 123h70l-74 -123h139v-60h-176z" />
    <glyph glyph-name="lessequal" unicode="&#x2264;" horiz-adv-x="600" 
d="M47 323v60l506 188v-60l-431 -158l431 -158v-60zM47 0v60h506v-60h-506z" />
    <glyph glyph-name="greaterequal" unicode="&#x2265;" horiz-adv-x="600" 
d="M553 383v-60l-506 -188v60l431 158l-431 158v60zM553 60v-60h-506v60h506z" />
    <glyph glyph-name="lozenge" unicode="&#x25ca;" horiz-adv-x="553" 
d="M505 329l-196 -398h-65l-196 398l197 400h64zM442 329l-163 340h-3l-165 -339l165 -341h3z" />
    <glyph glyph-name="uni00A0" unicode="&#xa0;" horiz-adv-x="278" 
 />
    <glyph glyph-name="uni00AD" unicode="&#xad;" horiz-adv-x="333" 
d="M43 189v66h247v-66h-247z" />
    <glyph glyph-name="uni02C9" unicode="&#x2c9;" horiz-adv-x="278" 
d="M269 596h-260v41h260v-41z" />
    <glyph glyph-name="Acute" unicode="&#xf6c9;" horiz-adv-x="444" 
d="M132 713l147 148c14 14 26 24 43 24c20 0 34 -15 34 -34c0 -18 -12 -30 -30 -41l-154 -97h-40z" />
    <glyph glyph-name="Caron" unicode="&#xf6ca;" horiz-adv-x="444" 
d="M192 713l-125 172h36l119 -104l119 104h36l-125 -172h-60z" />
    <glyph glyph-name="Dieresis" unicode="&#xf6cb;" horiz-adv-x="444" 
d="M271 763c0 28 22 50 50 50s50 -22 50 -50s-22 -50 -50 -50s-50 22 -50 50zM73 763c0 28 22 50 50 50s50 -22 50 -50s-22 -50 -50 -50s-50 22 -50 50z" />
    <glyph glyph-name="DieresisAcute" unicode="&#xf6cc;" horiz-adv-x="444" 
d="M331 763c0 28 22 50 50 50s50 -22 50 -50s-22 -50 -50 -50s-50 22 -50 50zM13 763c0 28 22 50 50 50s50 -22 50 -50s-22 -50 -50 -50s-50 22 -50 50zM178 713h-40l102 141c16 23 27 31 48 31c22 0 34 -15 34 -32c0 -13 -9 -25 -30 -43z" />
    <glyph glyph-name="DieresisGrave" unicode="&#xf6cd;" horiz-adv-x="444" 
d="M113 763c0 -28 -22 -50 -50 -50s-50 22 -50 50s22 50 50 50s50 -22 50 -50zM431 763c0 -28 -22 -50 -50 -50s-50 22 -50 50s22 50 50 50s50 -22 50 -50zM306 713h-40l-114 97c-21 18 -30 30 -30 43c0 17 12 32 34 32c21 0 32 -8 48 -31z" />
    <glyph glyph-name="Grave" unicode="&#xf6ce;" horiz-adv-x="444" 
d="M272 713l-154 97c-18 11 -30 23 -30 41c0 19 14 34 34 34c17 0 29 -10 43 -24l147 -148h-40z" />
    <glyph glyph-name="Hungarumlaut" unicode="&#xf6cf;" horiz-adv-x="444" 
d="M455 810l-154 -97h-40l147 148c14 14 26 24 43 24c20 0 34 -15 34 -34c0 -18 -12 -30 -30 -41zM255 810l-154 -97h-40l147 148c14 14 26 24 43 24c20 0 34 -15 34 -34c0 -18 -12 -30 -30 -41z" />
    <glyph glyph-name="Macron" unicode="&#xf6d0;" horiz-adv-x="444" 
d="M352 743h-260v41h260v-41z" />
    <glyph glyph-name="cyrBreve" unicode="&#xf6d1;" horiz-adv-x="444" 
d="M222 713c-92 0 -173 39 -173 107c0 17 14 43 45 43s43 -21 43 -41c0 -21 -11 -30 -11 -38c0 -33 32 -49 96 -49s96 16 96 49c0 8 -11 17 -11 38c0 20 12 41 43 41s45 -26 45 -43c0 -68 -81 -107 -173 -107z" />
    <glyph glyph-name="cyrFlex" unicode="&#xf6d2;" horiz-adv-x="444" 
d="M222 863c92 0 173 -39 173 -107c0 -17 -14 -43 -45 -43s-43 21 -43 41c0 21 11 30 11 38c0 33 -32 49 -96 49s-96 -16 -96 -49c0 -8 11 -17 11 -38c0 -20 -12 -41 -43 -41s-45 26 -45 43c0 68 81 107 173 107z" />
    <glyph glyph-name="dblGrave" unicode="&#xf6d3;" horiz-adv-x="444" 
d="M155 713l-154 97c-18 11 -30 23 -30 41c0 19 14 34 34 34c17 0 29 -10 43 -24l147 -148h-40zM355 713l-154 97c-18 11 -30 23 -30 41c0 19 14 34 34 34c17 0 29 -10 43 -24l147 -148h-40z" />
    <glyph glyph-name="cyrbreve" unicode="&#xf6d4;" horiz-adv-x="278" 
d="M139 536c-92 0 -173 39 -173 107c0 17 14 43 45 43s43 -21 43 -41c0 -21 -11 -30 -11 -38c0 -33 32 -49 96 -49s96 16 96 49c0 8 -11 17 -11 38c0 20 12 41 43 41s45 -26 45 -43c0 -68 -81 -107 -173 -107z" />
    <glyph glyph-name="cyrflex" unicode="&#xf6d5;" horiz-adv-x="278" 
d="M139 686c92 0 173 -39 173 -107c0 -17 -14 -43 -45 -43s-43 21 -43 41c0 21 11 30 11 38c0 33 -32 49 -96 49s-96 -16 -96 -49c0 -8 11 -17 11 -38c0 -20 -12 -41 -43 -41s-45 26 -45 43c0 68 81 107 173 107z" />
    <glyph glyph-name="dblgrave" unicode="&#xf6d6;" horiz-adv-x="278" 
d="M85 536l-154 97c-18 11 -30 23 -30 41c0 19 14 34 34 34c17 0 29 -10 43 -24l147 -148h-40zM285 536l-154 97c-18 11 -30 23 -30 41c0 19 14 34 34 34c17 0 29 -10 43 -24l147 -148h-40z" />
    <glyph glyph-name="dieresisacute" unicode="&#xf6d7;" horiz-adv-x="278" 
d="M248 586c0 28 22 50 50 50s50 -22 50 -50s-22 -50 -50 -50s-50 22 -50 50zM-70 586c0 28 22 50 50 50s50 -22 50 -50s-22 -50 -50 -50s-50 22 -50 50zM97 536h-40l102 141c16 23 27 31 48 31c22 0 34 -15 34 -32c0 -13 -9 -25 -30 -43z" />
    <glyph glyph-name="dieresisgrave" unicode="&#xf6d8;" horiz-adv-x="278" 
d="M44 586c0 -28 -22 -50 -50 -50s-50 22 -50 50s22 50 50 50s50 -22 50 -50zM362 586c0 -28 -22 -50 -50 -50s-50 22 -50 50s22 50 50 50s50 -22 50 -50zM235 536h-40l-114 97c-21 18 -30 30 -30 43c0 17 12 32 34 32c21 0 32 -8 48 -31z" />
    <glyph glyph-name="uni2215" unicode="&#x2215;" horiz-adv-x="165" 
d="M307 688l-426 -725l-28 22l425 721z" />
    <glyph glyph-name="uni03A9" unicode="&#x3a9;" horiz-adv-x="728" 
d="M693 141l-25 -141h-235l-7 19c44 81 132 210 131 355c-1 211 -97 286 -195 286c-105 0 -192 -77 -192 -291c0 -139 75 -257 128 -350l-8 -19h-233l-23 141l24 1c21 -65 37 -76 77 -76h105c-64 55 -168 151 -168 310c0 192 129 314 293 314c167 0 288 -114 288 -306
c0 -141 -96 -245 -170 -318h109c43 0 54 9 75 76z" />
    </font>
</defs>
</svg>
